<svg xmlns="http://www.w3.org/2000/svg" width="114" height="110.992" viewBox="0 0 114 110.992">
  <g id="Grupo_136219" data-name="Grupo 136219" transform="translate(-968.53 -748.959)">
    <path id="Trazado_194193" data-name="Trazado 194193" d="M968.53,755.028c1.351-1.858,1.977-1.978,3.792-.7q8.894,6.259,17.785,12.525c.381.268.768.525,1.289.88q3.156-3.8,6.314-7.6c1.4-1.68,2.035-1.756,3.669-.451,2.227,1.778,4.445,3.574,6.9,5.548a8.2,8.2,0,0,0-2.705-4.261,4.139,4.139,0,0,1-1.031-5.77c1.845-3.043,4.261-5.243,7.423-6.071a5.872,5.872,0,0,1,4.628.869,15.538,15.538,0,0,0,12.515,1.746,33.8,33.8,0,0,1,12.7-1.167,10.168,10.168,0,0,1,3.312,1c2.085,1.05,2.677,3.283,1.628,5.664a9.1,9.1,0,0,1-.9,1.659c-3.117,4.3-4.863,9.412-6.253,14.744-.218.835-.488,1.65-.788,2.653a101.682,101.682,0,0,1,13.512,17.346c1.4-1.546,2.729-3.009,4.052-4.482,1.969-2.192,3.336-2.2,5.306-.06q7.4,8.027,14.817,16.031c.161.174.332.332.782.78.445-.676.84-1.372,1.318-1.976a1.744,1.744,0,0,1,2.246-.589,2.349,2.349,0,0,1,1.312,2.243c.13,4.009.3,8.017.387,12.027.043,1.979-1.142,3.5-2.831,3.5q-5.287.011-10.572-.239c-1.66-.077-2.464-2.341-1.456-3.921a25.624,25.624,0,0,1,1.594-2.028l-9.625-10.431c-.945.513-1.118,1.109-.627,2.255a75.182,75.182,0,0,1,5.827,20.67c.917,7.6.465,14.977-3.35,21.547a18.49,18.49,0,0,1-12.07,8.923,59.878,59.878,0,0,1-11.651,1.818c-6.779.293-13.581.33-20.359.03-6.834-.3-13.559-1.675-19.811-5.253a21.884,21.884,0,0,1-11.18-15.629,41.614,41.614,0,0,1,.939-17.993A94.8,94.8,0,0,1,1001.15,790.8c2.051-3.06,4.32-5.914,6.57-8.974l-7.329-5.924c-2.138,2.567-4.245,5.109-6.365,7.637-1.184,1.412-1.962,1.537-3.356.556q-10.091-7.1-20.177-14.212a2.859,2.859,0,0,1-1.445-2.955c.366-1.794,1.874-2.466,3.358-1.431,4.154,2.9,8.293,5.825,12.437,8.742l6.974,4.91,6.114-7.266c1.723-2.048,2.264-2.113,4.291-.477q22.955,18.527,45.908,37.057c.3.243.614.466.985.746l6.677-7.418c.407-.452.807-.911,1.218-1.357,1.812-1.965,3.247-1.953,5.06.015,3.59,3.9,7.168,7.806,10.791,11.657,1,1.058,1.834,2.093,1.342,3.947h4v-4.7c-1.4.675-2.276-.1-3.163-1.064q-7.71-8.408-15.463-16.76c-.161-.174-.345-.318-.577-.529-2.509,2.785-5,5.546-7.491,8.317-2.027,2.258-3.044,2.355-5.37.477l-45.357-36.617c-.271-.219-.547-.428-.894-.7-2.124,2.532-4.214,5.028-6.309,7.517-1.334,1.585-1.951,1.672-3.605.508q-9.948-7-19.885-14.018a12.407,12.407,0,0,1-1.562-1.605Zm86.887,53.961c-1.232,1.371-2.279,2.55-3.338,3.712-2.147,2.359-3.079,2.444-5.456.525q-16.927-13.665-33.857-27.323c-1.653-1.332-1.124-1.5-2.645.34A99.978,99.978,0,0,0,994.576,812.5c-2.491,6.145-4.387,12.509-4.562,19.425-.181,7.159,1.992,12.9,7.28,16.69,5.4,3.875,11.435,5.307,17.586,5.864,5.317.482,10.67.549,16.007.548a65.566,65.566,0,0,0,16.266-1.55c3.483-.884,6.825-2.222,9.413-5.282,3.807-4.5,4.688-10.222,4.487-16.305a55.714,55.714,0,0,0-2.825-15C1057.4,814.272,1056.4,811.733,1055.417,808.989ZM1042.67,755.81a4.513,4.513,0,0,0-.693-.213,33.106,33.106,0,0,0-10.622.643c-3.534.924-7.083,1.656-10.661.6-2.1-.624-4.123-1.65-6.2-2.4-.748-.269-1.712-.626-2.326-.291a26.312,26.312,0,0,0-3.533,2.672c1.152,2.04,2.286,3.73,3.117,5.609a50.282,50.282,0,0,1,2.137,6.213,5.681,5.681,0,0,0,1.642,2.513c1.406,1.434,2.583,1.527,4.28.41,3.938-2.592,8.09-2.931,12.235-.48,1.087.643,2.143,1.361,3.312,2.109C1036.953,766.968,1038.848,760.929,1042.67,755.81Zm-21.047,20.181c.446.37.771.647,1.1.914q5.517,4.455,11.035,8.906,7.036,5.674,14.072,11.349c.474.383.93.868,1.316-.157a4.211,4.211,0,0,0-.211-.435,101.889,101.889,0,0,0-11.8-15.614,23.209,23.209,0,0,0-7.823-5.919A7.877,7.877,0,0,0,1021.623,775.991Z" fill="#b13e8d"/>
    <path id="Trazado_194194" data-name="Trazado 194194" d="M1126.235,916.587a20.633,20.633,0,1,1-20.7,20.568A20.559,20.559,0,0,1,1126.235,916.587Zm-.05,4.954a15.663,15.663,0,1,0,15.64,15.715A15.57,15.57,0,0,0,1126.185,921.541Z" transform="translate(-99.609 -108.364)" fill="#b13e8d"/>
    <path id="Trazado_194195" data-name="Trazado 194195" d="M1154.2,945.033a16.809,16.809,0,0,1-2.1-1.444,3.747,3.747,0,0,0-4.457-.821,2.4,2.4,0,0,0-1.207,1.625,2.266,2.266,0,0,0,1.309,1.524,12.9,12.9,0,0,0,2.964.555c3.872.572,6.661,3.538,6.506,7.083-.127,2.911-1.82,4.778-4.4,5.888a1.548,1.548,0,0,0-1.145,1.493,2.359,2.359,0,0,1-2.4,2.173,2.386,2.386,0,0,1-2.368-2.213c-.06-.776-.409-1.051-1.045-1.428a14.861,14.861,0,0,1-3.294-2.541,2.308,2.308,0,0,1,.262-3.509,2.447,2.447,0,0,1,3.526.4,3.81,3.81,0,0,0,4.96.9c1.271-.806,1.329-2.109,0-2.8a7.711,7.711,0,0,0-2.644-.674c-3.2-.378-5.777-1.666-6.975-4.828s.478-6.642,3.831-8.121c.828-.365,1.359-.694,1.412-1.733a2.388,2.388,0,0,1,4.72.081c.052.913.531,1.178,1.214,1.6a17.492,17.492,0,0,1,3.249,2.6,1.914,1.914,0,0,1,.13,2.565A11.373,11.373,0,0,1,1154.2,945.033Z" transform="translate(-122.676 -119.988)" fill="#b13e8d"/>
  </g>
</svg>
