<svg xmlns="http://www.w3.org/2000/svg" width="100" height="100" viewBox="0 0 100 100">
  <g id="Grupo_136522" data-name="Grupo 136522" transform="translate(-180 -2010)">
    <g id="Grupo_136147" data-name="Grupo 136147" transform="translate(180 2010)">
      <circle id="Elipse_5359" data-name="Elipse 5359" cx="50" cy="50" r="50" fill="#b13e8d"/>
    </g>
    <g id="Grupo_136284" data-name="Grupo 136284" transform="translate(1582.772 106.143)">
      <path id="Trazado_194558" data-name="Trazado 194558" d="M-1386.772,1977.852c.447-.93,1.335-.615,2.158-.714v-.733c0-3.5.1-7.01-.024-10.509a9.874,9.874,0,0,1,8.656-10.314c0-.787.017-1.588-.014-2.387a.868.868,0,0,0-.294-.49,9.967,9.967,0,0,1-2.486-3.951,1.343,1.343,0,0,0-.391-.592c-2.977-2.378-3.764-5.5-3.084-9.1a1.113,1.113,0,0,0-.336-1.12,7.459,7.459,0,0,1,.5-10.767,7.453,7.453,0,0,1,10.691.867,1.3,1.3,0,0,0,1.237.528,11.513,11.513,0,0,1,11.952,9.279,10.685,10.685,0,0,1-.371,7.184.714.714,0,0,1-.051.124,18.722,18.722,0,0,0-2.218,4.6,8.486,8.486,0,0,1-4.012,4.385c-.581.314-.489.763-.422,1.19.027.172.38.358.616.423a6.409,6.409,0,0,1,4.717,5.685c.032.461.168.621.635.607.92-.028,1.842-.03,2.761.011a3.108,3.108,0,0,1,3.092,3.039c.059,3.681.02,7.365.01,11.047a6.934,6.934,0,0,1-.144.973h2.477v-.792c0-4.806.029-9.612-.011-14.417a5.552,5.552,0,0,1,3.414-5.521c1.965-.932,3.879-1.969,5.846-2.9.715-.337.4-.894.483-1.376.08-.445-.214-.548-.542-.7a9.371,9.371,0,0,1-5.913-8.588c-.1-2.152-.018-4.311-.044-6.466a.9.9,0,0,0-.279-.662,3.429,3.429,0,0,1-1.778-4.035,6.365,6.365,0,0,1,6.069-5.26c3.1-.067,6.2-.089,9.3,0a8.538,8.538,0,0,1,8.158,8.358q.067,3.906,0,7.814a5.1,5.1,0,0,1-2.73,4.571.858.858,0,0,0-.5.892q.042,1.852,0,3.7a1.359,1.359,0,0,0,.851,1.383c1.572.768,3.133,1.556,4.695,2.345a5.28,5.28,0,0,1,3.095,5.033c.007,1.909.01,3.818-.006,5.726a.76.76,0,0,0,.448.783,5.168,5.168,0,0,1,2.791,4.739c.02,3.48.007,6.961,0,10.442,0,.828-.391,1.312-1.028,1.3s-.991-.488-.991-1.336q0-5.086,0-10.173a3.31,3.31,0,0,0-3.6-3.6q-7.276-.013-14.552,0a3.286,3.286,0,0,0-3.575,3.62c-.006,3.324,0,6.647,0,9.97a3.056,3.056,0,0,1-.076.8.908.908,0,0,1-1.01.709.919.919,0,0,1-.906-.842,5.348,5.348,0,0,1-.025-.74c0-4.9-.022-9.791.01-14.686a4.989,4.989,0,0,0-1.986-4.27c-1.115-.863-2.175-1.8-3.422-2.836-.059.689-.143,1.226-.144,1.762q-.014,9.971-.007,19.941a5.923,5.923,0,0,1-.021.74.988.988,0,0,1-1.037.935.942.942,0,0,1-.942-.957c-.031-.83-.016-1.661-.02-2.492,0-.264,0-.528,0-.854h-.873q-16.64,0-33.28.009a1.546,1.546,0,0,1-1.5-.672Zm7.731-.708a9.58,9.58,0,0,1-.166-1.215c-.019-1.707-.015-3.413-.007-5.12,0-.747.378-1.18.99-1.193.645-.014,1.023.422,1.026,1.214.006,1.55,0,3.1,0,4.649,0,1.27.422,1.689,1.7,1.689q9.162,0,18.325,0c1.318,0,1.716-.4,1.717-1.737q0-4.75,0-9.5c0-1.532-.331-1.868-1.843-1.868h-17.517c-2.224,0-2.224,0-2.389,2.209a1.014,1.014,0,0,1-.96,1.023,1.02,1.02,0,0,1-1.047-.939c-.32-2.907,1.447-4.38,3.755-4.337,4.221.079,8.444.022,12.666.022h.773a4.251,4.251,0,0,0-3.031-4.279.708.708,0,0,0-1,.388,5.288,5.288,0,0,1-9.168.018.846.846,0,0,0-1.063-.482,7.64,7.64,0,0,0-6.307,7.57c-.024,3.795-.006,7.59,0,11.386a4.565,4.565,0,0,0,.055.5Zm47.552-23.772c-.066-.61-.161-1.137-.174-1.667-.026-1.077-.017-2.155,0-3.232a.648.648,0,0,0-.46-.745,1.319,1.319,0,0,1-.59-.93c-.08-.587.369-.906,1.182-.989a3.262,3.262,0,0,0,3.089-3.225c.036-2.626.066-5.254-.012-7.879a6.444,6.444,0,0,0-6.2-6.269c-3.05-.094-6.106-.059-9.158-.013a4.3,4.3,0,0,0-4.024,3.133c-.518,1.759-.068,2.372,1.749,2.382a4.3,4.3,0,0,1,4.554,4.567c.007,1.055-.022,2.111.02,3.165a4.309,4.309,0,0,0,4.1,4.134c.47.027.945-.005,1.412.042a.983.983,0,0,1,.936,1.038.981.981,0,0,1-.954.952,6.531,6.531,0,0,1-7.529-6.647c-.007-.965.018-1.931-.008-2.9a2.173,2.173,0,0,0-2.234-2.284,2.505,2.505,0,0,0-.058.385c0,2.11-.042,4.222.018,6.33a7.506,7.506,0,0,0,5.417,7.095c.847.268,1.038.519,1.045,1.4.005.708,0,1.415,0,2.151Zm-9.978,14.092a6.256,6.256,0,0,1,4.151-1.11c4.49.027,8.981.01,13.471.01h.8c0-2.174.038-4.24-.016-6.3a2.864,2.864,0,0,0-1.487-2.5c-1.308-.736-2.665-1.385-4.016-2.041a1.9,1.9,0,0,0-.791-.092c-2.649-.006-5.307.124-7.946-.039a12.013,12.013,0,0,0-7.479,1.783c-.861.549-1.827.935-2.814,1.431,1.258,1.05,2.44,2.044,3.63,3.027a6.36,6.36,0,0,1,2.278,3.71C-1341.557,1965.995-1341.546,1966.673-1341.467,1967.465Zm-32.248-28.993c-2.456,2.3-3.548,4.658-3.5,7.488a7.631,7.631,0,0,0,6.6,7.361,7.458,7.458,0,0,0,8.32-5.564,25.616,25.616,0,0,0,.28-5.212c.006-.6-.514-.886-1.121-.953A26.263,26.263,0,0,1-1373.715,1938.472Zm-5.534,6.708a10.541,10.541,0,0,1,1.818-5.444c.839-1.158,1.826-2.211,2.777-3.285a1,1,0,0,1,1.4-.11,23.345,23.345,0,0,0,2.169,1.211,25.806,25.806,0,0,0,8.118,2.023,3.132,3.132,0,0,1,2.9,2.317,3.218,3.218,0,0,0,.144.331,7.214,7.214,0,0,0,.084-1.7,15.734,15.734,0,0,0-.258-1.864,9.571,9.571,0,0,0-9.441-8.1,10.911,10.911,0,0,0-10.874,9.758A6.6,6.6,0,0,0-1379.249,1945.18Zm6-16.121a5.381,5.381,0,0,0-7.525-.358,5.417,5.417,0,0,0-.619,7.5A13.147,13.147,0,0,1-1373.245,1929.059Zm-.673,25.341c-.171,1.643.126,3.032,1.58,3.906a3.111,3.111,0,0,0,3.545-.1,3.174,3.174,0,0,0,1.433-3.04A10.071,10.071,0,0,1-1373.918,1954.4Z" fill="#fff"/>
      <path id="Trazado_194559" data-name="Trazado 194559" d="M-1284.47,2162.567a3.167,3.167,0,0,1-3.174,3.158,3.214,3.214,0,0,1-3.158-3.194,3.17,3.17,0,0,1,3.194-3.138A3.122,3.122,0,0,1-1284.47,2162.567Zm-2.027-.048a1.1,1.1,0,0,0-1.177-1.1,1.145,1.145,0,0,0-1.1,1.128,1.183,1.183,0,0,0,1.163,1.152A1.144,1.144,0,0,0-1286.5,2162.519Z" transform="translate(-78.693 -191.941)" fill="#fff"/>
      <path id="Trazado_194560" data-name="Trazado 194560" d="M-1299.853,2053.927c-.832-.209-1.62-.366-2.379-.614a.968.968,0,0,1-.682-1.265.985.985,0,0,1,1.364-.6,4.889,4.889,0,0,0,3.538-.008.972.972,0,0,1,1.317.583.957.957,0,0,1-.639,1.284C-1298.158,2053.568-1299.014,2053.725-1299.853,2053.927Z" transform="translate(-68.715 -103.356)" fill="#fff"/>
      <path id="Trazado_194561" data-name="Trazado 194561" d="M-1308.954,2022.845c0-1.042.3-1.519.981-1.538.7-.02,1.04.489,1.04,1.554,0,.157.006.314,0,.47a1,1,0,0,1-1.053,1.053.991.991,0,0,1-.963-1.069C-1308.959,2023.159-1308.953,2023-1308.954,2022.845Z" transform="translate(-63.808 -78.713)" fill="#fff"/>
      <path id="Trazado_194562" data-name="Trazado 194562" d="M-1271.054,2022.969a4.25,4.25,0,0,1,0,.536.944.944,0,0,1-.96.929.919.919,0,0,1-1.025-.852,5.028,5.028,0,0,1,0-1.338.927.927,0,0,1,1.016-.87.947.947,0,0,1,.97.925A6.023,6.023,0,0,1-1271.054,2022.969Z" transform="translate(-93.218 -78.766)" fill="#fff"/>
    </g>
  </g>
</svg>
