<svg xmlns="http://www.w3.org/2000/svg" width="100" height="100" viewBox="0 0 100 100">
  <g id="Grupo_136523" data-name="Grupo 136523" transform="translate(-180 -2179)">
    <g id="Grupo_136148" data-name="Grupo 136148" transform="translate(180 2179)">
      <circle id="Elipse_5360" data-name="Elipse 5360" cx="50" cy="50" r="50" fill="#b13e8d"/>
    </g>
    <g id="Grupo_136282" data-name="Grupo 136282" transform="translate(1286.759 1293.733)">
      <path id="Trazado_194539" data-name="Trazado 194539" d="M-1052.162,897.267h1.486c.144.053.287.11.433.158a4.212,4.212,0,0,1,3.031,3.384,4.391,4.391,0,0,1-.5,2.872c-.182.36-.028.552.221.732.276.2.385.684.922.434a7.626,7.626,0,0,1,1.6-.52.976.976,0,0,1,1.16.783.979.979,0,0,1-.689,1.166c-.733.281-1.478.531-2.209.815a1.146,1.146,0,0,1-1.392-.335c-.486-.529-1-1.039-1.526-1.523a1.12,1.12,0,0,1-.338-1.388c.2-.476.413-.948.6-1.43a2.226,2.226,0,0,0-1.154-2.937,2.216,2.216,0,0,0-2.947,1.256c-.211.471-.4.954-.593,1.432a1.129,1.129,0,0,1-1.231.732c-.694-.031-1.393-.039-2.087,0a1.145,1.145,0,0,1-1.275-.763c-.2-.5-.4-1-.627-1.49a2.2,2.2,0,0,0-2.87-1.178,2.214,2.214,0,0,0-1.215,2.857c.193.527.427,1.039.64,1.558a1.1,1.1,0,0,1-.329,1.334c-.541.507-1.064,1.033-1.572,1.572a1.1,1.1,0,0,1-1.338.315c-.5-.207-.99-.43-1.495-.62a2.218,2.218,0,0,0-2.887,1.145,2.2,2.2,0,0,0,1.164,2.925c.489.227.991.426,1.492.626a1.143,1.143,0,0,1,.753,1.28,16.413,16.413,0,0,0,0,2.018,1.163,1.163,0,0,1-.8,1.317c-.524.2-1.048.409-1.552.657a2.185,2.185,0,0,0-1.09,2.8,2.2,2.2,0,0,0,2.777,1.264c.552-.19,1.085-.433,1.625-.656a1.125,1.125,0,0,1,1.387.35,19.18,19.18,0,0,0,1.476,1.477,1.156,1.156,0,0,1,.343,1.5c-.214.47-.412.949-.59,1.433a2.216,2.216,0,0,0,1.2,2.865,2.2,2.2,0,0,0,2.877-1.16c.231-.486.433-.987.629-1.49a1.14,1.14,0,0,1,1.266-.777,20.493,20.493,0,0,0,2.087,0,1.143,1.143,0,0,1,1.264.779c.205.523.413,1.046.659,1.55a2.185,2.185,0,0,0,2.847,1.094,2.206,2.206,0,0,0,1.213-2.8c-.186-.529-.417-1.043-.637-1.559a1.121,1.121,0,0,1,.324-1.392c.529-.486,1.041-.993,1.525-1.524a1.124,1.124,0,0,1,1.387-.348c.519.217,1.031.45,1.56.64a2.207,2.207,0,0,0,2.815-1.184,2.19,2.19,0,0,0-1.126-2.887c-.507-.241-1.032-.444-1.552-.656a1.125,1.125,0,0,1-.744-1.221c.029-.716.029-1.436,0-2.153a1.12,1.12,0,0,1,.756-1.213c.48-.191.962-.381,1.432-.594a2.2,2.2,0,0,0,1.294-2.768c-.218-.778-.009-1.315.579-1.492.63-.189,1.131.153,1.378.941a4.259,4.259,0,0,1-2.5,5.2c-.968.433-1.014.533-.723,1.656h.72c3.04,0,6.08,0,9.12,0a8.969,8.969,0,0,1,1.547.088,6.3,6.3,0,0,1,5.289,6.515q.01,16.3,0,32.606v.893c.229.064.424.114.615.172a6.044,6.044,0,0,1,4.256,4.229c.077.253.162.5.243.754v1.755c-.026.036-.067.067-.077.107-.89,3.515-3.006,5.159-6.644,5.159h-53.37c-1.036,0-2.072.015-3.108-.007a6.125,6.125,0,0,1-5.957-5.477,6.148,6.148,0,0,1,4.452-6.517c.209-.059.416-.122.635-.187v-.863q0-16.169,0-32.339a9.216,9.216,0,0,1,.089-1.614,6.245,6.245,0,0,1,6.189-5.266c3.242-.044,6.485-.013,9.728-.015h.711c.178-1.237.176-1.232-.872-1.709a4.072,4.072,0,0,1-2.572-3.731,4.237,4.237,0,0,1,5.929-4.058c.393.153.746.513,1.247,0a1.02,1.02,0,0,0,.234-1.326,4.19,4.19,0,0,1,2.88-5.919,1.393,1.393,0,0,0,.236-.117h1.486a16.012,16.012,0,0,1,1.627.761,4.191,4.191,0,0,1,1.719,2.344.56.56,0,0,0,.709.423c.343-.051.776.188.951-.364A4.635,4.635,0,0,1-1052.162,897.267Zm12.17,21.987c1.277,0,2.647-.007,4.016,0a3.7,3.7,0,0,1,3.966,3.96q.008,12.051,0,24.1a4.515,4.515,0,0,1-.1,1.069,3.523,3.523,0,0,1-3.787,2.683q-20.436,0-40.871,0c-.247,0-.5-.005-.742-.027a3.412,3.412,0,0,1-3.168-3.354q-.029-12.422,0-24.844a3.56,3.56,0,0,1,2.722-3.445,6.271,6.271,0,0,1,1.469-.139c1.3-.018,2.6-.006,3.784-.006.21-1.092.4-2.083.592-3.08.014,0-.029-.018-.072-.018-2.342,0-4.684-.015-7.026-.005a4.287,4.287,0,0,0-4.589,4.605q-.006,16.338,0,32.676v.745c1.869,0,3.624,0,5.38,0a3.718,3.718,0,0,1,.739.047.914.914,0,0,1,.793,1.012.9.9,0,0,1-.815.926,5.086,5.086,0,0,1-.808.037c-2.251.016-4.507-.05-6.753.067a3.971,3.971,0,0,0-3.648,3.991,4.1,4.1,0,0,0,4.317,4.119q19.422.005,38.845,0,8.816,0,17.632,0a4.323,4.323,0,0,0,2.552-.726,4.077,4.077,0,0,0,1.593-4.583,4.064,4.064,0,0,0-4.054-2.866c-5.449-.02-10.9,0-16.349-.014a.6.6,0,0,0-.7.509,5.438,5.438,0,0,1-5.324,4c-3.963.031-7.927.019-11.89,0a5.035,5.035,0,0,1-3.976-1.7,23.852,23.852,0,0,1-1.781-2.8c-1.044,0-2.346,0-3.648,0-.765,0-1.533.017-2.295-.036a.888.888,0,0,1-.861-.952.915.915,0,0,1,.821-.993,5.005,5.005,0,0,1,.874-.043q21.652,0,43.3,0h.955v-.914q0-9.586,0-19.173c0-4.478.007-8.956,0-13.435a4.269,4.269,0,0,0-4.487-4.5c-2.274-.017-4.549,0-6.823,0-.153,0-.307.02-.37.025Zm-16.41,29.791q10.235,0,20.469,0c1.339,0,1.895-.5,1.9-1.713q.007-12.084,0-24.168a1.679,1.679,0,0,0-1.875-1.88q-2.432-.019-4.864,0a1.006,1.006,0,0,0-.619.163,4.354,4.354,0,0,1-5.134.682.684.684,0,0,0-.493-.06,1.092,1.092,0,0,0-.546,1.512,5.947,5.947,0,0,1,.215.567,4.087,4.087,0,0,1-.926,4.141,4.024,4.024,0,0,1-4.048,1.263,4.217,4.217,0,0,1-3.1-2.742c-.1-.245-.271-.576-.48-.641-.753-.234-1.1-.019-1.42.732a4.139,4.139,0,0,1-3.75,2.755,4.241,4.241,0,0,1-4.135-5.922c.152-.392.5-.731.011-1.247-.514-.541-.9-.4-1.452-.178a4.2,4.2,0,0,1-4.538-.747,1.225,1.225,0,0,0-.708-.273q-2.5-.034-5-.006a1.64,1.64,0,0,0-1.769,1.776q-.012,12.185,0,24.371a1.464,1.464,0,0,0,1.589,1.608c.2.009.405,0,.608,0Zm9.279,7.221h-18.5a3.327,3.327,0,0,0,3.162,2.4q6.1.061,12.21,0A3.2,3.2,0,0,0-1047.123,956.266Z" transform="translate(0 0)" fill="#fff"/>
      <path id="Trazado_194540" data-name="Trazado 194540" d="M-928.549,951.4a6.476,6.476,0,0,1,6.466,6.431,6.479,6.479,0,0,1-6.452,6.446,6.481,6.481,0,0,1-6.434-6.4A6.482,6.482,0,0,1-928.549,951.4Zm4.3,7.058c.422-1.094-.249-3.244-1.818-4.278a4.446,4.446,0,0,0-5.174.185,4.023,4.023,0,0,0-1.55,4.092Zm-7.663,2.088c1.725,2.437,5.562,2.015,6.719,0Z" transform="translate(-127.827 -44.37)" fill="#f7fcf3"/>
      <path id="Trazado_194541" data-name="Trazado 194541" d="M-986.72,1092.134c.526-.555.922-1.018,1.364-1.431a3.389,3.389,0,0,1,4.75.012,3.391,3.391,0,0,1,.114,4.744c-.42.463-.929.846-1.611,1.457a18.2,18.2,0,0,1,1.422,1.159,3.412,3.412,0,0,1,.081,4.941,3.412,3.412,0,0,1-4.9-.114c-.385-.376-.745-.78-1.239-1.3-.414.46-.763.89-1.156,1.275a3.414,3.414,0,0,1-4.946.118,3.443,3.443,0,0,1,.122-4.947c.375-.381.764-.748,1.228-1.2-.481-.454-.92-.835-1.32-1.253a3.42,3.42,0,0,1-.031-4.849,3.4,3.4,0,0,1,4.848.02C-987.57,1091.168-987.2,1091.619-986.72,1092.134Zm-5.258,8.518a5.51,5.51,0,0,0,.955,1.146,1.189,1.189,0,0,0,1.546-.218c.653-.618,1.272-1.272,1.919-1.9a1.056,1.056,0,0,1,1.7.005c.6.579,1.172,1.182,1.771,1.759a1.382,1.382,0,0,0,2.089.09,1.4,1.4,0,0,0-.123-2.041c-.514-.535-1.048-1.052-1.571-1.577-.855-.858-.859-1.235-.022-2.077.523-.526,1.055-1.045,1.571-1.578a1.4,1.4,0,0,0,.12-2.088,1.388,1.388,0,0,0-2.088.138c-.6.579-1.172,1.182-1.771,1.759a1.028,1.028,0,0,1-1.647,0c-.6-.576-1.174-1.18-1.771-1.76a1.394,1.394,0,0,0-2.09-.148,1.424,1.424,0,0,0,.117,2.095c.531.55,1.082,1.081,1.621,1.624.759.766.755,1.2-.021,1.983-.539.542-1.106,1.059-1.614,1.629A7.715,7.715,0,0,0-991.978,1100.652Z" transform="translate(-79.59 -157.749)" fill="#f7fcf3"/>
      <path id="Trazado_194542" data-name="Trazado 194542" d="M-871.985,1088.5c.911-1.606,1.755-3.161,2.663-4.677a3.294,3.294,0,0,1,5.664-.086,3.036,3.036,0,0,1,.153,3.21c-1.73,3.125-3.456,6.252-5.278,9.323a3.231,3.231,0,0,1-5.3.343c-1.384-1.684-2.713-3.416-4.011-5.168a3.262,3.262,0,0,1,.681-4.566,3.3,3.3,0,0,1,4.591.569C-872.549,1087.773-872.294,1088.11-871.985,1088.5Zm-3.481-.464a5.331,5.331,0,0,0-1.072.923,1.193,1.193,0,0,0,.178,1.439c1.187,1.526,2.368,3.057,3.557,4.582.893,1.144,1.852,1.069,2.573-.2q2.358-4.163,4.705-8.333c.12-.214.314-.459.289-.666a2.056,2.056,0,0,0-.39-1.194,1.5,1.5,0,0,0-1.21-.273,1.775,1.775,0,0,0-.894.826c-1.069,1.821-2.085,3.672-3.134,5.5-.518.9-1.274.952-1.93.134-.521-.649-.994-1.338-1.547-1.957A6.31,6.31,0,0,0-875.466,1088.036Z" transform="translate(-173.909 -151.544)" fill="#f7fcf3"/>
    </g>
  </g>
</svg>
