<svg xmlns="http://www.w3.org/2000/svg" xmlns:xlink="http://www.w3.org/1999/xlink" width="356.766" height="549.848" viewBox="0 0 356.766 549.848">
  <defs>
    <linearGradient id="linear-gradient" x1="1" y1="0.5" x2="0" y2="0.5" gradientUnits="objectBoundingBox">
      <stop offset="0" stop-color="#dae3fe"/>
      <stop offset="1" stop-color="#e9effd"/>
    </linearGradient>
    <linearGradient id="linear-gradient-5" x1="0.483" y1="-0.847" x2="0.514" y2="2.518" gradientUnits="objectBoundingBox">
      <stop offset="0" stop-color="#09005d"/>
      <stop offset="1" stop-color="#1a0f91"/>
    </linearGradient>
    <linearGradient id="linear-gradient-6" x1="0.502" y1="-0.398" x2="0.499" y2="0.985" xlink:href="#linear-gradient-5"/>
    <linearGradient id="linear-gradient-7" x1="0.308" y1="-0.111" x2="-0.037" y2="-1.199" gradientUnits="objectBoundingBox">
      <stop offset="0" stop-color="#4f52ff"/>
      <stop offset="1" stop-color="#4042e2"/>
    </linearGradient>
    <linearGradient id="linear-gradient-8" x1="0.5" y1="1.913" x2="0.5" y2="0.824" xlink:href="#linear-gradient-5"/>
    <linearGradient id="linear-gradient-9" x1="9.746" y1="2.017" x2="-5.715" y2="-0.52" gradientUnits="objectBoundingBox">
      <stop offset="0" stop-color="#ff928e"/>
      <stop offset="1" stop-color="#fe7062"/>
    </linearGradient>
    <linearGradient id="linear-gradient-10" x1="9.524" y1="2.756" x2="-5.937" y2="-1.109" xlink:href="#linear-gradient-9"/>
    <linearGradient id="linear-gradient-11" x1="11.834" y1="1.735" x2="-3.628" y2="0.05" xlink:href="#linear-gradient-9"/>
    <linearGradient id="linear-gradient-12" x1="9.913" y1="4.77" x2="-5.548" y2="-2.244" xlink:href="#linear-gradient-9"/>
    <linearGradient id="linear-gradient-13" x1="12.421" y1="2" x2="-3.04" y2="0.055" xlink:href="#linear-gradient-9"/>
    <linearGradient id="linear-gradient-14" x1="12.449" y1="2.318" x2="-3.012" y2="-0.034" xlink:href="#linear-gradient-9"/>
    <linearGradient id="linear-gradient-15" x1="12.435" y1="2.851" x2="-3.026" y2="-0.195" xlink:href="#linear-gradient-9"/>
    <linearGradient id="linear-gradient-16" x1="0.918" y1="1.764" x2="-1.18" y2="-4.578" gradientUnits="objectBoundingBox">
      <stop offset="0" stop-color="#fdf53f"/>
      <stop offset="1" stop-color="#d93c65"/>
    </linearGradient>
    <linearGradient id="linear-gradient-17" x1="0.082" y1="-0.764" x2="2.18" y2="5.578" xlink:href="#linear-gradient-7"/>
    <linearGradient id="linear-gradient-20" x1="0.082" y1="-0.764" x2="2.18" y2="5.578" xlink:href="#linear-gradient-7"/>
    <linearGradient id="linear-gradient-21" x1="0.082" y1="-0.764" x2="2.18" y2="5.578" xlink:href="#linear-gradient-9"/>
    <linearGradient id="linear-gradient-22" x1="-0.346" y1="-0.303" x2="1.82" y2="1.752" xlink:href="#linear-gradient-9"/>
    <linearGradient id="linear-gradient-23" x1="-0.582" y1="-0.178" x2="1.938" y2="1.647" xlink:href="#linear-gradient-9"/>
    <linearGradient id="linear-gradient-24" x1="-0.327" y1="-0.174" x2="1.781" y2="1.65" xlink:href="#linear-gradient-9"/>
    <linearGradient id="linear-gradient-30" x1="0.06" y1="-0.484" x2="2.895" y2="6.012" xlink:href="#linear-gradient-7"/>
    <linearGradient id="linear-gradient-31" x1="1" y1="0.5" x2="0" y2="0.5" gradientUnits="objectBoundingBox">
      <stop offset="0" stop-color="#febbba"/>
      <stop offset="1" stop-color="#ff928e"/>
    </linearGradient>
    <linearGradient id="linear-gradient-32" x1="1" y1="0.5" x2="0" y2="0.5" gradientUnits="objectBoundingBox">
      <stop offset="0" stop-color="#e1473d"/>
      <stop offset="1" stop-color="#e9605a"/>
    </linearGradient>
    <linearGradient id="linear-gradient-33" x1="-2.08" y1="-2.223" x2="4.938" y2="5.384" xlink:href="#linear-gradient-7"/>
    <linearGradient id="linear-gradient-36" x1="1.353" y1="0.921" x2="0.242" y2="0.203" xlink:href="#linear-gradient-9"/>
    <linearGradient id="linear-gradient-38" x1="-84.659" y1="1.605" x2="-86.659" y2="4.278" xlink:href="#linear-gradient-31"/>
    <linearGradient id="linear-gradient-39" x1="0.661" y1="0.706" x2="-1.358" y2="-1.072" xlink:href="#linear-gradient-31"/>
    <linearGradient id="linear-gradient-40" x1="1.793" y1="1.447" x2="-0.997" y2="-0.39" xlink:href="#linear-gradient-9"/>
    <linearGradient id="linear-gradient-42" x1="-1.783" y1="-1.24" x2="-0.328" y2="-0.168" xlink:href="#linear-gradient-5"/>
    <linearGradient id="linear-gradient-43" x1="0.068" y1="-3.497" x2="0.641" y2="1.805" xlink:href="#linear-gradient-7"/>
    <linearGradient id="linear-gradient-44" x1="0.395" y1="-1.235" x2="0.539" y2="1.146" xlink:href="#linear-gradient-7"/>
    <linearGradient id="linear-gradient-47" x1="36.658" y1="-16.018" x2="36.98" y2="-17.084" xlink:href="#linear-gradient-31"/>
    <linearGradient id="linear-gradient-48" x1="28.07" y1="-13.346" x2="27.865" y2="-12.167" xlink:href="#linear-gradient-5"/>
    <linearGradient id="linear-gradient-49" x1="118.425" y1="-80.107" x2="119.368" y2="-84.754" xlink:href="#linear-gradient-31"/>
  </defs>
  <g id="Grupo_136279" data-name="Grupo 136279" transform="translate(0 -3.622)">
    <g id="Grupo_136255" data-name="Grupo 136255" transform="translate(101.129 3.622)">
      <g id="Grupo_136250" data-name="Grupo 136250" transform="translate(0 0)">
        <g id="Grupo_136247" data-name="Grupo 136247" transform="translate(24.996)" opacity="0.3">
          <path id="Trazado_194465" data-name="Trazado 194465" d="M1581.732,548.754a1.714,1.714,0,0,0,1.595-1.647c.071-1.935.059-3.9-.036-5.845a1.714,1.714,0,0,0-1.8-1.629l-.033,0a1.714,1.714,0,0,0-1.6,1.793c.09,1.847.1,3.715.034,5.552a1.714,1.714,0,0,0,1.65,1.776A1.617,1.617,0,0,0,1581.732,548.754Zm-1.12-14.889a1.75,1.75,0,0,0,.2-.026,1.714,1.714,0,0,0,1.369-2c-.359-1.911-.8-3.826-1.319-5.69a1.714,1.714,0,1,0-3.3.915c.491,1.773.913,3.591,1.253,5.407A1.714,1.714,0,0,0,1580.612,533.865Zm-4.37-14.272a1.715,1.715,0,0,0,1.456-2.394c-.773-1.78-1.633-3.548-2.557-5.255a1.714,1.714,0,0,0-3.015,1.631c.877,1.621,1.694,3.3,2.428,4.99A1.715,1.715,0,0,0,1576.242,519.592Zm-7.454-12.939a1.714,1.714,0,0,0,1.262-2.727c-1.153-1.563-2.387-3.094-3.667-4.552a1.714,1.714,0,0,0-2.575,2.263c1.217,1.384,2.389,2.839,3.483,4.324A1.714,1.714,0,0,0,1568.788,506.653ZM1558.636,495.7a1.714,1.714,0,0,0,1-3.008c-1.467-1.265-3.009-2.485-4.582-3.625a1.714,1.714,0,1,0-2.011,2.775c1.5,1.084,2.961,2.243,4.355,3.445A1.708,1.708,0,0,0,1558.636,495.7Zm-12.321-8.433a1.714,1.714,0,0,0,.69-3.223c-1.713-.911-3.486-1.759-5.271-2.521a1.714,1.714,0,0,0-1.346,3.153c1.7.724,3.38,1.53,5.008,2.4A1.7,1.7,0,0,0,1546.315,487.267Zm-62.937.176a1.71,1.71,0,0,0,.7-.2c1.621-.874,3.3-1.688,5-2.42a1.714,1.714,0,0,0-1.36-3.146c-1.785.771-3.555,1.629-5.262,2.548a1.714,1.714,0,0,0,.93,3.22Zm49.062-5.665a1.714,1.714,0,0,0,.332-3.365c-1.872-.507-3.79-.939-5.7-1.283a1.714,1.714,0,1,0-.609,3.374c1.813.327,3.634.737,5.412,1.218A1.721,1.721,0,0,0,1532.441,481.778Zm-35.2.11a1.725,1.725,0,0,0,.34-.057c1.777-.489,3.6-.907,5.413-1.244a1.714,1.714,0,1,0-.625-3.37c-1.91.355-3.827.795-5.7,1.309a1.714,1.714,0,0,0,.568,3.363Zm20.451-2.363a1.714,1.714,0,0,0-.052-3.423c-1.937-.075-3.9-.067-5.843.024l-.037,0a1.714,1.714,0,0,0,.2,3.422c1.843-.086,3.71-.093,5.551-.022C1517.566,479.53,1517.627,479.529,1517.688,479.525Z" transform="translate(-1471.512 -476.052)" fill="#bdd0fb"/>
          <path id="Trazado_194466" data-name="Trazado 194466" d="M2100.9,556.352a1.706,1.706,0,0,0,.954-.372c.689-.553,1.4-1.1,2.118-1.627a1.714,1.714,0,1,0-2.032-2.76c-.753.554-1.5,1.13-2.229,1.711a1.714,1.714,0,0,0,1.189,3.048Z" transform="translate(-2099.07 -538.318)" fill="#bdd0fb"/>
        </g>
        <g id="Grupo_136248" data-name="Grupo 136248" transform="translate(0 57.886)" opacity="0.3">
          <path id="Trazado_194467" data-name="Trazado 194467" d="M2255.821,818.6a1.714,1.714,0,0,0,1.589-1.554c.08-.88.181-1.773.3-2.654a1.714,1.714,0,1,0-3.4-.453c-.124.927-.229,1.868-.314,2.794a1.714,1.714,0,0,0,1.551,1.863A1.735,1.735,0,0,0,2255.821,818.6Z" transform="translate(-2253.783 -812.451)" fill="#bdd0fb"/>
          <path id="Trazado_194468" data-name="Trazado 194468" d="M1742.1,948.256q1.18-.08,2.367-.2a1.714,1.714,0,0,0-.347-3.411c-1.825.186-3.654.3-5.455.33a1.714,1.714,0,1,0,.064,3.427C1739.845,948.381,1740.979,948.332,1742.1,948.256Zm11.285-1.729a1.705,1.705,0,0,0,.289-.045c1.859-.449,3.719-.981,5.53-1.583a1.714,1.714,0,1,0-1.082-3.252c-1.719.572-3.487,1.077-5.253,1.5a1.714,1.714,0,0,0,.516,3.376Zm-23.664,1.417a1.714,1.714,0,0,0,.084-3.412c-1.8-.214-3.611-.507-5.39-.874a1.714,1.714,0,1,0-.691,3.358c1.873.386,3.783.7,5.677.92A1.732,1.732,0,0,0,1729.722,947.944Zm37.484-6.42a1.714,1.714,0,0,0,.642-.174c1.713-.846,3.411-1.775,5.046-2.761a1.714,1.714,0,0,0-1.771-2.934c-1.552.937-3.165,1.819-4.792,2.622a1.714,1.714,0,0,0,.875,3.248Zm-51.784,3.081a1.714,1.714,0,0,0,.457-3.326c-1.706-.6-3.41-1.289-5.065-2.037a1.714,1.714,0,1,0-1.412,3.123c1.743.788,3.537,1.51,5.334,2.145A1.709,1.709,0,0,0,1715.423,944.605Zm-13.221-6.4a1.714,1.714,0,0,0,.8-3.161c-1.537-.965-3.052-2.007-4.5-3.095a1.714,1.714,0,1,0-2.058,2.741c1.526,1.145,3.119,2.241,4.737,3.257A1.705,1.705,0,0,0,1702.2,938.209Zm-11.512-9.126a1.714,1.714,0,0,0,1.089-2.928c-1.292-1.278-2.543-2.624-3.721-4a1.714,1.714,0,1,0-2.605,2.227c1.239,1.449,2.556,2.866,3.915,4.211A1.71,1.71,0,0,0,1690.689,929.083Zm-9.247-11.419a1.714,1.714,0,0,0,1.325-2.635c-.981-1.528-1.907-3.116-2.753-4.719a1.714,1.714,0,1,0-3.031,1.6c.891,1.688,1.866,3.36,2.9,4.969A1.713,1.713,0,0,0,1681.442,917.664Zm-6.518-13.176a1.716,1.716,0,0,0,1.5-2.295c-.618-1.7-1.171-3.454-1.644-5.207a1.714,1.714,0,0,0-3.309.894c.5,1.845,1.081,3.689,1.731,5.482A1.716,1.716,0,0,0,1674.924,904.489Zm-3.461-14.276c.035,0,.07-.006.105-.011a1.714,1.714,0,0,0,1.48-1.919c-.171-1.325-.3-2.671-.394-4q-.049-.722-.082-1.443a1.713,1.713,0,0,0-1.791-1.633,1.7,1.7,0,0,0-1.633,1.79q.035.758.086,1.517c.095,1.4.234,2.816.415,4.209A1.714,1.714,0,0,0,1671.463,890.213Z" transform="translate(-1669.146 -869.373)" fill="#bdd0fb"/>
          <path id="Trazado_194469" data-name="Trazado 194469" d="M1615.279,1160.579a1.708,1.708,0,0,0,.961-.377c.721-.584,1.444-1.194,2.148-1.813a1.714,1.714,0,0,0-2.264-2.574c-.669.588-1.355,1.167-2.04,1.722a1.714,1.714,0,0,0,1.2,3.042Z" transform="translate(-1504.809 -1096.377)" fill="#bdd0fb"/>
        </g>
        <g id="Grupo_136249" data-name="Grupo 136249" transform="translate(16.702 16.328)">
          <path id="Trazado_194470" data-name="Trazado 194470" d="M1670.063,657.025a.8.8,0,0,1-.878.305l-9.357-2.739a42.473,42.473,0,0,1-11.646,7.328l-1.585,9.613a.8.8,0,0,1-.656.659l-11.529,1.963a.8.8,0,0,1-.837-.405L1628.9,665.2a42.474,42.474,0,0,1-13.415-3.062l-7.924,5.681a.8.8,0,0,1-.93,0l-9.54-6.764a.8.8,0,0,1-.305-.878l2.739-9.357a42.47,42.47,0,0,1-7.328-11.646l-9.614-1.586a.8.8,0,0,1-.659-.656l-1.963-11.529a.8.8,0,0,1,.405-.837l8.547-4.677a42.458,42.458,0,0,1,3.062-13.414l-5.681-7.924a.8.8,0,0,1,0-.93l6.764-9.54a.8.8,0,0,1,.878-.305l9.357,2.739a42.459,42.459,0,0,1,11.646-7.328l1.585-9.614a.8.8,0,0,1,.656-.659l11.529-1.963a.8.8,0,0,1,.837.405l4.677,8.547a42.466,42.466,0,0,1,13.415,3.062l7.924-5.68a.8.8,0,0,1,.93,0l9.54,6.764a.8.8,0,0,1,.306.878l-2.739,9.357a42.464,42.464,0,0,1,7.328,11.646l9.614,1.585a.8.8,0,0,1,.659.656l1.963,11.529a.8.8,0,0,1-.405.837l-8.547,4.677a42.473,42.473,0,0,1-3.062,13.415l5.68,7.924a.8.8,0,0,1,0,.93Z" transform="translate(-1579.947 -570.944)" fill="#bdd0fb"/>
          <path id="Trazado_194471" data-name="Trazado 194471" d="M1824.127,826.048a11.761,11.761,0,1,0-1.726-.01A11.773,11.773,0,0,0,1824.127,826.048Zm-1.431-20.721a9.175,9.175,0,0,1,1.337.007,8.982,8.982,0,1,1-1.337-.007Z" transform="translate(-1771.712 -762.707)" fill="url(#linear-gradient)"/>
          <path id="Trazado_194472" data-name="Trazado 194472" d="M1743.819,759.712a29.491,29.491,0,0,0,2.95-.35h0q.464-.079.926-.173a29.094,29.094,0,0,0,4.448-1.281l.059-.022.167-.064.323-.127a.685.685,0,1,0-.51-1.273,27.564,27.564,0,0,1-30.692-7.105,27.365,27.365,0,0,1-6.715-13.828,27.947,27.947,0,0,1-.334-2.814,27.535,27.535,0,1,1,53.145,8.164.686.686,0,1,0,1.278.5,28.907,28.907,0,1,0-55.792-8.572,29.549,29.549,0,0,0,.351,2.954,28.91,28.91,0,0,0,30.4,23.994Z" transform="translate(-1690.496 -679.416)" fill="url(#linear-gradient)"/>
        </g>
      </g>
      <g id="Grupo_136254" data-name="Grupo 136254" transform="translate(113.396 57.377)">
        <g id="Grupo_136251" data-name="Grupo 136251" transform="translate(27.691)" opacity="0.3">
          <path id="Trazado_194473" data-name="Trazado 194473" d="M1126.734,1114.774a1.058,1.058,0,0,0,.961-.828c.194-.877.365-1.773.506-2.661a1.059,1.059,0,1,0-2.091-.333c-.135.846-.3,1.7-.482,2.537a1.059,1.059,0,0,0,.8,1.262A1.073,1.073,0,0,0,1126.734,1114.774Z" transform="translate(-1071.196 -1058.34)" fill="#bdd0fb"/>
          <path id="Trazado_194474" data-name="Trazado 194474" d="M1178.947,857.851a1.059,1.059,0,0,0,.985-1.02,46.032,46.032,0,0,0-.078-4.656q-.033-.487-.077-.977a1.1,1.1,0,0,0-1.149-.961,1.059,1.059,0,0,0-.961,1.148q.042.468.074.934a44.029,44.029,0,0,1,.075,4.441,1.059,1.059,0,0,0,1.022,1.094C1178.875,857.854,1178.911,857.853,1178.947,857.851Zm-.975-10.948a1.108,1.108,0,0,0,.151-.02,1.06,1.06,0,0,0,.814-1.257,45.952,45.952,0,0,0-1.513-5.427,1.059,1.059,0,0,0-2,.693,43.856,43.856,0,0,1,1.443,5.177A1.059,1.059,0,0,0,1177.972,846.9Zm-3.6-10.385a1.058,1.058,0,0,0,.877-1.525,45.674,45.674,0,0,0-2.8-4.892,1.059,1.059,0,0,0-1.769,1.164,43.458,43.458,0,0,1,2.672,4.665A1.06,1.06,0,0,0,1174.371,836.518Zm-6.044-9.182a1.058,1.058,0,0,0,.733-1.743,45.93,45.93,0,0,0-3.914-4.057,1.059,1.059,0,0,0-1.429,1.562,43.7,43.7,0,0,1,3.732,3.868A1.057,1.057,0,0,0,1168.327,827.336Zm-8.1-7.427a1.059,1.059,0,0,0,.544-1.919,46.361,46.361,0,0,0-4.779-2.982,1.059,1.059,0,1,0-1.009,1.861,44.124,44.124,0,0,1,4.559,2.846A1.056,1.056,0,0,0,1160.224,819.909Zm-9.659-5.235a1.059,1.059,0,0,0,.315-2.042,45.592,45.592,0,0,0-5.361-1.727,1.059,1.059,0,0,0-.523,2.052,43.427,43.427,0,0,1,5.111,1.646A1.051,1.051,0,0,0,1150.565,814.675Zm-10.643-2.713a1.059,1.059,0,0,0,.06-2.106,45.921,45.921,0,0,0-5.624-.359,1.059,1.059,0,0,0,0,2.118,43.542,43.542,0,0,1,5.363.341A1.066,1.066,0,0,0,1139.923,811.961Zm-16.407.977a1.051,1.051,0,0,0,.184-.029,43.916,43.916,0,0,1,4.591-.881c.234-.034.465-.064.7-.091a1.059,1.059,0,0,0-.252-2.1c-.245.03-.49.061-.736.1a46.038,46.038,0,0,0-4.808.924,1.059,1.059,0,0,0,.326,2.083Z" transform="translate(-1122.387 -809.496)" fill="#bdd0fb"/>
        </g>
        <g id="Grupo_136252" data-name="Grupo 136252" transform="translate(0 67.359)" opacity="0.3">
          <path id="Trazado_194475" data-name="Trazado 194475" d="M1290.688,1224.973a1.059,1.059,0,0,0-.13-2.113,43.8,43.8,0,0,1-5.285-.03,1.059,1.059,0,1,0-.141,2.113,46.08,46.08,0,0,0,5.541.032Zm5.38-.62a1.068,1.068,0,0,0,.114-.014,46.31,46.31,0,0,0,5.391-1.289,1.059,1.059,0,0,0-.615-2.026,44.247,44.247,0,0,1-5.145,1.23,1.059,1.059,0,0,0,.254,2.1Zm-16.165-.1a1.058,1.058,0,0,0,.127-2.1,43.907,43.907,0,0,1-5.123-1.309,1.059,1.059,0,0,0-.647,2.017,45.989,45.989,0,0,0,5.371,1.37A1.051,1.051,0,0,0,1279.9,1224.253Zm26.511-3.05a1.063,1.063,0,0,0,.358-.088,45.38,45.38,0,0,0,4.923-2.554,1.058,1.058,0,1,0-1.088-1.816,43.474,43.474,0,0,1-4.694,2.435,1.058,1.058,0,0,0,.5,2.024Zm-36.8-.255a1.059,1.059,0,0,0,.373-2.018,43.583,43.583,0,0,1-4.657-2.5,1.059,1.059,0,0,0-1.113,1.8,46.036,46.036,0,0,0,4.883,2.622A1.059,1.059,0,0,0,1269.614,1220.948Zm-9.2-5.677a1.059,1.059,0,0,0,.59-1.883,44.2,44.2,0,0,1-3.926-3.543,1.058,1.058,0,0,0-1.511,1.483,46.29,46.29,0,0,0,4.115,3.714A1.055,1.055,0,0,0,1260.417,1215.271Zm-7.573-7.718a1.047,1.047,0,0,0,.572-.217,1.058,1.058,0,0,0,.195-1.484,43.332,43.332,0,0,1-2.961-4.381,1.059,1.059,0,0,0-1.823,1.077,45.708,45.708,0,0,0,3.1,4.6A1.059,1.059,0,0,0,1252.844,1207.553Z" transform="translate(-1248.679 -1200.95)" fill="#bdd0fb"/>
          <path id="Trazado_194476" data-name="Trazado 194476" d="M1211.78,1267.906a1.053,1.053,0,0,0,.579-.222c.715-.557,1.416-1.138,2.084-1.727a1.059,1.059,0,0,0-1.4-1.59c-.638.561-1.307,1.115-1.988,1.647a1.059,1.059,0,0,0,.724,1.891Z" transform="translate(-1144.726 -1253.238)" fill="#bdd0fb"/>
        </g>
        <g id="Grupo_136253" data-name="Grupo 136253" transform="translate(4.949 10.841)">
          <path id="Trazado_194477" data-name="Trazado 194477" d="M1248.019,930.1a.536.536,0,0,1-.588.2l-6.261-1.833a28.419,28.419,0,0,1-7.793,4.9l-1.061,6.433a.536.536,0,0,1-.439.441l-7.714,1.313a.537.537,0,0,1-.56-.271l-3.129-5.72a28.419,28.419,0,0,1-8.977-2.049l-5.3,3.8a.537.537,0,0,1-.622,0l-6.384-4.526a.536.536,0,0,1-.2-.588l1.832-6.261a28.418,28.418,0,0,1-4.9-7.793l-6.433-1.061a.536.536,0,0,1-.441-.439l-1.313-7.715a.536.536,0,0,1,.271-.56l5.72-3.13a28.414,28.414,0,0,1,2.049-8.976l-3.8-5.3a.536.536,0,0,1,0-.622l4.526-6.384a.536.536,0,0,1,.588-.2l6.261,1.833a28.409,28.409,0,0,1,7.793-4.9l1.061-6.433a.536.536,0,0,1,.439-.441l7.715-1.313a.536.536,0,0,1,.56.271l3.13,5.719a28.417,28.417,0,0,1,8.977,2.049l5.3-3.8a.536.536,0,0,1,.622,0l6.384,4.526a.536.536,0,0,1,.2.588l-1.832,6.261a28.416,28.416,0,0,1,4.9,7.793l6.433,1.061a.535.535,0,0,1,.441.439l1.313,7.714a.536.536,0,0,1-.271.56l-5.72,3.13a28.429,28.429,0,0,1-2.049,8.976l3.8,5.3a.536.536,0,0,1,0,.622Z" transform="translate(-1187.718 -872.5)" fill="#bdd0fb"/>
          <path id="Trazado_194478" data-name="Trazado 194478" d="M1350.454,1042.67a8.029,8.029,0,1,0-1.187-.007A8.182,8.182,0,0,0,1350.454,1042.67Zm-.96-13.866a5.988,5.988,0,0,1,.865,0,5.89,5.89,0,0,1-.926,11.744h0a5.89,5.89,0,0,1,.061-11.749Z" transform="translate(-1315.36 -1000.145)" fill="url(#linear-gradient)"/>
          <path id="Trazado_194479" data-name="Trazado 194479" d="M1294.547,996.5q1-.068,2.014-.239a20.056,20.056,0,0,0,3.916-1.083l.169-.068a1.058,1.058,0,1,0-.787-1.965,17.889,17.889,0,0,1-3.653,1.028h0l-.206.034a17.652,17.652,0,0,1-8.694-.78,17.913,17.913,0,0,1-4.269-2.192l-.033-.023-.1-.07a17.708,17.708,0,0,1-7.262-11.549,18.012,18.012,0,0,1-.217-1.821,17.825,17.825,0,1,1,34.405,5.285,1.059,1.059,0,1,0,1.973.768,19.943,19.943,0,1,0-38.491-5.914,20.4,20.4,0,0,0,.242,2.037A19.971,19.971,0,0,0,1294.547,996.5Z" transform="translate(-1258.805 -942.177)" fill="url(#linear-gradient)"/>
        </g>
      </g>
    </g>
    <g id="Grupo_136267" data-name="Grupo 136267" transform="translate(0 200.036)">
      <g id="Grupo_136256" data-name="Grupo 136256">
        <path id="Trazado_194480" data-name="Trazado 194480" d="M1774.867,2582.307l9.746,67.26H1671.538l14.728-67.26Z" transform="translate(-1565.411 -2344.625)" fill="url(#linear-gradient-5)"/>
        <path id="Trazado_194481" data-name="Trazado 194481" d="M964.485,1223.351v200.192c0,16.469-9.891,29.936-22.3,30.36-55.107,1.885-247.846,6.457-300.3,5.431-9.016-.176-16.32-9.75-16.58-21.71-1.012-46.507-2.654-158.342,3.425-210.262,1.28-10.934,8.236-19.11,16.571-19.464,46.173-1.96,250.489-8.183,302.923-6.621C957.264,1201.547,964.485,1211.349,964.485,1223.351Z" transform="translate(-624.311 -1201.029)" fill="url(#linear-gradient-6)"/>
        <path id="Trazado_194482" data-name="Trazado 194482" d="M1009.624,1259.8V1450c0,9.615-5.692,17.45-12.782,17.594l-286.235,4.8c-7.029.142-12.791-7.526-12.817-17.059l-.479-188.5c-.019-6.816,3.986-12.4,9.011-12.567l293.052-8.028C1004.994,1246.048,1009.624,1252.175,1009.624,1259.8Z" transform="translate(-682.012 -1238.451)" fill="url(#linear-gradient-7)"/>
        <path id="Trazado_194483" data-name="Trazado 194483" d="M694.581,2565.735h.007l314.866-7.255c.22-.005.395-.25.391-.547a.486.486,0,0,0-.4-.529l-314.866,7.255c-.22.005-.395.25-.391.547S694.365,2565.735,694.581,2565.735Z" transform="translate(-681.696 -2324.007)" fill="#91b3fa"/>
        <path id="Trazado_194484" data-name="Trazado 194484" d="M1474.105,2959.222H1639.6c4.5,0,7.872-3.2,7-6.639l-2.124-8.4c-.638-2.526-3.417-4.38-6.717-4.483l-159.542-4.979c-3.448-.107-6.5,1.723-7.252,4.348l-3.828,13.377C1466.144,2955.924,1469.537,2959.222,1474.105,2959.222Z" transform="translate(-1392.2 -2636.397)" fill="url(#linear-gradient-8)"/>
        <path id="Trazado_194485" data-name="Trazado 194485" d="M2030.439,2971.232a.538.538,0,0,0,.008-1.076l-6.837-.1a.55.55,0,0,0-.546.53.538.538,0,0,0,.53.546l6.837.1Z" transform="translate(-1871.142 -2665.653)" fill="#91b3fa"/>
        <path id="Trazado_194486" data-name="Trazado 194486" d="M1580.377,2985.056a.539.539,0,0,0,.532-.623l-.976-6.108a6.812,6.812,0,0,0-6.639-5.748l-72.512-1.061h-.008a.538.538,0,0,0-.008,1.076l72.512,1.061a5.738,5.738,0,0,1,5.592,4.841l.975,6.108A.539.539,0,0,0,1580.377,2985.056Z" transform="translate(-1346.255 -2666.862)" fill="#91b3fa"/>
      </g>
      <g id="Grupo_136258" data-name="Grupo 136258" transform="translate(74.413 34.642)">
        <g id="Grupo_136257" data-name="Grupo 136257" transform="translate(0)" opacity="0.53">
          <rect id="Rectángulo_43591" data-name="Rectángulo 43591" width="10.209" height="180.065" transform="translate(102.348)" fill="#91b3fa"/>
          <rect id="Rectángulo_43592" data-name="Rectángulo 43592" width="10.209" height="180.065" transform="translate(85.29)" fill="#91b3fa"/>
          <rect id="Rectángulo_43593" data-name="Rectángulo 43593" width="10.209" height="180.065" transform="translate(68.232)" fill="#91b3fa"/>
          <rect id="Rectángulo_43594" data-name="Rectángulo 43594" width="10.209" height="180.065" transform="translate(51.174)" fill="#91b3fa"/>
          <rect id="Rectángulo_43595" data-name="Rectángulo 43595" width="10.209" height="180.065" transform="translate(34.116)" fill="#91b3fa"/>
          <rect id="Rectángulo_43596" data-name="Rectángulo 43596" width="10.209" height="180.065" transform="translate(17.058)" fill="#91b3fa"/>
          <rect id="Rectángulo_43597" data-name="Rectángulo 43597" width="10.209" height="180.065" fill="#91b3fa"/>
        </g>
        <rect id="Rectángulo_43598" data-name="Rectángulo 43598" width="10.209" height="94.235" transform="translate(102.348 85.83)" fill="url(#linear-gradient-9)"/>
        <rect id="Rectángulo_43599" data-name="Rectángulo 43599" width="10.209" height="61.848" transform="translate(85.29 118.217)" fill="url(#linear-gradient-10)"/>
        <rect id="Rectángulo_43600" data-name="Rectángulo 43600" width="10.209" height="141.89" transform="translate(68.232 38.175)" fill="url(#linear-gradient-11)"/>
        <rect id="Rectángulo_43601" data-name="Rectángulo 43601" width="10.209" height="34.087" transform="translate(51.174 145.978)" fill="url(#linear-gradient-12)"/>
        <rect id="Rectángulo_43602" data-name="Rectángulo 43602" width="10.209" height="122.921" transform="translate(34.116 57.144)" fill="url(#linear-gradient-13)"/>
        <rect id="Rectángulo_43603" data-name="Rectángulo 43603" width="10.209" height="101.638" transform="translate(17.058 78.427)" fill="url(#linear-gradient-14)"/>
        <rect id="Rectángulo_43604" data-name="Rectángulo 43604" width="10.209" height="78.504" transform="translate(0 101.561)" fill="url(#linear-gradient-15)"/>
      </g>
      <g id="Grupo_136259" data-name="Grupo 136259" transform="translate(134.786 121.345)">
        <path id="Trazado_194487" data-name="Trazado 194487" d="M832.718,2000.578l159.09-1.2a5.713,5.713,0,0,0,5.67-5.713v-81.737a5.713,5.713,0,0,0-5.713-5.713H832.675a5.713,5.713,0,0,0-5.713,5.713v82.932A5.713,5.713,0,0,0,832.718,2000.578Z" transform="translate(-826.962 -1906.219)" fill="#91b3fa"/>
        <path id="Trazado_194488" data-name="Trazado 194488" d="M886.081,2016.621l20.457-21.629,29.333,31.9,20.7-22.333,19.411,21.944,14.886-18.085,29.336,30.543v22.087a5.314,5.314,0,0,1-5.274,5.314l-147.964,1.111a5.314,5.314,0,0,1-5.354-5.313v-60.086Z" transform="translate(-855.649 -1979.716)" fill="#fff" opacity="0.44"/>
        <rect id="Rectángulo_43605" data-name="Rectángulo 43605" width="0.538" height="51.457" transform="translate(29.769 36.303)" fill="#fff"/>
        <rect id="Rectángulo_43606" data-name="Rectángulo 43606" width="0.538" height="72.187" transform="translate(50.621 15.276)" fill="#fff"/>
        <rect id="Rectángulo_43607" data-name="Rectángulo 43607" width="0.538" height="40.452" transform="translate(79.953 46.79)" fill="#fff"/>
        <rect id="Rectángulo_43608" data-name="Rectángulo 43608" width="0.538" height="61.605" transform="translate(100.101 25.638)" fill="#fff"/>
        <rect id="Rectángulo_43609" data-name="Rectángulo 43609" width="0.538" height="41.108" transform="translate(120.063 46.134)" fill="#fff"/>
        <rect id="Rectángulo_43610" data-name="Rectángulo 43610" width="0.538" height="59.677" transform="translate(134.633 27.172)" fill="#fff"/>
        <circle id="Elipse_6837" data-name="Elipse 6837" cx="4.495" cy="4.495" r="4.495" transform="translate(134.902 33.529) rotate(-135)" fill="url(#linear-gradient-16)"/>
        <path id="Trazado_194489" data-name="Trazado 194489" d="M1101.4,2160.082a2.961,2.961,0,1,0,2.961-2.961A2.961,2.961,0,0,0,1101.4,2160.082Z" transform="translate(-984.026 -2113.947)" fill="url(#linear-gradient-17)"/>
        <path id="Trazado_194490" data-name="Trazado 194490" d="M1217.4,2040.964a2.961,2.961,0,1,0,2.961-2.961A2.961,2.961,0,0,0,1217.4,2040.964Z" transform="translate(-1119.992 -2015.327)" fill="url(#linear-gradient-17)"/>
        <path id="Trazado_194491" data-name="Trazado 194491" d="M1334.49,2163.89a2.961,2.961,0,1,0,2.961-2.961A2.961,2.961,0,0,0,1334.49,2163.89Z" transform="translate(-1257.229 -2117.1)" fill="url(#linear-gradient-17)"/>
        <path id="Trazado_194492" data-name="Trazado 194492" d="M1504.956,1980.744a2.961,2.961,0,1,0,2.961-2.961A2.961,2.961,0,0,0,1504.956,1980.744Z" transform="translate(-1457.028 -1965.469)" fill="url(#linear-gradient-20)"/>
        <path id="Trazado_194493" data-name="Trazado 194493" d="M1626.134,2102.944a2.961,2.961,0,1,0,2.961-2.961A2.961,2.961,0,0,0,1626.134,2102.944Z" transform="translate(-1599.057 -2066.641)" fill="url(#linear-gradient-21)"/>
      </g>
      <g id="Grupo_136260" data-name="Grupo 136260" transform="translate(256.03 87.365)" opacity="0.48">
        <path id="Trazado_194494" data-name="Trazado 194494" d="M824.773,1827.135h43.611c1.824,0,3.3,1.03,3.3,2.3s-1.479,2.3-3.3,2.3H824.773c-1.825,0-3.3-1.03-3.3-2.3S822.949,1827.135,824.773,1827.135Z" transform="translate(-821.47 -1806.763)" fill="#fff"/>
        <path id="Trazado_194495" data-name="Trazado 194495" d="M824.773,1767.94h43.611c1.824,0,3.3,1.03,3.3,2.3s-1.479,2.3-3.3,2.3H824.773c-1.825,0-3.3-1.03-3.3-2.3S822.949,1767.94,824.773,1767.94Z" transform="translate(-821.47 -1757.754)" fill="#91b3fa"/>
        <path id="Trazado_194496" data-name="Trazado 194496" d="M824.773,1708.745h43.611c1.824,0,3.3,1.03,3.3,2.3s-1.479,2.3-3.3,2.3H824.773c-1.825,0-3.3-1.03-3.3-2.3S822.949,1708.745,824.773,1708.745Z" transform="translate(-821.47 -1708.745)" fill="#91b3fa"/>
      </g>
      <g id="Grupo_136261" data-name="Grupo 136261" transform="translate(221.615 87.365)" opacity="0.48">
        <path id="Trazado_194497" data-name="Trazado 194497" d="M1177.074,1827.135h43.611c1.824,0,3.3,1.03,3.3,2.3s-1.479,2.3-3.3,2.3h-43.611c-1.824,0-3.3-1.03-3.3-2.3S1175.25,1827.135,1177.074,1827.135Z" transform="translate(-1173.771 -1806.763)" fill="#91b3fa"/>
        <path id="Trazado_194498" data-name="Trazado 194498" d="M1177.074,1767.94h43.611c1.824,0,3.3,1.03,3.3,2.3s-1.479,2.3-3.3,2.3h-43.611c-1.824,0-3.3-1.03-3.3-2.3S1175.25,1767.94,1177.074,1767.94Z" transform="translate(-1173.771 -1757.754)" fill="#91b3fa"/>
        <path id="Trazado_194499" data-name="Trazado 194499" d="M1177.074,1708.745h43.611c1.824,0,3.3,1.03,3.3,2.3s-1.479,2.3-3.3,2.3h-43.611c-1.824,0-3.3-1.03-3.3-2.3S1175.25,1708.745,1177.074,1708.745Z" transform="translate(-1173.771 -1708.745)" fill="#91b3fa"/>
      </g>
      <g id="Grupo_136262" data-name="Grupo 136262" transform="translate(177.797 87.365)" opacity="0.48">
        <path id="Trazado_194500" data-name="Trazado 194500" d="M1529.376,1827.135h43.611c1.824,0,3.3,1.03,3.3,2.3s-1.479,2.3-3.3,2.3h-43.611c-1.824,0-3.3-1.03-3.3-2.3S1527.552,1827.135,1529.376,1827.135Z" transform="translate(-1526.073 -1806.763)" fill="#91b3fa"/>
        <path id="Trazado_194501" data-name="Trazado 194501" d="M1529.376,1767.94h43.611c1.824,0,3.3,1.03,3.3,2.3s-1.479,2.3-3.3,2.3h-43.611c-1.824,0-3.3-1.03-3.3-2.3S1527.552,1767.94,1529.376,1767.94Z" transform="translate(-1526.073 -1757.754)" fill="#91b3fa"/>
        <path id="Trazado_194502" data-name="Trazado 194502" d="M1529.376,1708.745h43.611c1.824,0,3.3,1.03,3.3,2.3s-1.479,2.3-3.3,2.3h-43.611c-1.824,0-3.3-1.03-3.3-2.3S1527.552,1708.745,1529.376,1708.745Z" transform="translate(-1526.073 -1708.745)" fill="#91b3fa"/>
      </g>
      <g id="Grupo_136266" data-name="Grupo 136266" transform="translate(43.43 32.272)">
        <g id="Grupo_136263" data-name="Grupo 136263" transform="translate(1.013 64.858)">
          <ellipse id="Elipse_6838" data-name="Elipse 6838" cx="20.179" cy="20.179" rx="20.179" ry="20.179" transform="translate(0.144)" fill="#fff" opacity="0.91"/>
          <path id="Trazado_194503" data-name="Trazado 194503" d="M2780.858,1803.515a12.962,12.962,0,1,0,11.99-8.037c-.219,0-.437.006-.654.017v-3.286c.217-.009.435-.014.654-.014a16.235,16.235,0,1,1-15,10.01Z" transform="translate(-2772.525 -1787.6)" fill="url(#linear-gradient-22)"/>
          <path id="Trazado_194504" data-name="Trazado 194504" d="M2758.313,2049.71H2791.2a3.737,3.737,0,1,1,0,7.475h-32.884a3.737,3.737,0,0,1,0-7.475Z" transform="translate(-2754.576 -2000.804)" fill="#91b3fa"/>
        </g>
        <g id="Grupo_136264" data-name="Grupo 136264" transform="translate(0.926)">
          <ellipse id="Elipse_6839" data-name="Elipse 6839" cx="20.179" cy="20.179" rx="20.179" ry="20.179" transform="translate(0.317)" fill="#fff" opacity="0.91"/>
          <path id="Trazado_194505" data-name="Trazado 194505" d="M2777.457,1442.488a12.961,12.961,0,1,0,6.906-23.928q-.329,0-.654.016v-3.286c.217-.009.435-.014.654-.014a16.245,16.245,0,1,1-8.535,30.068Z" transform="translate(-2763.82 -1410.682)" fill="url(#linear-gradient-23)"/>
          <path id="Trazado_194506" data-name="Trazado 194506" d="M2758.818,1672.792H2791.7a3.737,3.737,0,1,1,0,7.474h-32.884a3.737,3.737,0,1,1,0-7.474Z" transform="translate(-2755.08 -1623.886)" fill="#91b3fa"/>
        </g>
        <g id="Grupo_136265" data-name="Grupo 136265" transform="translate(0 128.961)">
          <ellipse id="Elipse_6840" data-name="Elipse 6840" cx="20.179" cy="20.179" rx="20.179" ry="20.179" transform="matrix(-0.055, -0.998, 0.998, -0.055, 2.232, 42.528)" fill="#fff" opacity="0.91"/>
          <path id="Trazado_194507" data-name="Trazado 194507" d="M2781.255,2190.727a12.962,12.962,0,1,0,10.719-20.249c-.219,0-.437.006-.654.016v-3.285c.217-.009.435-.014.654-.014a16.245,16.245,0,1,1-13.38,25.458Z" transform="translate(-2770.98 -2162.175)" fill="url(#linear-gradient-24)"/>
          <path id="Trazado_194508" data-name="Trazado 194508" d="M2790.78,2432.184H2757.9a3.737,3.737,0,0,1,0-7.475h32.884a3.737,3.737,0,0,1,0,7.475Z" transform="translate(-2753.073 -2375.378)" fill="#91b3fa"/>
        </g>
      </g>
    </g>
    <g id="Grupo_136269" data-name="Grupo 136269" transform="translate(14.219 29.165)">
      <path id="Trazado_194509" data-name="Trazado 194509" d="M2011.295,625.407l190.937-.918c2.3-.021,4.17,2.524,4.152,5.656l-.423,75.544c-.018,3.149-1.936,5.662-4.249,5.568l-189.849-4.066c-2.208-.09-3.972-2.532-4-5.539l-.665-70.56C2007.168,627.979,2009.007,625.428,2011.295,625.407Z" transform="translate(-2007.197 -624.489)" fill="#91b3fa"/>
      <path id="Trazado_194510" data-name="Trazado 194510" d="M2218.662,729.736a.7.7,0,0,0,.63-.76l.423-75.543a.854.854,0,0,0-.158-.518.569.569,0,0,0-.471-.254l-190.938.918a.567.567,0,0,0-.467.257.852.852,0,0,0-.156.517l.665,70.56a.7.7,0,0,0,.606.757h0Zm.425-76.585c.012,0,.036,0,.075.053a.367.367,0,0,1,.064.226l-.423,75.543c0,.167-.09.274-.135.274L2028.81,725.18c-.05,0-.13-.113-.131-.272l-.665-70.559a.37.37,0,0,1,.064-.226c.039-.054.063-.054.074-.054Z" transform="translate(-2024.026 -647.813)" fill="url(#linear-gradient)"/>
      <g id="Grupo_136268" data-name="Grupo 136268" transform="translate(7.214 11.189)" opacity="0.6">
        <rect id="Rectángulo_43611" data-name="Rectángulo 43611" width="9.292" height="35.508" transform="translate(170.786 28.766)" fill="#fff"/>
        <rect id="Rectángulo_43612" data-name="Rectángulo 43612" width="9.292" height="23.305" transform="translate(155.26 40.969)" fill="#fff"/>
        <rect id="Rectángulo_43613" data-name="Rectángulo 43613" width="9.292" height="53.465" transform="translate(139.734 10.809)" fill="#fff"/>
        <rect id="Rectángulo_43614" data-name="Rectángulo 43614" width="9.292" height="12.844" transform="translate(124.208 51.43)" fill="#fff"/>
        <rect id="Rectángulo_43615" data-name="Rectángulo 43615" width="9.292" height="46.317" transform="translate(108.682 17.957)" fill="#fff"/>
        <rect id="Rectángulo_43616" data-name="Rectángulo 43616" width="9.292" height="38.298" transform="translate(93.156 25.976)" fill="#fff"/>
        <rect id="Rectángulo_43617" data-name="Rectángulo 43617" width="9.292" height="29.581" transform="translate(77.63 34.693)" fill="#fff"/>
        <rect id="Rectángulo_43618" data-name="Rectángulo 43618" width="9.292" height="64.274" transform="translate(62.104)" fill="#fff"/>
        <rect id="Rectángulo_43619" data-name="Rectángulo 43619" width="9.292" height="57.475" transform="translate(46.578 6.799)" fill="#fff"/>
        <rect id="Rectángulo_43620" data-name="Rectángulo 43620" width="9.292" height="47.189" transform="translate(31.052 17.085)" fill="#fff"/>
        <rect id="Rectángulo_43621" data-name="Rectángulo 43621" width="9.292" height="11.652" transform="translate(15.526 52.622)" fill="#fff"/>
        <rect id="Rectángulo_43622" data-name="Rectángulo 43622" width="9.292" height="34.288" transform="translate(0 29.986)" fill="#fff"/>
      </g>
    </g>
    <g id="Grupo_136273" data-name="Grupo 136273" transform="translate(129.803 134.212)">
      <path id="Trazado_194511" data-name="Trazado 194511" d="M734.943,1116.882,919,1116c2.218-.02,4.02,2.433,4,5.452l-.408,72.823c-.017,3.036-1.866,5.458-4.1,5.367l-183.011-3.919c-2.129-.087-3.829-2.441-3.857-5.339l-.641-68.018C730.965,1119.362,732.738,1116.9,734.943,1116.882Z" transform="translate(-730.993 -1115.997)" fill="#91b3fa"/>
      <path id="Trazado_194512" data-name="Trazado 194512" d="M934.842,1217.454a.674.674,0,0,0,.607-.733l.408-72.822a.824.824,0,0,0-.152-.5.549.549,0,0,0-.455-.245l-184.061.885a.547.547,0,0,0-.451.248.821.821,0,0,0-.15.5l.641,68.018a.676.676,0,0,0,.584.73h0Zm.409-73.827c.012,0,.035,0,.072.051a.354.354,0,0,1,.062.218l-.408,72.822c0,.161-.086.264-.131.264l-183.019-3.92c-.048,0-.125-.108-.127-.262l-.641-68.018a.356.356,0,0,1,.061-.218c.037-.052.061-.052.071-.052Z" transform="translate(-747.216 -1138.482)" fill="url(#linear-gradient)"/>
      <g id="Grupo_136272" data-name="Grupo 136272" transform="translate(33.87 5.354)">
        <circle id="Elipse_6841" data-name="Elipse 6841" cx="19.056" cy="19.056" r="19.056" transform="translate(121.507 53.899) rotate(-135)" fill="#fff"/>
        <circle id="Elipse_6842" data-name="Elipse 6842" cx="19.056" cy="19.056" r="19.056" transform="translate(74.31 53.899) rotate(-135)" fill="#fff"/>
        <circle id="Elipse_6843" data-name="Elipse 6843" cx="19.056" cy="19.056" r="19.056" transform="translate(26.95 54.523) rotate(-135)" fill="#fff"/>
        <g id="Grupo_136270" data-name="Grupo 136270" transform="translate(14.059 12.232)">
          <path id="Trazado_194513" data-name="Trazado 194513" d="M858.769,1228.891a12.241,12.241,0,1,0,11.323-7.589q-.311,0-.617.016v-3.1c.2-.008.411-.013.617-.013a15.331,15.331,0,1,1-14.169,9.453Z" transform="translate(-762.644 -1218.201)" fill="url(#linear-gradient-22)"/>
          <path id="Trazado_194514" data-name="Trazado 194514" d="M1130.313,1243.9a12.24,12.24,0,1,0,6.522-22.6q-.311,0-.617.016v-3.1c.2-.008.411-.013.617-.013a15.341,15.341,0,1,1-8.06,28.4Z" transform="translate(-1076.54 -1218.201)" fill="url(#linear-gradient-23)"/>
          <path id="Trazado_194515" data-name="Trazado 194515" d="M1408.262,1240.424a12.24,12.24,0,1,0,10.123-19.122q-.311,0-.617.016v-3.1c.205-.008.411-.013.617-.013a15.341,15.341,0,1,1-12.635,24.042Z" transform="translate(-1405.749 -1218.201)" fill="url(#linear-gradient-24)"/>
        </g>
        <g id="Grupo_136271" data-name="Grupo 136271" transform="translate(7.893 54.078)">
          <path id="Trazado_194516" data-name="Trazado 194516" d="M837.479,1461.385h31.054a3.529,3.529,0,0,1,0,7.059H837.479a3.529,3.529,0,1,1,0-7.059Z" transform="translate(-739.529 -1461.385)" fill="#fff" opacity="0.5"/>
          <path id="Trazado_194517" data-name="Trazado 194517" d="M1112.711,1461.385h31.054a3.529,3.529,0,1,1,0,7.059h-31.054a3.529,3.529,0,1,1,0-7.059Z" transform="translate(-1062.121 -1461.385)" fill="#fff" opacity="0.5"/>
          <path id="Trazado_194518" data-name="Trazado 194518" d="M1417.257,1468.444H1386.2a3.529,3.529,0,0,1,0-7.059h31.054a3.529,3.529,0,1,1,0,7.059Z" transform="translate(-1382.674 -1461.385)" fill="#fff" opacity="0.5"/>
        </g>
      </g>
    </g>
    <g id="Grupo_136278" data-name="Grupo 136278" transform="translate(198.365 247.954)">
      <path id="Trazado_194519" data-name="Trazado 194519" d="M931.606,3151.7s1.06,6,1.581,11.947a4.1,4.1,0,0,1-3.917,4.437c-7.915.33-24.844.971-30.919.7a1.332,1.332,0,0,1-1.172-1.825,2.982,2.982,0,0,1,1.526-1.607l27.964-12.853Z" transform="translate(-838.331 -2863.959)" fill="url(#linear-gradient-30)"/>
      <path id="Trazado_194520" data-name="Trazado 194520" d="M910.406,3125.863l-.852,7.181s-4.9,2.281-8.244-.287l2.029-8Z" transform="translate(-816.262 -2841.649)" fill="url(#linear-gradient-31)"/>
      <path id="Trazado_194521" data-name="Trazado 194521" d="M783.829,2346.56c.368,1.875,1.976,93.586-7.828,134.685a1.4,1.4,0,0,0,.818,1.623,24.282,24.282,0,0,0,7.984,1.623,2.4,2.4,0,0,0,2.384-1.725c2.8-9.536,16.23-57.311,17.982-102.95,1.957-51,0-1.736,0-1.736l-1.148-31.523Z" transform="translate(-690.325 -2197.359)" fill="url(#linear-gradient-32)"/>
      <path id="Trazado_194522" data-name="Trazado 194522" d="M711.027,3169.9s1.688,3.031,3.323,11.085a2.5,2.5,0,0,1-2.2,2.992c-2.613.257-6.637.588-9.859.565a2.491,2.491,0,0,1-2.466-2.779,21.007,21.007,0,0,1,4.9-11.522Z" transform="translate(-585.583 -2879.029)" fill="url(#linear-gradient-33)"/>
      <path id="Trazado_194523" data-name="Trazado 194523" d="M718.651,3114.192l-1.991,10.86s-1.969,1.464-5.863.4l.95-11.685Z" transform="translate(-591.724 -2832.556)" fill="url(#linear-gradient-31)"/>
      <path id="Trazado_194524" data-name="Trazado 194524" d="M701.215,2338.512c8.018,48.387-1.739,119.593-5.03,133.53a2.174,2.174,0,0,1-1.755,1.65,14.593,14.593,0,0,1-6.271-.25,1.992,1.992,0,0,1-1.432-1.834c-.441-11.268.353-80.438-7.118-107.775a6.21,6.21,0,0,0-2.4-3.425l-14.5-10.308-1.112-16.662Z" transform="translate(-568.91 -2186.497)" fill="url(#linear-gradient-32)"/>
      <g id="Grupo_136274" data-name="Grupo 136274" transform="translate(10.243 23.119)">
        <path id="Trazado_194525" data-name="Trazado 194525" d="M696.826,1811.214c24.028-.4,50.539,6.309,50.539,6.309,7.162,41.791,1.252,89.993,1.252,89.993-18.6,4.878-39.585-2.982-39.585-2.982-3.092-17.468-17.517-66.627-17.517-66.627a79.148,79.148,0,0,1-29.375-9.322c6.075-7.042,8.939-16,10.183-21.3A80.615,80.615,0,0,0,696.826,1811.214Z" transform="translate(-625.853 -1774.002)" fill="url(#linear-gradient-36)"/>
        <path id="Trazado_194526" data-name="Trazado 194526" d="M1118.836,1615.677a4.6,4.6,0,0,1,5.347-1.5c3.536,14.936,22.076,27.046,41.123,32.966-1.244,5.3-4.108,14.257-10.183,21.3C1123.514,1650.665,1118.836,1615.677,1118.836,1615.677Z" transform="translate(-1118.836 -1613.856)" fill="url(#linear-gradient-31)"/>
      </g>
      <g id="Grupo_136275" data-name="Grupo 136275" transform="translate(0)">
        <path id="Trazado_194527" data-name="Trazado 194527" d="M1368.636,1505.167c-.247.785,2.613,1.981,4.3-1.23.059-1.539.995-8.132.075-9.386-4.9-6.677-14.394-15.048-14.394-15.048a2.259,2.259,0,0,0-.283,3.139l4.607,4.8c-.964,1.741-2.139,3.211-2.69,5.317a6.454,6.454,0,0,0,.644,4.751c.809,1.457,1.912,3.35,2.955,4.833A6.374,6.374,0,0,0,1368.636,1505.167Z" transform="translate(-1357.82 -1479.503)" fill="url(#linear-gradient-38)"/>
        <path id="Trazado_194528" data-name="Trazado 194528" d="M1375.844,1543.729l4.2,3.559,1.318,3.543-3.743,4.152s-1.258-7.03-2.194-8.552S1374.973,1544.174,1375.844,1543.729Z" transform="translate(-1368.71 -1532.677)" fill="url(#linear-gradient-39)"/>
      </g>
      <path id="Trazado_194529" data-name="Trazado 194529" d="M530.859,1890.042l9.216-23.266s22.443,15.249,26.134,34.583a53.111,53.111,0,0,0-19.51,5.229C545.039,1897.459,530.859,1890.042,530.859,1890.042Z" transform="translate(-408.32 -1800.137)" fill="url(#linear-gradient-40)"/>
      <path id="Trazado_194530" data-name="Trazado 194530" d="M531.22,2078.33s25.2,14.24,33.7,2.081a9.558,9.558,0,0,0,1.753-7.427,53.111,53.111,0,0,1,19.51-5.229,26.686,26.686,0,0,1-2.9,18.293c-14.893,27.243-55.4-1.506-55.4-1.506Z" transform="translate(-428.294 -1966.532)" fill="url(#linear-gradient-31)"/>
      <g id="Grupo_136276" data-name="Grupo 136276" transform="translate(43.005 73.133)">
        <path id="Trazado_194531" data-name="Trazado 194531" d="M895.306,1983.637l-13.752-48.025a1.4,1.4,0,0,0-1.185-1.009c-2.491-.291-9.711-1.107-18.047-1.812-10.041-.849-21.7-1.538-28.669-.952a1.405,1.405,0,0,0-1.149,2.022c3.962,8.016,20.261,40.625,28.423,51.308a1.409,1.409,0,0,0,1.134.557l31.907-.3A1.405,1.405,0,0,0,895.306,1983.637Z" transform="translate(-832.357 -1926.957)" fill="url(#linear-gradient-42)"/>
        <path id="Trazado_194532" data-name="Trazado 194532" d="M1036.427,1906.183l-9.97-1.661a.715.715,0,0,0-.8.93l.987,2.991a.715.715,0,0,0,.585.485l9.594,1.282a.716.716,0,0,0,.792-.873l-.611-2.611A.715.715,0,0,0,1036.427,1906.183Z" transform="translate(-1007.888 -1904.511)" fill="url(#linear-gradient-43)"/>
        <path id="Trazado_194533" data-name="Trazado 194533" d="M1012.08,1929l-.821-4.278a.989.989,0,0,0-.871-.8l-20.138-2.044a.989.989,0,0,0-1.061,1.215l1.28,5.331a.989.989,0,0,0,.912.757l19.679.99A.989.989,0,0,0,1012.08,1929Z" transform="translate(-976.076 -1918.886)" fill="url(#linear-gradient-44)"/>
        <path id="Trazado_194534" data-name="Trazado 194534" d="M861.271,2087.694s1.916-7.877,1.143-10.672-2.27-6.388-7.26-5.589a73.05,73.05,0,0,0-10.877,2.9s.3,3.64,4.09,2.466l-2.352,1.82s.336,2.915,3.54,1.357l-2.188,2.414a2.549,2.549,0,0,0,3.733.859C853.457,2081.713,854.587,2088.642,861.271,2087.694Z" transform="translate(-801.645 -2042.616)" fill="url(#linear-gradient-31)"/>
      </g>
      <path id="Trazado_194535" data-name="Trazado 194535" d="M805.875,1716.751l7.645,22.109a.8.8,0,0,1-.363.959c-2.084,1.152-9.592,4.483-18.64-1.254a3.752,3.752,0,0,1-1.728-2.679l-2.476-19.136Z" transform="translate(-700.321 -1675.927)" fill="url(#linear-gradient-31)"/>
      <g id="Grupo_136277" data-name="Grupo 136277" transform="translate(81.505 8.86)">
        <path id="Trazado_194536" data-name="Trazado 194536" d="M825.207,1597.768s-8.4,15.8-7.319,22.187,11.481,5.925,20.566.741l6.349-17.064Z" transform="translate(-817.793 -1586.278)" fill="url(#linear-gradient-47)"/>
        <path id="Trazado_194537" data-name="Trazado 194537" d="M767.822,1557.03a.651.651,0,0,1-.284-.953,17.005,17.005,0,0,0,2.336-4.959s1.509-.967-3.841-2.247-13.329-3.268-15.006-7.823c-1.635-4.44,2.661-15.607,9.515-6.709a.651.651,0,0,0,1.032.007c1.124-1.462,4.078-4.5,8.179-2.658,3.838,1.722,4.27,4.535,4.218,5.952a.647.647,0,0,0,.767.663c1.941-.37,6.6-.688,8.771,4.089,1.79,3.935.626,6.162-.433,7.251a.649.649,0,0,0,.278,1.078c1.276.39,2.922,1.472,2.757,4.46-.228,4.13-4.846,3.767-6.161,3.578a.652.652,0,0,0-.578.2c-1.128,1.248-6.207,6.545-11.7,7.184a.657.657,0,0,1-.689-.868l2.379-6.916a.654.654,0,0,0-.354-.811Z" transform="translate(-747.562 -1530.992)" fill="url(#linear-gradient-48)"/>
        <path id="Trazado_194538" data-name="Trazado 194538" d="M827.021,1678.243s5.977-4.1,6.414-.647-5.383,5-8.265,3.715Z" transform="translate(-807.717 -1651.224)" fill="url(#linear-gradient-49)"/>
      </g>
    </g>
  </g>
</svg>
