<svg xmlns="http://www.w3.org/2000/svg" xmlns:xlink="http://www.w3.org/1999/xlink" width="88" height="88" viewBox="0 0 88 88">
  <defs>
    <filter id="Rect치ngulo_40821" x="0" y="0" width="88" height="88" filterUnits="userSpaceOnUse">
      <feOffset dy="3" input="SourceAlpha"/>
      <feGaussianBlur stdDeviation="3" result="blur"/>
      <feFlood flood-opacity="0.161"/>
      <feComposite operator="in" in2="blur"/>
      <feComposite in="SourceGraphic"/>
    </filter>
  </defs>
  <g id="Grupo_136625" data-name="Grupo 136625" transform="translate(15442 11437)">
    <g id="Grupo_136617" data-name="Grupo 136617" transform="translate(-16348.333 -11673)">
      <g id="Grupo_135807" data-name="Grupo 135807">
        <g transform="matrix(1, 0, 0, 1, 906.33, 236)" filter="url(#Rect치ngulo_40821)">
          <path id="Rect치ngulo_40821-2" data-name="Rect치ngulo 40821" d="M10,0H60A10,10,0,0,1,70,10V70a0,0,0,0,1,0,0H10A10,10,0,0,1,0,60V10A10,10,0,0,1,10,0Z" transform="translate(9 6)" fill="#7fc733"/>
        </g>
        <g id="Grupo_136360" data-name="Grupo 136360" transform="translate(-727.989 -999.996)">
          <path id="Trazado_194130" data-name="Trazado 194130" d="M1700.506,1289.266a23.624,23.624,0,0,1-.495-3.236,22.585,22.585,0,0,0-2.656-10.2.414.414,0,0,1,.087-.6q1.931-1.9,3.834-3.827a3.428,3.428,0,0,0,.986-3.138,3.532,3.532,0,0,0-4.595-2.7v-.56c0-3.16-.041-6.321.019-9.48a2.488,2.488,0,0,0-2.537-2.533c-7.9.039-15.8.024-23.7.01a2.726,2.726,0,0,0-2.063.858q-2.84,2.872-5.709,5.714c-1.719,1.707-1.639,1.544-1.6,3.873.007.389-.159.451-.458.491a8.476,8.476,0,0,0-7.293,8.306q-.009,12.431,0,24.861a3.835,3.835,0,0,0,3.884,3.886q4.644.007,9.288,0a3.9,3.9,0,0,0,.672-.052,3.847,3.847,0,0,0,3.173-4.009c-.038-.493.113-.593.592-.592q14.633.024,29.266.018c.337,0,.509-.015.433-.441C1701.242,1293.7,1700.875,1291.484,1700.506,1289.266Zm-3.126-21.7a1.874,1.874,0,0,1,2.034-.513,1.9,1.9,0,0,1,1.319,1.58,1.777,1.777,0,0,1-.511,1.595q-4.705,4.727-9.431,9.434c-.007.006-.026,0-.089,0,0-.635-.01-1.247,0-1.859a2.783,2.783,0,0,0-.819-2.1c-.31-.309-.221-.442.038-.7,1.595-1.572,3.172-3.162,4.756-4.745C1695.578,1269.369,1696.475,1268.466,1697.379,1267.57ZM1669.8,1255.89c0,1.251.006,2.6,0,3.958,0,.6-.32.9-.944.9-1.338.006-2.676,0-3.917,0Zm-6.94,9.506a6.965,6.965,0,1,1-6.991,6.962A7.014,7.014,0,0,1,1662.864,1265.4Zm-3.9,14.565a8.583,8.583,0,0,0,7.74,0c0,1.3-.008,2.532.005,3.767,0,.347-.23.238-.393.239-1.966.005-3.932.01-5.9,0-.476,0-1.114.21-1.383-.092-.235-.262-.067-.888-.069-1.352C1658.965,1281.688,1658.968,1280.855,1658.968,1279.961Zm10.836-2.122q0,9.48,0,18.959a2.393,2.393,0,0,1-2.661,2.649q-4.329,0-8.658,0a2.379,2.379,0,0,1-2.612-2.6q0-9.552,0-19.1v-.475a8.85,8.85,0,0,0,1.4,1.541c.17.142.144.308.145.48,0,1.532,0,3.063,0,4.595a1.518,1.518,0,0,0,1.619,1.632q3.8,0,7.594,0a1.521,1.521,0,0,0,1.621-1.632c0-1.516.008-3.031-.006-4.546a.765.765,0,0,1,.294-.659,7.968,7.968,0,0,0,1.26-1.417Zm20.136,15.892c-.034,1.072-.01,1.073-1.068,1.073q-8.488,0-16.976.009c-.416,0-.556-.071-.555-.531.017-7.238-.035-14.476.031-21.714a8.645,8.645,0,0,0-6.9-8.574c-.863-.17-.827-.19-.873-1.09-.026-.507.122-.628.62-.617,1.6.035,3.192.016,4.788.012a2.292,2.292,0,0,0,2.344-2.349c0-1.66.012-3.321-.008-4.981,0-.346.093-.417.425-.415,3.9.012,7.8.008,11.7.008h11.511c.9,0,1.136.242,1.136,1.15q0,5.223.006,10.446a.954.954,0,0,1-.3.756q-2.2,2.172-4.377,4.377a.941.941,0,0,1-.757.3c-1.031-.017-2.063,0-3.1-.007a4.426,4.426,0,0,0-3.177,1.283.881.881,0,0,1-.676.271c-3.466-.009-6.932,0-10.4-.014-.35,0-.452.066-.451.439q.02,9.623,0,19.247c0,.412.145.451.488.45,5.352-.009,10.7,0,16.057-.016C1689.818,1293.246,1689.953,1293.31,1689.939,1293.731Zm-3.108-4.827c0,.821-.011,1.643.007,2.464.006.271-.068.353-.344.347-.821-.018-1.643-.014-2.464,0-.227,0-.3-.054-.3-.292.014-.821,0-1.643.006-2.464,0-.109-.033-.235.089-.3a18.025,18.025,0,0,0,2.58-2.366c.112-.1.18-.326.361-.245.139.062.061.261.062.4C1686.835,1287.261,1686.831,1288.082,1686.831,1288.9Zm-12.39-4.619c0-.251.065-.324.319-.322,1.4.012,2.8.006,4.256.006-.4.99-.767,1.908-1.125,2.831a.342.342,0,0,1-.377.271q-1.377-.022-2.754,0c-.256,0-.323-.072-.319-.323Q1674.465,1285.517,1674.442,1284.285Zm0-9.279c0-.186-.021-.331.26-.33,2.818.01,5.635.006,8.483.006a6.864,6.864,0,0,0-.146,2.939c.047.278-.2.149-.3.15-1.256.011-2.513.007-3.769.007-1.385,0-2.771-.008-4.156.007-.285,0-.389-.05-.379-.363C1674.465,1276.617,1674.45,1275.811,1674.446,1275.006Zm0,4.638c0-.193-.009-.325.265-.324,2.861.01,5.721.006,8.683.006-1.02,1.021-1.968,1.962-2.9,2.914a.583.583,0,0,1-.463.185c-1.755-.005-3.51-.008-5.264,0-.253,0-.325-.068-.32-.321C1674.457,1281.286,1674.451,1280.465,1674.445,1279.644Zm0,9.265c0-.225.05-.306.291-.3.87.014,1.74.011,2.61,0a.32.32,0,0,1,.347.228,2.068,2.068,0,0,0,2.873,1.122c.52-.2,1.037-.414,1.623-.648,0,.754-.009,1.43.005,2.105,0,.23-.06.3-.294.3q-3.578-.012-7.156,0c-.225,0-.305-.051-.3-.291C1674.457,1290.585,1674.455,1289.746,1674.443,1288.909Zm5.275-.329a.494.494,0,0,1-.582-.645c.312-.837.657-1.662,1.006-2.534l2.159,2.164C1681.436,1287.909,1680.586,1288.271,1679.717,1288.58Zm1.481-4.381c-.18-.175-.19-.271,0-.455q2.147-2.123,4.273-4.267c.143-.144.324-.286.5-.227.2.068.081.307.085.465.016.628.007,1.256.007,2.033a16.489,16.489,0,0,0,.079,2.4c.038.184-.087.26-.185.359-.659.662-1.328,1.313-1.975,1.987-.2.206-.3.181-.489-.01Q1682.359,1285.327,1681.2,1284.2Zm4.859-7.859c0,.225.014.453-.007.676a.808.808,0,0,1-.792.757.821.821,0,0,1-.745-.758,3.259,3.259,0,0,1,3.443-3.88h1.676c-.556.541-1.026.989-1.484,1.45-.139.14-.294.1-.449.1A1.532,1.532,0,0,0,1686.058,1276.34Zm2.322,11.424c.519.416.96.776,1.411,1.125a.411.411,0,0,1,.138.384c0,.707-.011,1.414,0,2.12.005.249-.063.318-.318.323-1.236.026-1.236.035-1.236-1.182Zm2.282-.193c-.526-.425-1.056-.844-1.583-1.268a3.814,3.814,0,0,1-1.467-3.066c-.02-2.223,0-4.447-.014-6.67,0-.351.11-.351.388-.27a1.567,1.567,0,0,1,1.165,1.578c.01.822,0,1.644,0,2.465,0,.838.01,1.676-.006,2.513-.005.269.064.391.342.343a.635.635,0,0,1,.1,0c.353-.006.79.111,1.034-.055s.067-.627.074-.958a.552.552,0,0,1,.213-.4q2.428-2.426,4.85-4.856c.193-.194.281-.239.425.05a20.366,20.366,0,0,1,2.071,6.819c.061.527.077,1.06.144,1.586.031.242-.043.345-.267.406q-3.525.953-7.046,1.921A.415.415,0,0,1,1690.661,1287.571Zm8.767,7.243c-1.256-.026-2.512-.01-3.768-.01-1.272,0-2.545-.009-3.817.007-.289,0-.38-.057-.376-.365.017-1.642.013-3.285,0-4.927,0-.235.072-.321.3-.381q3.245-.875,6.483-1.774c.251-.069.352-.033.4.267.36,2.249.741,4.495,1.127,6.74C1699.829,1294.678,1699.816,1294.822,1699.429,1294.814Z" fill="#12263f"/>
          <path id="Trazado_194131" data-name="Trazado 194131" d="M1798.38,1281.684c3.466-.015,6.933-.009,10.4-.009s6.933-.006,10.4.009c.362,0,.452-.084.445-.446-.025-1.273-.021-2.547,0-3.821,0-.318-.084-.394-.4-.393q-10.448.014-20.9,0c-.316,0-.4.08-.395.4.019,1.273.023,2.547,0,3.82C1797.925,1281.6,1798.021,1281.685,1798.38,1281.684Zm2.224-3.1q8.488,0,16.977-.01c.4,0,.509.088.5.494-.031,1.063-.01,1.064-1.076,1.064h-8.223c-2.951,0-5.9-.007-8.851.009-.359,0-.455-.08-.447-.444C1799.5,1278.579,1799.485,1278.579,1800.6,1278.579Z" transform="translate(-125.043 -20.922)" fill="#12263f"/>
          <path id="Trazado_194132" data-name="Trazado 194132" d="M1819.121,1324.874q-10.036.026-20.073.012c-1.1,0-1.084,0-1.105,1.081-.007.363.07.479.462.477,3.45-.018,6.9-.01,10.351-.01h9.819c1.049,0,1.028,0,1.059-1.032C1819.645,1324.993,1819.56,1324.873,1819.121,1324.874Z" transform="translate(-125.051 -62.586)" fill="#12263f"/>
          <path id="Trazado_194133" data-name="Trazado 194133" d="M1798.417,1350.406q10.036-.021,20.073-.01c1.119,0,1.1,0,1.123-1.113.007-.364-.088-.446-.447-.444-3.466.015-6.933.009-10.4.009H1799c-1.067,0-1.045,0-1.076,1.064C1797.908,1350.318,1798.016,1350.407,1798.417,1350.406Z" transform="translate(-125.031 -83.453)" fill="#12263f"/>
          <path id="Trazado_194134" data-name="Trazado 194134" d="M1809.878,1372.777c-3.6.016-7.19.01-10.786.01-1.149,0-1.135,0-1.151,1.132,0,.334.072.428.417.425,1.918-.019,3.837-.009,5.755-.009h5.127c1.1,0,1.079,0,1.1-1.084C1810.352,1372.88,1810.263,1372.775,1809.878,1372.777Z" transform="translate(-125.051 -104.295)" fill="#12263f"/>
          <path id="Trazado_194135" data-name="Trazado 194135" d="M1702.882,1369.515c.855.439.751,1.055.747,1.738,0,.065,0,.129,0,.193-.013.151.068.172.2.191,1.248.176,1.347.1,1.348-1.125a1.4,1.4,0,0,0,0-.193c-.034-.242.068-.35.3-.463a2.091,2.091,0,0,0,1.251-1.862,2.115,2.115,0,0,0-1.157-2.067c-.461-.258-.943-.48-1.417-.715-.347-.172-.6-.41-.474-.83a.783.783,0,0,1,1.5.217c.028.279-.142.662.093.811.208.132.563.031.853.033.129,0,.258,0,.387,0,.093,0,.173.01.216-.123a2.4,2.4,0,0,0-1.005-2.578.83.83,0,0,1-.545-1,5.835,5.835,0,0,1,0-.63c.033-.267-.086-.31-.326-.315-1.225-.025-1.224-.032-1.227,1.2a.987.987,0,0,0,0,.145c.031.223-.064.323-.273.428a2.108,2.108,0,0,0-1.274,1.944,2.156,2.156,0,0,0,1.26,2.058c.439.233.888.448,1.335.666a.674.674,0,0,1,.465.8.734.734,0,0,1-.875.5.7.7,0,0,1-.639-.724c-.055-.818-.058-.818-.875-.818-.161,0-.322,0-.484,0-.106,0-.182.017-.19.15C1702.028,1368.047,1702,1369.063,1702.882,1369.515Z" transform="translate(-41.566 -93.855)" fill="#12263f"/>
          <path id="Trazado_194136" data-name="Trazado 194136" d="M1689.105,1518.058a1.506,1.506,0,0,0-1.547-1.558q-3.87-.008-7.74,0a1.508,1.508,0,0,0-1.547,1.557q-.007,3.845,0,7.69a1.51,1.51,0,0,0,1.57,1.584q3.846.007,7.691,0a1.513,1.513,0,0,0,1.572-1.583c0-1.274,0-2.547,0-3.821C1689.107,1520.638,1689.111,1519.348,1689.105,1518.058Zm-2.3-.012c.751,0,.751,0,.751.749,0,.8,0,.8-.8.8-.751,0-.751,0-.751-.749C1686.011,1518.046,1686.011,1518.046,1686.808,1518.046Zm-6.253,7.739c-.736,0-.736,0-.736-.764,0-.784,0-.784.764-.784.784,0,.784,0,.784.764C1681.367,1525.785,1681.367,1525.785,1680.554,1525.785Zm.015-3.1c-.751,0-.751,0-.751-.749,0-.8,0-.8.8-.8.751,0,.751,0,.751.749C1681.367,1522.69,1681.367,1522.69,1680.569,1522.69Zm0-3.1c-.748,0-.748,0-.748-.751,0-.8,0-.8.8-.8.749,0,.749,0,.749.751C1681.367,1519.594,1681.367,1519.594,1680.567,1519.594Zm3.117,6.191c-.77,0-.77,0-.77-.778s0-.77.778-.77.77,0,.77.778S1684.463,1525.785,1683.685,1525.785Zm.027-3.1c-.8,0-.8,0-.8-.8,0-.749,0-.749.751-.749.8,0,.8,0,.8.8C1684.463,1522.69,1684.463,1522.69,1683.711,1522.69Zm.009-3.1c-.806,0-.806,0-.806-.79,0-.758,0-.758.742-.758.806,0,.806,0,.806.791C1684.463,1519.594,1684.463,1519.594,1683.721,1519.594Zm3.524,6.2c-1.234.026-1.234.035-1.234-1.192,0-1.048.008-2.1-.006-3.143,0-.251.065-.318.319-.323,1.235-.026,1.234-.034,1.234,1.192v1.16c0,.661-.011,1.322.006,1.982C1687.571,1525.72,1687.5,1525.787,1687.245,1525.792Z" transform="translate(-20.851 -229.433)" fill="#12263f"/>
        </g>
      </g>
    </g>
  </g>
</svg>
