<svg xmlns="http://www.w3.org/2000/svg" width="96.608" height="96.608" viewBox="0 0 96.608 96.608">
  <g id="Grupo_136478" data-name="Grupo 136478" transform="translate(-883.7 -1639.291)">
    <circle id="Elipse_6835" data-name="Elipse 6835" cx="48.304" cy="48.304" r="48.304" transform="translate(883.7 1639.291)" fill="#b13e8d"/>
    <g id="Grupo_136241" data-name="Grupo 136241" transform="translate(1228.557 778.168)">
      <path id="Trazado_194217" data-name="Trazado 194217" d="M-296.381,883.2c8,0,16,.055,24-.026a6.059,6.059,0,0,1,6.136,6.108c-.057,13.448-.023,26.9-.023,40.345a5.8,5.8,0,0,1-6.053,6.082q-24.092,0-48.184,0a5.8,5.8,0,0,1-6.052-6.022q0-20.234,0-40.467a5.8,5.8,0,0,1,6.053-6.02Q-308.442,883.193-296.381,883.2Zm28.17,9.766h-56.4v.4q0,18.172,0,36.343a3.914,3.914,0,0,0,4.13,4.054q24.066.006,48.133-.006a4.909,4.909,0,0,0,1.373-.2,3.881,3.881,0,0,0,2.761-3.972q0-18.051,0-36.1Zm-.028-2.009a18.92,18.92,0,0,0-.015-2.3,3.879,3.879,0,0,0-4.151-3.51q-24.006,0-48.011,0c-.142,0-.284,0-.426.007a3.8,3.8,0,0,0-3.592,2.85,21.532,21.532,0,0,0-.241,2.957Z" fill="#f7f4ff"/>
      <path id="Trazado_194218" data-name="Trazado 194218" d="M-282.385,904.481c-.633-.777-.615-1.084.18-1.88q1.159-1.161,2.32-2.32c.757-.756,1.085-.77,2.05.034.431-.476.85-.99,1.322-1.451a3.575,3.575,0,0,1,3.749-.919,3.539,3.539,0,0,1,2.543,2.834,3.567,3.567,0,0,1-.962,3.3c-.458.484-.962.926-1.432,1.374.735,1.184.721,1.294-.243,2.258q-1.074,1.074-2.149,2.148c-.761.759-1.1.774-1.955.048-.137.125-.286.25-.423.387q-3.975,3.973-7.956,7.942a1.214,1.214,0,0,0-.382.955c.013,3.14.008,6.279.007,9.419,0,.961-.3,1.258-1.272,1.258h-34.394c-1,0-1.284-.288-1.284-1.306q0-15.222,0-30.444c0-1.041.276-1.311,1.338-1.311h34.272c1.081,0,1.34.265,1.34,1.372q0,4.557,0,9.115v.509Zm-38.3-5.7v29.1h32.975v-7.161c-.315.174-.583.353-.875.479-2.075.9-4.155,1.786-6.232,2.681a1.082,1.082,0,0,1-1.3-.111,1.076,1.076,0,0,1-.134-1.341c.323-.733.631-1.472.98-2.288h-21.528V918.2h21.6a1.943,1.943,0,0,0,.483-.01.584.584,0,0,0,.364-.228c.258-.541.48-1.1.749-1.732h-23.187v-1.919H-316q11.727,0,23.455.009a1.266,1.266,0,0,0,1-.419c1.158-1.19,2.354-2.344,3.5-3.543a1.416,1.416,0,0,0,.369-.879c.025-3.383.016-6.765.016-10.148v-.554Zm39.887,7.379-10.094,10.093,2.259,2.263,10.094-10.089Zm6.182.462-4.275-4.342-1.425,1.286,4.375,4.376Zm.6-2.515c.512-.509,1.044-.979,1.507-1.51a1.707,1.707,0,0,0-.061-2.317,1.678,1.678,0,0,0-2.3-.212,19.8,19.8,0,0,0-1.558,1.624Zm-16.47,15.762-1.745-1.781-1.324,3.1Z" fill="#f7f4ff"/>
      <path id="Trazado_194219" data-name="Trazado 194219" d="M-276.965,922.092q2.793,0,5.586,0c.919,0,1.221.309,1.222,1.244q0,2.642,0,5.283c0,.935-.306,1.249-1.219,1.249q-5.586,0-11.173,0c-.9,0-1.218-.311-1.219-1.185q0-2.7,0-5.4c0-.877.319-1.186,1.216-1.187Q-279.759,922.09-276.965,922.092Zm4.838,1.987h-9.649v3.815h9.649Z" fill="#f7f4ff"/>
      <path id="Trazado_194220" data-name="Trazado 194220" d="M-283.721,887.106h11.582V889h-11.582Z" fill="#f7f4ff"/>
      <path id="Trazado_194221" data-name="Trazado 194221" d="M-318.791,887.124v1.854h-1.886v-1.854Z" fill="#f7f4ff"/>
      <path id="Trazado_194222" data-name="Trazado 194222" d="M-316.8,889v-1.869h1.879V889Z" fill="#f7f4ff"/>
      <path id="Trazado_194223" data-name="Trazado 194223" d="M-312.916,889v-1.869h1.88V889Z" fill="#f7f4ff"/>
      <path id="Trazado_194224" data-name="Trazado 194224" d="M-291.578,906.575v1.871h-25.2v-1.871Z" fill="#f7f4ff"/>
      <path id="Trazado_194225" data-name="Trazado 194225" d="M-291.587,912.338h-25.2v-1.876h25.2Z" fill="#f7f4ff"/>
      <path id="Trazado_194226" data-name="Trazado 194226" d="M-297.411,902.687v1.867h-17.446v-1.867Z" fill="#f7f4ff"/>
      <path id="Trazado_194227" data-name="Trazado 194227" d="M-295.4,902.672h3.808v1.875H-295.4Z" fill="#f7f4ff"/>
    </g>
  </g>
</svg>
