<svg xmlns="http://www.w3.org/2000/svg" xmlns:xlink="http://www.w3.org/1999/xlink" width="88" height="88" viewBox="0 0 88 88">
  <defs>
    <filter id="Trazado_188616" x="0" y="0" width="88" height="88" filterUnits="userSpaceOnUse">
      <feOffset dy="3" input="SourceAlpha"/>
      <feGaussianBlur stdDeviation="3" result="blur"/>
      <feFlood flood-opacity="0.161"/>
      <feComposite operator="in" in2="blur"/>
      <feComposite in="SourceGraphic"/>
    </filter>
  </defs>
  <g id="Grupo_136627" data-name="Grupo 136627" transform="translate(15307.999 11437)">
    <g id="Grupo_136622" data-name="Grupo 136622" transform="translate(-16527.332 -11585)">
      <g id="Grupo_128476" data-name="Grupo 128476" transform="translate(-2 30)">
        <g transform="matrix(1, 0, 0, 1, 1221.33, 118)" filter="url(#Trazado_188616)">
          <path id="Trazado_188616-2" data-name="Trazado 188616" d="M7.778,0H62.222A7.778,7.778,0,0,1,70,7.778V70H7.778A7.778,7.778,0,0,1,0,62.222V7.778A7.778,7.778,0,0,1,7.778,0Z" transform="translate(9 6)" fill="#f7ca18"/>
        </g>
        <g id="Grupo_136243" data-name="Grupo 136243" transform="translate(2115.995 -776.824)">
          <path id="Trazado_194411" data-name="Trazado 194411" d="M-814.694,986.327l-7.706-8a10.969,10.969,0,0,1-10.3,1.488,11.4,11.4,0,0,1-7.206-7.717h-11.005v-1.683h10.592a23.713,23.713,0,0,1,.021-2.678c.116-1,.393-1.973.6-2.959a4.453,4.453,0,0,0,.143-.857c.011-2.685.006-5.369.006-8.054v-.55h1.607v5.965c.554-.524,1.089-1.015,1.6-1.533.075-.077.036-.282.036-.428q0-2.553,0-5.107v-.562h1.632v4.867c.534-.25,1.01-.452,1.462-.7.095-.052.142-.272.144-.415.012-.948.006-1.9.006-2.891h1.663v2.707l1.569-.213v-5.876h1.668v5.86l1.6.234v-7.773h1.674v.53c0,2.439.006,4.878-.007,7.317,0,.337.068.533.406.651a11.232,11.232,0,0,1,1.177.565v-5.691h1.668v.515c0,1.932.01,3.863-.008,5.794a1.087,1.087,0,0,0,.423,1c.432.323.824.7,1.18,1.014v-4.965h1.648v.515q0,3.634,0,7.268a1.555,1.555,0,0,0,.051.531,11.988,11.988,0,0,1,.646,5.876h.891v1.644c-.029.018-.059.053-.08.048-.942-.2-1.414.249-1.585,1.169a1.654,1.654,0,0,1-.27.623c-.284.408-.2.676.148,1.027,2.364,2.4,4.7,4.828,7.047,7.248.643.664.645,1.023,0,1.685-.819.839-1.643,1.672-2.464,2.508Zm-14.278-27.639a9.852,9.852,0,0,0-9.74,9.975,9.886,9.886,0,0,0,9.672,10.1,9.867,9.867,0,0,0,9.786-9.983A9.853,9.853,0,0,0-828.971,958.688Zm15.793,24.273-6.809-7.02-1.184,1.342,6.738,6.96Z" transform="translate(-16.077 -25.207)" fill="#693fb7"/>
          <path id="Trazado_194412" data-name="Trazado 194412" d="M-821.049,963.881l-1.22-1.111a3.451,3.451,0,0,0,.621-2.374q-.014-12.893-.006-25.785a2.5,2.5,0,0,0-2.725-2.831q-15.978,0-31.956,0a2.436,2.436,0,0,0-2.611,1.886,3.035,3.035,0,0,0-.067.728q0,13.285,0,26.57a2.407,2.407,0,0,0,2.561,2.629c3.27.011,6.54,0,9.811,0h.582v1.692c-.15.01-.288.027-.425.028-3.334,0-6.668.007-10,0a4.1,4.1,0,0,1-4.071-3.24,5.393,5.393,0,0,1-.128-1.215q-.011-13.162,0-26.325a4.177,4.177,0,0,1,4.334-4.465q16.05,0,32.1,0a4.1,4.1,0,0,1,4.165,3.425,5.508,5.508,0,0,1,.067,1.074q.005,13.137.008,26.276A4.384,4.384,0,0,1-821.049,963.881Z" transform="translate(-9.591 -12.557)" fill="#693fb7"/>
          <path id="Trazado_194413" data-name="Trazado 194413" d="M-834.487,915.836h-1.6c-.023-.387-.02-.761-.073-1.126a2.448,2.448,0,0,0-2.4-2.209c-.048,0-.1,0-.143,0q-16.1,0-32.2,0a2.426,2.426,0,0,0-2.483,1.806,3.726,3.726,0,0,0-.105.969q-.008,13.163-.009,26.326a2.619,2.619,0,0,0,1.814,2.686l-.383,1.606a3.751,3.751,0,0,1-2.012-1.226,4.147,4.147,0,0,1-1.068-2.811q-.009-13.408,0-26.817a4.116,4.116,0,0,1,4.122-4.216q16.146,0,32.291,0a4.114,4.114,0,0,1,4.249,4.373Z" transform="translate(0 0)" fill="#693fb7"/>
          <path id="Trazado_194414" data-name="Trazado 194414" d="M-834.8,975.975v10.043h-1.571V975.975Z" transform="translate(-25.722 -42.513)" fill="#693fb7"/>
          <path id="Trazado_194415" data-name="Trazado 194415" d="M-825.189,990.809h-1.564v-7.5h1.564Z" transform="translate(-32.097 -47.301)" fill="#693fb7"/>
          <path id="Trazado_194416" data-name="Trazado 194416" d="M-846.175,995.408c0-1.619,0-3.188.011-4.758a.366.366,0,0,1,.24-.263c.454-.027.91-.013,1.382-.013v5.034Z" transform="translate(-19.218 -51.907)" fill="#693fb7"/>
          <path id="Trazado_194417" data-name="Trazado 194417" d="M-851.025,939.752h1.623v1.706c-.463,0-.931.011-1.4-.011a.329.329,0,0,1-.216-.235C-851.036,940.745-851.025,940.276-851.025,939.752Z" transform="translate(-16 -18.877)" fill="#693fb7"/>
          <path id="Trazado_194418" data-name="Trazado 194418" d="M-865.411,920.517h1.611v1.636h-1.611Z" transform="translate(-6.462 -6.325)" fill="#693fb7"/>
          <path id="Trazado_194419" data-name="Trazado 194419" d="M-855.776,922.142v-1.628h1.609v1.628Z" transform="translate(-12.851 -6.323)" fill="#693fb7"/>
          <path id="Trazado_194420" data-name="Trazado 194420" d="M-839.867,941.455c-.107.01-.184.023-.261.025-1.436.045-1.6-.165-1.275-1.7h1.537Z" transform="translate(-22.289 -18.895)" fill="#693fb7"/>
          <path id="Trazado_194421" data-name="Trazado 194421" d="M-831.535,939.767h1.558v1.677h-1.558Z" transform="translate(-28.926 -18.886)" fill="#693fb7"/>
          <path id="Trazado_194422" data-name="Trazado 194422" d="M-846.082,920.524h1.6v1.632h-1.6Z" transform="translate(-19.28 -6.33)" fill="#693fb7"/>
          <path id="Trazado_194423" data-name="Trazado 194423" d="M-793.7,989.134a8.247,8.247,0,0,1-8.148,8.371,8.25,8.25,0,0,1-8.129-8.391,8.3,8.3,0,0,1,8.146-8.4A8.307,8.307,0,0,1-793.7,989.134Zm-5.721-.016v-.565c0-1.735,0-3.471-.008-5.206,0-.167-.073-.439-.18-.48a14.6,14.6,0,0,0-1.4-.4V989.1h-1.664v-6.622c-.4.1-.729.2-1.067.258-.392.071-.53.262-.523.693.027,1.7.011,3.4.011,5.107v.571h-1.678v-5.086a6.4,6.4,0,0,0-2.116,6.757h12.46c.782-2.492-.446-5.679-2.184-6.742v5.082Zm-8.031,3.382a6.371,6.371,0,0,0,5.917,3.3,6.291,6.291,0,0,0,5.291-3.3Z" transform="translate(-43.226 -45.607)" fill="#693fb7"/>
        </g>
      </g>
      <g id="Grupo_136361" data-name="Grupo 136361" transform="translate(2113.995 -746.824)">
        <path id="Trazado_194411-2" data-name="Trazado 194411" d="M-814.694,986.327l-7.706-8a10.969,10.969,0,0,1-10.3,1.488,11.4,11.4,0,0,1-7.206-7.717h-11.005v-1.683h10.592a23.713,23.713,0,0,1,.021-2.678c.116-1,.393-1.973.6-2.959a4.453,4.453,0,0,0,.143-.857c.011-2.685.006-5.369.006-8.054v-.55h1.607v5.965c.554-.524,1.089-1.015,1.6-1.533.075-.077.036-.282.036-.428q0-2.553,0-5.107v-.562h1.632v4.867c.534-.25,1.01-.452,1.462-.7.095-.052.142-.272.144-.415.012-.948.006-1.9.006-2.891h1.663v2.707l1.569-.213v-5.876h1.668v5.86l1.6.234v-7.773h1.674v.53c0,2.439.006,4.878-.007,7.317,0,.337.068.533.406.651a11.232,11.232,0,0,1,1.177.565v-5.691h1.668v.515c0,1.932.01,3.863-.008,5.794a1.087,1.087,0,0,0,.423,1c.432.323.824.7,1.18,1.014v-4.965h1.648v.515q0,3.634,0,7.268a1.555,1.555,0,0,0,.051.531,11.988,11.988,0,0,1,.646,5.876h.891v1.644c-.029.018-.059.053-.08.048-.942-.2-1.414.249-1.585,1.169a1.654,1.654,0,0,1-.27.623c-.284.408-.2.676.148,1.027,2.364,2.4,4.7,4.828,7.047,7.248.643.664.645,1.023,0,1.685-.819.839-1.643,1.672-2.464,2.508Zm-14.278-27.639a9.852,9.852,0,0,0-9.74,9.975,9.886,9.886,0,0,0,9.672,10.1,9.867,9.867,0,0,0,9.786-9.983A9.853,9.853,0,0,0-828.971,958.688Zm15.793,24.273-6.809-7.02-1.184,1.342,6.738,6.96Z" transform="translate(-16.077 -25.207)" fill="#693fb7"/>
        <path id="Trazado_194412-2" data-name="Trazado 194412" d="M-821.049,963.881l-1.22-1.111a3.451,3.451,0,0,0,.621-2.374q-.014-12.893-.006-25.785a2.5,2.5,0,0,0-2.725-2.831q-15.978,0-31.956,0a2.436,2.436,0,0,0-2.611,1.886,3.035,3.035,0,0,0-.067.728q0,13.285,0,26.57a2.407,2.407,0,0,0,2.561,2.629c3.27.011,6.54,0,9.811,0h.582v1.692c-.15.01-.288.027-.425.028-3.334,0-6.668.007-10,0a4.1,4.1,0,0,1-4.071-3.24,5.393,5.393,0,0,1-.128-1.215q-.011-13.162,0-26.325a4.177,4.177,0,0,1,4.334-4.465q16.05,0,32.1,0a4.1,4.1,0,0,1,4.165,3.425,5.508,5.508,0,0,1,.067,1.074q.005,13.137.008,26.276A4.384,4.384,0,0,1-821.049,963.881Z" transform="translate(-9.591 -12.557)" fill="#693fb7"/>
        <path id="Trazado_194413-2" data-name="Trazado 194413" d="M-834.487,915.836h-1.6c-.023-.387-.02-.761-.073-1.126a2.448,2.448,0,0,0-2.4-2.209c-.048,0-.1,0-.143,0q-16.1,0-32.2,0a2.426,2.426,0,0,0-2.483,1.806,3.726,3.726,0,0,0-.105.969q-.008,13.163-.009,26.326a2.619,2.619,0,0,0,1.814,2.686l-.383,1.606a3.751,3.751,0,0,1-2.012-1.226,4.147,4.147,0,0,1-1.068-2.811q-.009-13.408,0-26.817a4.116,4.116,0,0,1,4.122-4.216q16.146,0,32.291,0a4.114,4.114,0,0,1,4.249,4.373Z" transform="translate(0 0)" fill="#693fb7"/>
        <path id="Trazado_194414-2" data-name="Trazado 194414" d="M-834.8,975.975v10.043h-1.571V975.975Z" transform="translate(-25.722 -42.513)" fill="#693fb7"/>
        <path id="Trazado_194415-2" data-name="Trazado 194415" d="M-825.189,990.809h-1.564v-7.5h1.564Z" transform="translate(-32.097 -47.301)" fill="#693fb7"/>
        <path id="Trazado_194416-2" data-name="Trazado 194416" d="M-846.175,995.408c0-1.619,0-3.188.011-4.758a.366.366,0,0,1,.24-.263c.454-.027.91-.013,1.382-.013v5.034Z" transform="translate(-19.218 -51.907)" fill="#693fb7"/>
        <path id="Trazado_194417-2" data-name="Trazado 194417" d="M-851.025,939.752h1.623v1.706c-.463,0-.931.011-1.4-.011a.329.329,0,0,1-.216-.235C-851.036,940.745-851.025,940.276-851.025,939.752Z" transform="translate(-16 -18.877)" fill="#693fb7"/>
        <path id="Trazado_194418-2" data-name="Trazado 194418" d="M-865.411,920.517h1.611v1.636h-1.611Z" transform="translate(-6.462 -6.325)" fill="#693fb7"/>
        <path id="Trazado_194419-2" data-name="Trazado 194419" d="M-855.776,922.142v-1.628h1.609v1.628Z" transform="translate(-12.851 -6.323)" fill="#693fb7"/>
        <path id="Trazado_194420-2" data-name="Trazado 194420" d="M-839.867,941.455c-.107.01-.184.023-.261.025-1.436.045-1.6-.165-1.275-1.7h1.537Z" transform="translate(-22.289 -18.895)" fill="#693fb7"/>
        <path id="Trazado_194421-2" data-name="Trazado 194421" d="M-831.535,939.767h1.558v1.677h-1.558Z" transform="translate(-28.926 -18.886)" fill="#693fb7"/>
        <path id="Trazado_194422-2" data-name="Trazado 194422" d="M-846.082,920.524h1.6v1.632h-1.6Z" transform="translate(-19.28 -6.33)" fill="#693fb7"/>
        <path id="Trazado_194423-2" data-name="Trazado 194423" d="M-793.7,989.134a8.247,8.247,0,0,1-8.148,8.371,8.25,8.25,0,0,1-8.129-8.391,8.3,8.3,0,0,1,8.146-8.4A8.307,8.307,0,0,1-793.7,989.134Zm-5.721-.016v-.565c0-1.735,0-3.471-.008-5.206,0-.167-.073-.439-.18-.48a14.6,14.6,0,0,0-1.4-.4V989.1h-1.664v-6.622c-.4.1-.729.2-1.067.258-.392.071-.53.262-.523.693.027,1.7.011,3.4.011,5.107v.571h-1.678v-5.086a6.4,6.4,0,0,0-2.116,6.757h12.46c.782-2.492-.446-5.679-2.184-6.742v5.082Zm-8.031,3.382a6.371,6.371,0,0,0,5.917,3.3,6.291,6.291,0,0,0,5.291-3.3Z" transform="translate(-43.226 -45.607)" fill="#693fb7"/>
      </g>
    </g>
  </g>
</svg>
