<svg xmlns="http://www.w3.org/2000/svg" xmlns:xlink="http://www.w3.org/1999/xlink" width="88" height="88" viewBox="0 0 88 88">
  <defs>
    <filter id="Rect치ngulo_40719" x="0" y="0" width="88" height="88" filterUnits="userSpaceOnUse">
      <feOffset dy="3" input="SourceAlpha"/>
      <feGaussianBlur stdDeviation="3" result="blur"/>
      <feFlood flood-opacity="0.161"/>
      <feComposite operator="in" in2="blur"/>
      <feComposite in="SourceGraphic"/>
    </filter>
  </defs>
  <g id="Grupo_136626" data-name="Grupo 136626" transform="translate(15372 11318)">
    <g id="Grupo_136618" data-name="Grupo 136618" transform="translate(-15597 -12227)">
      <g transform="matrix(1, 0, 0, 1, 225, 909)" filter="url(#Rect치ngulo_40719)">
        <path id="Rect치ngulo_40719-2" data-name="Rect치ngulo 40719" d="M10,0H60A10,10,0,0,1,70,10V70a0,0,0,0,1,0,0H10A10,10,0,0,1,0,60V10A10,10,0,0,1,10,0Z" transform="translate(9 6)" fill="#b13e8d"/>
      </g>
      <g id="Grupo_136282" data-name="Grupo 136282" transform="translate(1335.954 27.733)">
        <path id="Trazado_194539" data-name="Trazado 194539" d="M-1064.044,897.267h1.031c.1.037.2.077.3.109a2.922,2.922,0,0,1,2.1,2.347,3.046,3.046,0,0,1-.347,1.992c-.126.249-.02.383.154.508.191.137.267.475.64.3a5.29,5.29,0,0,1,1.107-.361.677.677,0,0,1,.8.543.679.679,0,0,1-.478.809c-.508.195-1.025.368-1.532.565a.8.8,0,0,1-.966-.232c-.337-.367-.691-.72-1.058-1.057a.777.777,0,0,1-.235-.963c.14-.33.287-.658.415-.992a1.544,1.544,0,0,0-.8-2.037,1.537,1.537,0,0,0-2.044.871c-.146.327-.275.662-.411.993a.783.783,0,0,1-.854.508c-.482-.021-.966-.027-1.447,0a.794.794,0,0,1-.885-.529c-.137-.348-.277-.7-.435-1.034a1.526,1.526,0,0,0-1.991-.817,1.536,1.536,0,0,0-.843,1.982c.134.366.3.72.444,1.081a.765.765,0,0,1-.228.926c-.375.351-.738.717-1.09,1.091a.764.764,0,0,1-.928.219c-.345-.144-.687-.3-1.037-.43a1.539,1.539,0,0,0-2,.794,1.523,1.523,0,0,0,.808,2.029c.339.157.687.3,1.035.434a.793.793,0,0,1,.523.888,11.394,11.394,0,0,0,0,1.4.807.807,0,0,1-.554.914c-.363.14-.727.284-1.076.455a1.516,1.516,0,0,0-.756,1.94,1.523,1.523,0,0,0,1.926.877c.383-.132.753-.3,1.127-.455a.78.78,0,0,1,.962.243,13.289,13.289,0,0,0,1.024,1.025.8.8,0,0,1,.238,1.04c-.148.326-.286.658-.409.994a1.537,1.537,0,0,0,.83,1.987,1.524,1.524,0,0,0,2-.8c.16-.337.3-.685.437-1.033a.791.791,0,0,1,.878-.539,14.2,14.2,0,0,0,1.447,0,.793.793,0,0,1,.877.541c.142.363.286.726.457,1.076a1.516,1.516,0,0,0,1.975.759,1.53,1.53,0,0,0,.842-1.944c-.129-.367-.29-.723-.442-1.082a.777.777,0,0,1,.225-.965c.367-.337.722-.689,1.058-1.057a.78.78,0,0,1,.962-.241c.36.15.715.312,1.082.444a1.531,1.531,0,0,0,1.953-.822,1.519,1.519,0,0,0-.781-2c-.352-.167-.716-.308-1.077-.455a.78.78,0,0,1-.516-.847c.02-.5.02-1,0-1.493a.777.777,0,0,1,.525-.841c.333-.132.667-.264.994-.412a1.528,1.528,0,0,0,.9-1.92c-.151-.539-.006-.913.4-1.035.437-.131.784.106.956.653a2.954,2.954,0,0,1-1.733,3.61c-.671.3-.7.37-.5,1.149h.5c2.109,0,4.217,0,6.326,0a6.226,6.226,0,0,1,1.073.061,4.371,4.371,0,0,1,3.669,4.519q.007,11.309,0,22.619v.619c.159.044.294.079.427.12a4.193,4.193,0,0,1,2.952,2.934c.054.175.112.349.168.523v1.218c-.018.025-.047.047-.053.074a4.248,4.248,0,0,1-4.609,3.579h-37.023c-.719,0-1.437.01-2.156,0a4.249,4.249,0,0,1-4.132-3.8,4.265,4.265,0,0,1,3.088-4.521c.145-.041.289-.085.44-.13v-.6q0-11.217,0-22.433a6.391,6.391,0,0,1,.062-1.119,4.332,4.332,0,0,1,4.293-3.653c2.249-.03,4.5-.009,6.748-.01h.494c.123-.858.122-.855-.6-1.185a2.825,2.825,0,0,1-1.784-2.588,2.939,2.939,0,0,1,4.113-2.815c.273.106.517.356.865,0a.707.707,0,0,0,.163-.919,2.907,2.907,0,0,1,2-4.106.957.957,0,0,0,.163-.081h1.031a11.108,11.108,0,0,1,1.128.528,2.908,2.908,0,0,1,1.192,1.626.388.388,0,0,0,.492.293c.238-.035.539.13.66-.252A3.215,3.215,0,0,1-1064.044,897.267Zm8.442,15.252c.886,0,1.836,0,2.786,0a2.563,2.563,0,0,1,2.751,2.747q.006,8.36,0,16.719a3.13,3.13,0,0,1-.069.742,2.444,2.444,0,0,1-2.627,1.862q-14.176,0-28.352,0c-.172,0-.344,0-.515-.019a2.367,2.367,0,0,1-2.2-2.327q-.02-8.617,0-17.234a2.469,2.469,0,0,1,1.888-2.39,4.348,4.348,0,0,1,1.019-.1c.9-.013,1.8,0,2.625,0,.146-.758.278-1.445.411-2.136.01,0-.02-.013-.05-.013-1.625,0-3.249-.01-4.874,0a2.974,2.974,0,0,0-3.183,3.195q0,11.333,0,22.667v.517c1.3,0,2.514,0,3.732,0a2.578,2.578,0,0,1,.512.033.634.634,0,0,1,.55.7.627.627,0,0,1-.566.642,3.531,3.531,0,0,1-.56.025c-1.562.011-3.126-.035-4.684.047a2.754,2.754,0,0,0-2.531,2.769,2.842,2.842,0,0,0,2.995,2.857q13.473,0,26.946,0,6.116,0,12.231,0a3,3,0,0,0,1.771-.5,2.829,2.829,0,0,0,1.105-3.179,2.819,2.819,0,0,0-2.812-1.988c-3.78-.014-7.561,0-11.341-.01a.418.418,0,0,0-.487.353,3.772,3.772,0,0,1-3.693,2.772c-2.749.022-5.5.013-8.248,0a3.493,3.493,0,0,1-2.758-1.178,16.539,16.539,0,0,1-1.235-1.944c-.724,0-1.627,0-2.53,0-.531,0-1.063.012-1.592-.025a.616.616,0,0,1-.6-.66.635.635,0,0,1,.569-.689,3.472,3.472,0,0,1,.607-.03h30.7v-.634q0-6.65,0-13.3c0-3.107.005-6.213,0-9.32a2.962,2.962,0,0,0-3.113-3.123c-1.578-.012-3.156,0-4.733,0-.106,0-.213.014-.256.017Zm-11.383,20.666q7.1,0,14.2,0c.929,0,1.315-.345,1.315-1.188q0-8.383,0-16.765a1.165,1.165,0,0,0-1.3-1.3q-1.687-.013-3.374,0a.7.7,0,0,0-.429.113,3.021,3.021,0,0,1-3.561.473.475.475,0,0,0-.342-.041.758.758,0,0,0-.379,1.049,4.1,4.1,0,0,1,.149.393,2.835,2.835,0,0,1-.643,2.873,2.791,2.791,0,0,1-2.808.876,2.925,2.925,0,0,1-2.148-1.9c-.068-.17-.188-.4-.333-.445-.522-.162-.764-.014-.985.508a2.871,2.871,0,0,1-2.6,1.911,2.942,2.942,0,0,1-2.868-4.108c.106-.272.349-.507.008-.865-.357-.375-.627-.277-1.007-.123a2.91,2.91,0,0,1-3.148-.518.85.85,0,0,0-.491-.19q-1.733-.024-3.468,0a1.138,1.138,0,0,0-1.227,1.232q-.009,8.453,0,16.906a1.015,1.015,0,0,0,1.1,1.116c.14.006.281,0,.422,0Zm6.437,5.009h-12.835a2.308,2.308,0,0,0,2.193,1.663q4.235.042,8.47,0A2.222,2.222,0,0,0-1060.549,938.194Z" transform="translate(0 0)" fill="#fff"/>
        <path id="Trazado_194540" data-name="Trazado 194540" d="M-930.515,951.4a4.493,4.493,0,0,1,4.486,4.461,4.5,4.5,0,0,1-4.476,4.472,4.5,4.5,0,0,1-4.463-4.438A4.5,4.5,0,0,1-930.515,951.4Zm2.986,4.9a2.9,2.9,0,0,0-1.261-2.967,3.084,3.084,0,0,0-3.589.129,2.79,2.79,0,0,0-1.075,2.839Zm-5.316,1.449a2.918,2.918,0,0,0,4.661,0Z" transform="translate(-136.452 -47.361)" fill="#f7fcf3"/>
        <path id="Trazado_194541" data-name="Trazado 194541" d="M-988.9,1091.4c.365-.385.639-.706.946-.993a2.351,2.351,0,0,1,3.3.008,2.352,2.352,0,0,1,.079,3.291c-.292.321-.644.587-1.117,1.011a12.613,12.613,0,0,1,.986.8,2.367,2.367,0,0,1,.056,3.428,2.367,2.367,0,0,1-3.4-.079c-.267-.261-.516-.541-.86-.9-.287.319-.53.617-.8.885a2.368,2.368,0,0,1-3.431.082,2.389,2.389,0,0,1,.084-3.431c.26-.265.53-.519.852-.833-.333-.315-.638-.579-.916-.87a2.372,2.372,0,0,1-.022-3.363,2.355,2.355,0,0,1,3.363.014C-989.488,1090.729-989.228,1091.043-988.9,1091.4Zm-3.648,5.909a3.823,3.823,0,0,0,.662.795.825.825,0,0,0,1.073-.151c.453-.429.883-.882,1.331-1.316a.732.732,0,0,1,1.179,0c.415.4.813.82,1.229,1.22a.959.959,0,0,0,1.449.062.971.971,0,0,0-.085-1.416c-.357-.371-.727-.729-1.09-1.094-.593-.6-.6-.857-.015-1.441.363-.365.732-.725,1.089-1.095a.973.973,0,0,0,.083-1.448.963.963,0,0,0-1.449.1c-.414.4-.813.82-1.229,1.22a.713.713,0,0,1-1.143,0c-.417-.4-.814-.819-1.228-1.221a.967.967,0,0,0-1.45-.1.988.988,0,0,0,.081,1.453c.369.381.751.75,1.124,1.126.527.531.524.834-.014,1.376-.374.376-.767.735-1.119,1.13A5.344,5.344,0,0,0-992.546,1097.309Z" transform="translate(-84.96 -168.384)" fill="#f7fcf3"/>
        <path id="Trazado_194542" data-name="Trazado 194542" d="M-874.052,1086.56c.632-1.114,1.217-2.193,1.847-3.245a2.285,2.285,0,0,1,3.929-.059,2.106,2.106,0,0,1,.106,2.227c-1.2,2.167-2.4,4.337-3.661,6.467a2.241,2.241,0,0,1-3.675.238c-.96-1.168-1.882-2.37-2.782-3.585a2.263,2.263,0,0,1,.472-3.167,2.288,2.288,0,0,1,3.185.4C-874.444,1086.056-874.266,1086.29-874.052,1086.56Zm-2.415-.322a3.7,3.7,0,0,0-.744.641.828.828,0,0,0,.124,1c.824,1.059,1.643,2.121,2.468,3.179.619.794,1.285.742,1.785-.141q1.636-2.888,3.264-5.781c.083-.148.218-.318.2-.462a1.426,1.426,0,0,0-.27-.828,1.038,1.038,0,0,0-.839-.19,1.23,1.23,0,0,0-.62.573c-.741,1.263-1.446,2.547-2.174,3.819-.359.627-.883.66-1.339.093-.361-.45-.689-.928-1.073-1.358A4.376,4.376,0,0,0-876.467,1086.238Z" transform="translate(-185.644 -161.761)" fill="#f7fcf3"/>
      </g>
    </g>
  </g>
</svg>
