<svg xmlns="http://www.w3.org/2000/svg" xmlns:xlink="http://www.w3.org/1999/xlink" width="190" height="112" viewBox="0 0 190 112">
  <defs>
    <linearGradient id="linear-gradient" x1="0.5" x2="0.5" y2="1" gradientUnits="objectBoundingBox">
      <stop offset="0" stop-color="#f7ca2e" stop-opacity="0"/>
      <stop offset="0.091" stop-color="#f7ca2e" stop-opacity="0.129"/>
      <stop offset="0.283" stop-color="#f7ca2e" stop-opacity="0.388"/>
      <stop offset="0.465" stop-color="#f7ca2e" stop-opacity="0.612"/>
      <stop offset="0.633" stop-color="#f7ca2e" stop-opacity="0.78"/>
      <stop offset="0.784" stop-color="#f7ca2e" stop-opacity="0.902"/>
      <stop offset="0.911" stop-color="#f7ca2e" stop-opacity="0.969"/>
      <stop offset="1" stop-color="#f7ca2e"/>
    </linearGradient>
    <linearGradient id="linear-gradient-2" x1="0.5" x2="0.5" y2="1" gradientUnits="objectBoundingBox">
      <stop offset="0" stop-color="#b13e8d" stop-opacity="0"/>
      <stop offset="0.091" stop-color="#b13e8d" stop-opacity="0.129"/>
      <stop offset="0.283" stop-color="#b13e8d" stop-opacity="0.388"/>
      <stop offset="0.465" stop-color="#b13e8d" stop-opacity="0.612"/>
      <stop offset="0.633" stop-color="#b13e8d" stop-opacity="0.78"/>
      <stop offset="0.784" stop-color="#b13e8d"/>
      <stop offset="0.911" stop-color="#b13e8d" stop-opacity="0.969"/>
      <stop offset="1" stop-color="#b13e8d"/>
    </linearGradient>
    <filter id="Rectángulo_40720" x="41" y="4" width="108" height="108" filterUnits="userSpaceOnUse">
      <feOffset dy="3" input="SourceAlpha"/>
      <feGaussianBlur stdDeviation="3" result="blur"/>
      <feFlood flood-opacity="0.161"/>
      <feComposite operator="in" in2="blur"/>
      <feComposite in="SourceGraphic"/>
    </filter>
  </defs>
  <g id="Grupo_136619" data-name="Grupo 136619" transform="translate(-180 -2373)">
    <g id="Grupo_136464" data-name="Grupo 136464">
      <g id="Grupo_136348" data-name="Grupo 136348">
        <g id="Grupo_128321" data-name="Grupo 128321" transform="translate(0 1974)">
          <rect id="Rectángulo_40586" data-name="Rectángulo 40586" width="190" height="20" transform="translate(180 444)" fill="none"/>
          <g id="Grupo_108405" data-name="Grupo 108405" transform="translate(209.5 463)">
            <path id="Rectángulo_5242" data-name="Rectángulo 5242" d="M0,0H12a0,0,0,0,1,0,0V43.333a3,3,0,0,1-3,3H3a3,3,0,0,1-3-3V0A0,0,0,0,1,0,0Z" transform="translate(0 0)" fill="url(#linear-gradient)"/>
          </g>
          <g id="Grupo_108406" data-name="Grupo 108406" transform="translate(340 451) rotate(180)">
            <path id="Rectángulo_5242-2" data-name="Rectángulo 5242" d="M0,0H12a0,0,0,0,1,0,0V49a3,3,0,0,1-3,3H3a3,3,0,0,1-3-3V0A0,0,0,0,1,0,0Z" transform="translate(0 0)" fill="url(#linear-gradient-2)"/>
          </g>
          <g transform="matrix(1, 0, 0, 1, 180, 399)" filter="url(#Rectángulo_40720)">
            <path id="Rectángulo_40720-2" data-name="Rectángulo 40720" d="M10,0H80A10,10,0,0,1,90,10V90a0,0,0,0,1,0,0H10A10,10,0,0,1,0,80V10A10,10,0,0,1,10,0Z" transform="translate(50 10)" fill="#f6f6f6"/>
          </g>
        </g>
      </g>
    </g>
    <g id="Grupo_136463" data-name="Grupo 136463" transform="translate(-305.748 2114.087)">
      <path id="Trazado_194842" data-name="Trazado 194842" d="M598.895,294.491c1.218-2.16,2.374-4.3,3.612-6.386a4.652,4.652,0,0,1,8.071-.019,4.584,4.584,0,0,1-.016,4.792q-1.941,3.468-3.894,6.929c-.131.232-.26.466-.3.536,1.543,2.176,3.156,4.2,4.492,6.387a32.274,32.274,0,0,1,4.733,14.853c.167,2.548.12,5.111.145,7.667a1.088,1.088,0,0,1-1.189,1.181q-8.13.013-16.26,0c-.8,0-1.2-.461-1.208-1.312-.007-1.9.018-3.8-.009-5.7a16.053,16.053,0,0,0-.823-5.025c-.187.293-.321.484-.436.687-1.278,2.265-2.532,4.544-3.836,6.794a3.906,3.906,0,0,0-.03,4.136,12.843,12.843,0,1,1-11.418-6.591,3.344,3.344,0,0,0,3.029-1.71c2.178-3.822,4.325-7.661,6.483-11.494a.808.808,0,0,0,.039-.188,15.2,15.2,0,0,0-6.2-2.668,16.275,16.275,0,0,0-18.944,12.14,24.542,24.542,0,0,0-.506,4.626c-.083,1.653-.014,3.313-.021,4.969,0,.925-.412,1.34-1.33,1.341q-8.021.007-16.042,0c-.811,0-1.294-.409-1.284-1.158.036-2.824-.065-5.663.2-8.467a33.423,33.423,0,0,1,4.985-14.632,34.542,34.542,0,0,1,15.288-13.513.809.809,0,0,0,.535-.884c-.02-3.07-.014-6.139-.009-9.209a3.452,3.452,0,0,1,3.572-3.593q10.427-.006,20.854,0a3.451,3.451,0,0,1,3.573,3.592c.005,3.07.011,6.14-.009,9.209a.813.813,0,0,0,.538.881C596.473,293.226,597.646,293.855,598.895,294.491ZM580.986,346.81c.371-.041.981-.068,1.576-.18a10.471,10.471,0,0,0,7.332-15.429,6.257,6.257,0,0,1,.056-6.561c4.129-7.27,8.214-14.564,12.316-21.849q3.077-5.463,6.151-10.928a2.33,2.33,0,1,0-4-2.34q-3.678,6.506-7.332,13.026-5.632,10.008-11.26,20.018a5.9,5.9,0,0,1-4.245,3.13c-.833.149-1.7.087-2.536.235a10.513,10.513,0,0,0,1.944,20.879Zm-15.7-33.98a18.858,18.858,0,0,1,26.049-4.9l6.381-11.336-3.006-1.616a3.734,3.734,0,0,1-4.073,2.728c-1.674-.066-3.352.006-5.028-.025a1.253,1.253,0,0,0-1.206.585c-.79,1.138-1.649,2.228-2.481,3.336-.811,1.08-1.545,1.073-2.371-.025s-1.684-2.2-2.482-3.335a1.207,1.207,0,0,0-1.146-.561c-1.87.03-3.741.017-5.612.007a3.94,3.94,0,0,1-.933-.1,3.613,3.613,0,0,1-2.592-2.585,32.587,32.587,0,0,0-12.531,10.465Zm15.46-13.616c.824-1.1,1.6-2.1,2.331-3.125a1.617,1.617,0,0,1,1.468-.75c2.114.029,4.228.015,6.342.009,1.08,0,1.523-.431,1.524-1.491q.009-5.517,0-11.033c0-1.072-.437-1.508-1.506-1.509q-10.169-.006-20.338,0c-1.061,0-1.49.441-1.491,1.522q-.007,5.48,0,10.96c0,1.122.424,1.548,1.538,1.551,2.09.005,4.18.021,6.269-.01a1.669,1.669,0,0,1,1.537.76C579.145,297.129,579.924,298.122,580.745,299.214Zm-18.637,28.853c-.116-4.531-.3-9.029,2.028-13.148l-11.19-7.478c-3.947,6.348-5.242,13.266-4.817,20.627Zm46.435-20.626c-3.27,2.186-6.509,4.329-9.721,6.512a2.27,2.27,0,0,0-.7,2.617c.259.7.488,1.422.7,2.143a24.374,24.374,0,0,1,.591,7.1c-.005.746,0,1.491,0,2.232h13.95C613.771,320.683,612.477,313.776,608.542,307.441Zm-7.129,1.7.151.111,5.7-3.816-2.221-2.744Z" fill="#6836bf"/>
      <path id="Trazado_194843" data-name="Trazado 194843" d="M558.43,566.547a2.631,2.631,0,0,0-.451.5,29,29,0,0,0-1.393,2.807,2.048,2.048,0,0,1-2.338,1.462,3.521,3.521,0,0,1-3.411-2.651,9.363,9.363,0,0,1-.023-1.994c-.263-.041-.569-.066-.863-.14a3.485,3.485,0,0,1-2.7-3.81c.147-1.622.354-3.24.6-4.85a3.486,3.486,0,0,1,3.535-2.951,15.67,15.67,0,0,0,1.749-.011,4.541,4.541,0,0,1,4.242,1.759,4.909,4.909,0,0,0,1.03.728l.2-.164c0-.383-.014-.767,0-1.15a1.094,1.094,0,0,1,1.143-1.154q2.37-.028,4.74,0a1.063,1.063,0,0,1,1.1,1.114q.021,5.884,0,11.768a1.081,1.081,0,0,1-1.161,1.136q-2.333.027-4.667,0a1.109,1.109,0,0,1-1.161-1.212c-.011-.36,0-.72,0-1.08Zm.147-6.918c-.778-.114-1.624.207-2.148-.547a4.3,4.3,0,0,0-4.55-1.83,2.3,2.3,0,0,1-.291,0,1.286,1.286,0,0,0-1.443,1.3c-.166,1.4-.33,2.8-.506,4.2a1.209,1.209,0,0,0,1.285,1.522c.606.019,1.214-.013,1.82.009a1.142,1.142,0,0,1,1.074,1.676,7.608,7.608,0,0,0-.616,1.39,1.772,1.772,0,0,0,.25,1.243c.413.555.878.438,1.191-.189a26.393,26.393,0,0,0,1.213-2.485,2.131,2.131,0,0,1,2.572-1.656c.035.006.079-.041.147-.079Zm4.646,6.95v-9.266h-2.247v9.266Z" transform="translate(-1.199 -222.139)" fill="#6836bf"/>
      <path id="Trazado_194844" data-name="Trazado 194844" d="M814.326,559.633c-.658-2.6,1.076-5.075,4.479-4.578a1.526,1.526,0,0,1,.889.756c.612,1.1,1.137,2.257,1.714,3.381a3.509,3.509,0,0,0,.465.573l.205-.11c0-.383-.015-.766,0-1.148a1.1,1.1,0,0,1,1.152-1.146q2.333-.027,4.667,0a1.1,1.1,0,0,1,1.171,1.2q.015,5.811,0,11.622a1.113,1.113,0,0,1-1.246,1.2q-2.224.018-4.448,0a1.149,1.149,0,0,1-1.3-1.3c-.006-.314,0-.629,0-1.162a4.78,4.78,0,0,0-.967.453c-.4.319-.721.723-1.1,1.068a3.355,3.355,0,0,1-2.375.945c-.948-.01-1.9,0-2.844,0a3.505,3.505,0,0,1-3.482-3.019q-.328-2.311-.584-4.632C810.482,561.517,811.854,559.944,814.326,559.633Zm7.726,2.4a4.534,4.534,0,0,0-.577,0,1.634,1.634,0,0,1-1.907-1.18c-.423-1-.959-1.962-1.448-2.938-.325-.649-.829-.751-1.243-.157a1.724,1.724,0,0,0-.208,1.192,6.885,6.885,0,0,0,.6,1.321,1.163,1.163,0,0,1-1.111,1.756c-.631.015-1.264-.023-1.893.014a1.182,1.182,0,0,0-1.164,1.433c.175,1.446.347,2.893.529,4.339a1.253,1.253,0,0,0,1.352,1.232c.485.016.978-.048,1.455.014a2.786,2.786,0,0,0,2.791-1.162,2.645,2.645,0,0,1,2.686-1.207c.034.006.078-.044.142-.083Zm2.41-2.307v9.266h2.245v-9.266Z" transform="translate(-213.331 -222.238)" fill="#6836bf"/>
      <path id="Trazado_194845" data-name="Trazado 194845" d="M684.7,442.143l-.915,2.09a10.4,10.4,0,0,0-7.487-.324,10.576,10.576,0,0,0-5.82,4.719l-1.98-1.153C671.7,441.49,679.489,439.5,684.7,442.143Z" transform="translate(-98.836 -130.454)" fill="#6836bf"/>
      <path id="Trazado_194846" data-name="Trazado 194846" d="M658.923,490.9l.6-3.849,2.273.714L661.3,490.9Z" transform="translate(-91.125 -167.534)" fill="#6836bf"/>
      <path id="Trazado_194847" data-name="Trazado 194847" d="M697.486,545.059h-2.4c.076-1.45.055-2.9.261-4.322a2.914,2.914,0,0,1,1.733-2.045c.451-.234.907-.459,1.421-.718a4.455,4.455,0,0,1-.88-4.333,3.416,3.416,0,0,1,3.861-2.584,3.542,3.542,0,0,1,3.01,3.491,4.266,4.266,0,0,1-1.026,3.409c.552.289,1.048.532,1.528.8a3.372,3.372,0,0,1,1.822,3.1c.005,1.042,0,2.085,0,3.171h-2.332c0-.968-.017-1.911.005-2.854a1.445,1.445,0,0,0-.918-1.5c-.881-.4-1.738-1.144-2.617-1.163-.816-.017-1.634.758-2.478,1.122a1.538,1.538,0,0,0-1,1.667C697.514,543.2,697.486,544.1,697.486,545.059Zm2.279-9.99a3.119,3.119,0,0,0,.245.932c.267.426.641.824,1.236.595a1.951,1.951,0,0,0,.5-2.9,1.106,1.106,0,0,0-1.794.406A5.194,5.194,0,0,0,699.765,535.069Z" transform="translate(-120.244 -202.944)" fill="#6836bf"/>
      <path id="Trazado_194848" data-name="Trazado 194848" d="M697.154,310.887l1.632-1.665,2.6,2.656,7.358-7.4,1.7,1.89c-.4.365-.9.788-1.363,1.249q-3.255,3.242-6.493,6.5c-.846.846-1.36.84-2.217-.014C699.3,313.038,698.241,311.974,697.154,310.887Z" transform="translate(-121.907 -20.532)" fill="#6836bf"/>
    </g>
  </g>
</svg>
