<svg xmlns="http://www.w3.org/2000/svg" xmlns:xlink="http://www.w3.org/1999/xlink" width="1029.295" height="535" viewBox="0 0 1029.295 535">
  <defs>
    <linearGradient id="linear-gradient" y1="0.5" x2="1" y2="0.5" gradientUnits="objectBoundingBox">
      <stop offset="0" stop-color="#fff"/>
      <stop offset="1" stop-color="#cecece"/>
    </linearGradient>
    <linearGradient id="linear-gradient-2" y1="0.5" x2="1" y2="0.5" gradientUnits="objectBoundingBox">
      <stop offset="0" stop-color="#cecece"/>
      <stop offset="1" stop-color="#fff"/>
    </linearGradient>
    <linearGradient id="linear-gradient-3" x1="1.39" y1="11.489" x2="1.023" y2="10.41" gradientUnits="objectBoundingBox">
      <stop offset="0.001" stop-color="#fff"/>
      <stop offset="1" stop-color="#c5c5c5"/>
    </linearGradient>
    <linearGradient id="linear-gradient-4" x1="0.715" y1="1.572" x2="1.682" y2="1.572" gradientUnits="objectBoundingBox">
      <stop offset="0" stop-color="#fca022"/>
      <stop offset="1" stop-color="#ffcc36"/>
    </linearGradient>
    <linearGradient id="linear-gradient-5" y1="0.5" x2="1" y2="0.5" gradientUnits="objectBoundingBox">
      <stop offset="0" stop-color="#fff"/>
      <stop offset="1" stop-color="#ccc"/>
    </linearGradient>
    <linearGradient id="linear-gradient-6" y1="0.5" x2="1" y2="0.5" gradientUnits="objectBoundingBox">
      <stop offset="0" stop-color="#c7c7c7"/>
      <stop offset="1" stop-color="#fff"/>
    </linearGradient>
    <linearGradient id="linear-gradient-7" x1="0.91" y1="14.29" x2="0.543" y2="13.212" xlink:href="#linear-gradient-3"/>
    <linearGradient id="linear-gradient-8" x1="0.235" y1="1.183" x2="1.202" y2="1.183" xlink:href="#linear-gradient-4"/>
    <linearGradient id="linear-gradient-9" x1="0.769" y1="15.474" x2="0.403" y2="14.396" xlink:href="#linear-gradient-3"/>
    <linearGradient id="linear-gradient-10" x1="0.095" y1="-0.001" x2="1.061" y2="-0.001" xlink:href="#linear-gradient-4"/>
    <linearGradient id="linear-gradient-11" y1="0.5" x2="1" y2="0.5" gradientUnits="objectBoundingBox">
      <stop offset="0" stop-color="#fff"/>
      <stop offset="1" stop-color="#c9c9c9"/>
    </linearGradient>
    <linearGradient id="linear-gradient-12" y1="0.5" x2="1" y2="0.5" gradientUnits="objectBoundingBox">
      <stop offset="0" stop-color="#cecece"/>
      <stop offset="0" stop-color="#cfcfcf"/>
      <stop offset="1" stop-color="#f8f8f8"/>
    </linearGradient>
    <linearGradient id="linear-gradient-13" y1="0.5" x2="1" y2="0.5" gradientUnits="objectBoundingBox">
      <stop offset="0" stop-color="#fff"/>
      <stop offset="1" stop-color="#bbb"/>
    </linearGradient>
    <linearGradient id="linear-gradient-14" y1="0.5" x2="1" y2="0.5" gradientUnits="objectBoundingBox">
      <stop offset="0" stop-color="#d1d1d1"/>
      <stop offset="1" stop-color="#fff"/>
    </linearGradient>
  </defs>
  <g id="Grupo_136614" data-name="Grupo 136614" transform="translate(-285.704 -2549)">
    <g id="Grupo_136199" data-name="Grupo 136199" transform="translate(234.057 2379.719)">
      <g id="Grupo_136198" data-name="Grupo 136198" transform="translate(546.61 196.281)">
        <path id="Trazado_194127" data-name="Trazado 194127" d="M462.426,452.653H347.9a29.084,29.084,0,0,1-25.118-14.5l-57.262-99.179a29.088,29.088,0,0,1,0-29l57.262-99.181a29.086,29.086,0,0,1,25.118-14.5H462.426a29.086,29.086,0,0,1,25.118,14.5l57.262,99.181a29.077,29.077,0,0,1,0,29l-57.262,99.179A29.083,29.083,0,0,1,462.426,452.653ZM347.9,200.995a24.355,24.355,0,0,0-21.036,12.145L269.6,312.321a24.359,24.359,0,0,0,0,24.291l57.262,99.179A24.358,24.358,0,0,0,347.9,447.939H462.426a24.357,24.357,0,0,0,21.036-12.148l57.262-99.179a24.36,24.36,0,0,0,0-24.291L483.462,213.14a24.355,24.355,0,0,0-21.036-12.145Z" transform="translate(-261.648 -196.281)" fill="#b13e8d"/>
      </g>
      <g id="Grupo_136197" data-name="Grupo 136197" transform="translate(51.648 196.281)">
        <path id="Trazado_194126" data-name="Trazado 194126" d="M252.426,452.653H137.9a29.084,29.084,0,0,1-25.118-14.5L55.521,338.969a29.088,29.088,0,0,1,0-29l57.262-99.181a29.086,29.086,0,0,1,25.118-14.5H252.426a29.087,29.087,0,0,1,25.118,14.5l57.262,99.181a29.088,29.088,0,0,1,0,29l-57.262,99.179A29.084,29.084,0,0,1,252.426,452.653ZM137.9,200.995a24.355,24.355,0,0,0-21.036,12.145L59.6,312.321a24.36,24.36,0,0,0,0,24.291l57.262,99.179A24.357,24.357,0,0,0,137.9,447.939H252.426a24.357,24.357,0,0,0,21.036-12.148l57.262-99.179a24.359,24.359,0,0,0,0-24.291L273.462,213.14a24.355,24.355,0,0,0-21.036-12.145Z" transform="translate(-51.648 -196.281)" fill="#b13e8d"/>
      </g>
      <g id="Grupo_136194" data-name="Grupo 136194" transform="translate(281.027 417.074)">
        <path id="Trazado_194119" data-name="Trazado 194119" d="M349.746,546.327H235.221a29.083,29.083,0,0,1-25.118-14.5l-57.263-99.181a29.084,29.084,0,0,1,0-29L210.1,304.46a29.081,29.081,0,0,1,25.118-14.5H349.746a29.081,29.081,0,0,1,25.118,14.5l57.262,99.181a29.084,29.084,0,0,1,0,29l-57.262,99.181A29.084,29.084,0,0,1,349.746,546.327ZM235.221,294.672a24.355,24.355,0,0,0-21.036,12.145L156.923,406a24.355,24.355,0,0,0,0,24.289l57.262,99.181a24.36,24.36,0,0,0,21.036,12.146H349.746a24.36,24.36,0,0,0,21.036-12.146l57.262-99.181a24.355,24.355,0,0,0,0-24.289l-57.262-99.181a24.355,24.355,0,0,0-21.036-12.145Z" transform="translate(-148.968 -289.958)" fill="#b13e8d"/>
      </g>
      <path id="Trazado_194112" data-name="Trazado 194112" d="M541.576,300.725h-91.82a26.649,26.649,0,0,0-23.077,13.324L380.77,393.568a26.643,26.643,0,0,0,0,26.648l45.909,79.519a26.649,26.649,0,0,0,23.077,13.324h91.82a26.646,26.646,0,0,0,23.077-13.324l45.911-79.519a26.654,26.654,0,0,0,0-26.648l-45.911-79.519A26.646,26.646,0,0,0,541.576,300.725Z" transform="translate(441.762 141.727)" fill="url(#linear-gradient)"/>
      <path id="Trazado_194113" data-name="Trazado 194113" d="M533.223,304.022h-85.1a24.7,24.7,0,0,0-21.387,12.35l-42.55,73.7a24.693,24.693,0,0,0,0,24.7l42.55,73.7a24.7,24.7,0,0,0,21.387,12.351h85.1a24.7,24.7,0,0,0,21.389-12.351l42.55-73.7a24.693,24.693,0,0,0,0-24.7l-42.55-73.7A24.7,24.7,0,0,0,533.223,304.022Z" transform="translate(446.754 146.201)" fill="url(#linear-gradient-2)"/>
      <g id="Grupo_136192" data-name="Grupo 136192" transform="translate(793.912 420.433)">
        <path id="Trazado_194114" data-name="Trazado 194114" d="M567.35,547.752H452.825a29.081,29.081,0,0,1-25.118-14.5l-57.262-99.181a29.088,29.088,0,0,1,0-29l57.262-99.181a29.084,29.084,0,0,1,25.118-14.5H567.35a29.084,29.084,0,0,1,25.118,14.5l57.263,99.181a29.1,29.1,0,0,1,0,29l-57.263,99.181A29.082,29.082,0,0,1,567.35,547.752ZM452.825,296.1a24.36,24.36,0,0,0-21.036,12.146l-57.262,99.181a24.36,24.36,0,0,0,0,24.291L431.79,530.9a24.358,24.358,0,0,0,21.036,12.143H567.35A24.358,24.358,0,0,0,588.386,530.9l57.262-99.181a24.371,24.371,0,0,0,0-24.291l-57.262-99.181A24.36,24.36,0,0,0,567.35,296.1Z" transform="translate(-366.572 -291.383)" fill="#ae4688"/>
      </g>
      <g id="Grupo_136193" data-name="Grupo 136193" transform="translate(463.728 450.289)">
        <path id="Trazado_194115" data-name="Trazado 194115" d="M476.476,327.452l-23.5-23.4L436.012,322.3,401.98,358.913a5.1,5.1,0,0,0,3.83,8.563l26.226-.5c-6.691,23.768-21.573,44.488-48.4,55.733-51.841,21.731-97.668-13.065-123.269-52.874l-33.712,21.677c43.22,67.211,110.919,93.965,172.476,68.161C438.9,443,464.8,409.1,473.417,366.175l29.137-.561a5.1,5.1,0,0,0,3.5-8.7Z" transform="translate(-226.254 -304.05)" opacity="0.8" fill="url(#linear-gradient-3)" style="mix-blend-mode: multiply;isolation: isolate"/>
        <path id="Trazado_194116" data-name="Trazado 194116" d="M476.307,329.984l-23.5-23.4-16.965,18.252-34.032,36.613a5.1,5.1,0,0,0,3.83,8.563l26.226-.5c-6.691,23.765-21.573,44.485-48.4,55.733-51.841,21.731-97.668-13.065-123.269-52.876l-33.712,21.679C269.7,461.248,337.4,488,398.959,462.2c39.776-16.673,65.674-50.573,74.289-93.494l29.137-.561a5.1,5.1,0,0,0,3.5-8.707Z" transform="translate(-226.483 -300.618)" fill="url(#linear-gradient-4)"/>
      </g>
      <path id="Trazado_194117" data-name="Trazado 194117" d="M323.972,299.3H232.154a26.65,26.65,0,0,0-23.079,13.324l-45.909,79.517a26.643,26.643,0,0,0,0,26.648l45.909,79.519a26.65,26.65,0,0,0,23.079,13.324h91.818a26.65,26.65,0,0,0,23.079-13.324l45.909-79.519a26.643,26.643,0,0,0,0-26.648l-45.909-79.517A26.65,26.65,0,0,0,323.972,299.3Z" transform="translate(146.481 139.793)" fill="url(#linear-gradient-5)"/>
      <path id="Trazado_194118" data-name="Trazado 194118" d="M314.157,303.174H230.235a24.357,24.357,0,0,0-21.092,12.178l-41.961,72.679a24.353,24.353,0,0,0,0,24.355l41.961,72.679a24.357,24.357,0,0,0,21.092,12.178h83.922a24.357,24.357,0,0,0,21.092-12.178l41.961-72.679a24.352,24.352,0,0,0,0-24.355L335.25,315.352A24.357,24.357,0,0,0,314.157,303.174Z" transform="translate(152.347 145.05)" fill="url(#linear-gradient-6)"/>
      <g id="Grupo_136195" data-name="Grupo 136195" transform="translate(204.54 250.902)">
        <path id="Trazado_194120" data-name="Trazado 194120" d="M366.509,363.89l-23.5,23.4-16.963-18.25L292.013,332.43a5.1,5.1,0,0,1,3.83-8.563l26.226.5c-6.689-23.768-21.573-44.488-48.4-55.733C221.824,246.907,176,281.7,150.4,321.512l-33.714-21.677c43.22-67.211,110.921-93.965,172.476-68.161,39.776,16.673,65.677,50.573,74.289,93.494l29.137.561a5.1,5.1,0,0,1,3.5,8.7Z" transform="translate(-116.287 -216.023)" opacity="0.8" fill="url(#linear-gradient-7)" style="mix-blend-mode: multiply;isolation: isolate"/>
        <path id="Trazado_194121" data-name="Trazado 194121" d="M366.34,361.36l-23.5,23.4-16.965-18.252L291.843,329.9a5.1,5.1,0,0,1,3.83-8.563l26.226.5c-6.689-23.765-21.573-44.485-48.4-55.733-51.841-21.731-97.668,13.065-123.267,52.876L116.516,297.3c43.22-67.209,110.921-93.965,172.476-68.161,39.776,16.673,65.677,50.573,74.289,93.494l29.137.561a5.1,5.1,0,0,1,3.5,8.707Z" transform="translate(-116.516 -219.455)" fill="url(#linear-gradient-8)"/>
      </g>
      <g id="Grupo_136196" data-name="Grupo 136196" transform="translate(710.844 250.902)">
        <path id="Trazado_194122" data-name="Trazado 194122" d="M581.321,363.89l-23.5,23.4-16.966-18.25L506.825,332.43a5.1,5.1,0,0,1,3.83-8.563l26.226.5c-6.689-23.768-21.573-44.488-48.4-55.733-51.841-21.731-97.668,13.065-123.269,52.874L331.5,299.835c43.22-67.211,110.919-93.965,172.476-68.161,39.776,16.673,65.674,50.573,74.289,93.494l29.137.561a5.1,5.1,0,0,1,3.5,8.7Z" transform="translate(-331.099 -216.023)" opacity="0.8" fill="url(#linear-gradient-9)" style="mix-blend-mode: multiply;isolation: isolate"/>
        <path id="Trazado_194123" data-name="Trazado 194123" d="M581.152,361.36l-23.5,23.4-16.966-18.252L506.656,329.9a5.1,5.1,0,0,1,3.83-8.563l26.226.5c-6.689-23.765-21.573-44.485-48.4-55.733-51.841-21.731-97.668,13.065-123.269,52.876L331.328,297.3C374.548,230.1,442.247,203.34,503.8,229.144c39.776,16.673,65.674,50.573,74.289,93.494l29.137.561a5.1,5.1,0,0,1,3.5,8.707Z" transform="translate(-331.328 -219.455)" fill="url(#linear-gradient-10)"/>
      </g>
      <path id="Trazado_194124" data-name="Trazado 194124" d="M226.652,205.623H134.834a26.643,26.643,0,0,0-23.077,13.324L65.846,298.466a26.644,26.644,0,0,0,0,26.648l45.911,79.517a26.643,26.643,0,0,0,23.077,13.324h91.818a26.65,26.65,0,0,0,23.079-13.324l45.909-79.517a26.644,26.644,0,0,0,0-26.648l-45.909-79.519A26.65,26.65,0,0,0,226.652,205.623Z" transform="translate(14.421 12.677)" fill="url(#linear-gradient-11)"/>
      <path id="Trazado_194125" data-name="Trazado 194125" d="M215.564,210h-82.9a24.054,24.054,0,0,0-20.836,12.03l-41.45,71.791a24.061,24.061,0,0,0,0,24.057l41.45,71.793A24.057,24.057,0,0,0,132.667,401.7h82.9A24.06,24.06,0,0,0,236.4,389.671l41.447-71.793a24.05,24.05,0,0,0,0-24.057L236.4,222.03A24.057,24.057,0,0,0,215.564,210Z" transform="translate(21.049 18.616)" fill="url(#linear-gradient-12)"/>
      <path id="Trazado_194128" data-name="Trazado 194128" d="M436.712,205.623h-91.82a26.649,26.649,0,0,0-23.077,13.324l-45.909,79.519a26.643,26.643,0,0,0,0,26.648l45.909,79.517a26.649,26.649,0,0,0,23.077,13.324h91.82a26.646,26.646,0,0,0,23.077-13.324L505.7,325.114a26.655,26.655,0,0,0,0-26.648l-45.911-79.519A26.646,26.646,0,0,0,436.712,205.623Z" transform="translate(299.465 12.677)" fill="url(#linear-gradient-13)"/>
      <path id="Trazado_194129" data-name="Trazado 194129" d="M425.623,210h-82.9a24.054,24.054,0,0,0-20.836,12.03l-41.45,71.791a24.061,24.061,0,0,0,0,24.057l41.45,71.793A24.057,24.057,0,0,0,342.726,401.7h82.9a24.057,24.057,0,0,0,20.836-12.028l41.45-71.793a24.061,24.061,0,0,0,0-24.057l-41.45-71.791A24.054,24.054,0,0,0,425.623,210Z" transform="translate(306.092 18.616)" fill="url(#linear-gradient-14)"/>
    </g>
    <path id="Trazado_195094" data-name="Trazado 195094" d="M32.879,11.211A4.025,4.025,0,0,1,31.523,14.1,4.76,4.76,0,0,1,28.3,15.156a4.28,4.28,0,0,1-3.441-1.473,6.038,6.038,0,0,1-1.254-4.043v-.7a6.819,6.819,0,0,1,.578-2.891,4.332,4.332,0,0,1,1.652-1.918,4.629,4.629,0,0,1,2.5-.668A4.637,4.637,0,0,1,31.5,4.523a4.326,4.326,0,0,1,1.391,2.961H30.551a2.376,2.376,0,0,0-.613-1.6,2.271,2.271,0,0,0-1.605-.5,1.991,1.991,0,0,0-1.754.84,4.707,4.707,0,0,0-.6,2.605V9.7a5.038,5.038,0,0,0,.559,2.7,1.954,1.954,0,0,0,1.762.852,2.314,2.314,0,0,0,1.621-.5,2.241,2.241,0,0,0,.613-1.535Zm1.039-.516A5.013,5.013,0,0,1,34.4,8.453,3.546,3.546,0,0,1,35.8,6.93a4.069,4.069,0,0,1,2.113-.539A3.849,3.849,0,0,1,40.7,7.438a4.2,4.2,0,0,1,1.207,2.844l.016.578A4.418,4.418,0,0,1,40.84,13.98a4.209,4.209,0,0,1-5.832,0,4.5,4.5,0,0,1-1.09-3.187Zm2.258.16a3.16,3.16,0,0,0,.453,1.843,1.628,1.628,0,0,0,2.578.008,3.457,3.457,0,0,0,.461-2.015,3.128,3.128,0,0,0-.461-1.831,1.5,1.5,0,0,0-1.3-.649,1.474,1.474,0,0,0-1.281.646A3.516,3.516,0,0,0,36.176,10.856Zm9.219-4.309.07.977a2.951,2.951,0,0,1,2.43-1.133,2.453,2.453,0,0,1,2,.789,3.682,3.682,0,0,1,.672,2.359V15H48.309V9.581A1.47,1.47,0,0,0,48,8.536a1.4,1.4,0,0,0-1.039-.325,1.553,1.553,0,0,0-1.43.814V15H43.27V6.547ZM52.824,15V8.2H51.566V6.547h1.258V6.156A3.17,3.17,0,0,1,53.8,3.7a3.945,3.945,0,0,1,2.723-.863A9.031,9.031,0,0,1,59.09,3.3l-.328,1.867a10,10,0,0,0-1.187-.293,5.835,5.835,0,0,0-.906-.066q-1.578,0-1.578,1.4v.344h1.664V8.2H55.09V15Zm7.32,0H57.879V6.547h2.266Zm6.766,0a2.507,2.507,0,0,1-.227-.758,2.732,2.732,0,0,1-2.133.914,3,3,0,0,1-2.059-.719,2.312,2.312,0,0,1-.816-1.812,2.389,2.389,0,0,1,1-2.062,4.915,4.915,0,0,1,2.879-.727H66.59V9.352a1.393,1.393,0,0,0-.3-.937,1.183,1.183,0,0,0-.949-.352,1.345,1.345,0,0,0-.895.273.929.929,0,0,0-.324.75H61.863a2.268,2.268,0,0,1,.453-1.359,3,3,0,0,1,1.281-.98,4.669,4.669,0,0,1,1.859-.355,3.689,3.689,0,0,1,2.48.785,2.747,2.747,0,0,1,.918,2.207v3.664a4.041,4.041,0,0,0,.336,1.82V15Zm-1.867-1.57a1.945,1.945,0,0,0,.922-.223,1.462,1.462,0,0,0,.625-.6V11.156h-.844q-1.7,0-1.8,1.172l-.008.133a.9.9,0,0,0,.3.7A1.153,1.153,0,0,0,65.043,13.43Zm13.164-2.578a5.119,5.119,0,0,1-.867,3.168,2.872,2.872,0,0,1-2.422,1.137,2.639,2.639,0,0,1-2.2-1.055l-.1.9H70.59V3h2.258V7.3A2.571,2.571,0,0,1,74.9,6.391a2.9,2.9,0,0,1,2.426,1.137,5.126,5.126,0,0,1,.879,3.2Zm-2.258-.172A3.381,3.381,0,0,0,75.543,8.8a1.372,1.372,0,0,0-1.211-.592,1.489,1.489,0,0,0-1.484.885v3.346a1.509,1.509,0,0,0,1.5.893,1.4,1.4,0,0,0,1.438-1.081A5.6,5.6,0,0,0,75.949,10.679ZM81.98,15H79.715V6.547H81.98Zm-2.4-10.641a1.112,1.112,0,0,1,.34-.836,1.465,1.465,0,0,1,1.848,0,1.105,1.105,0,0,1,.344.836,1.108,1.108,0,0,1-.348.844,1.448,1.448,0,0,1-1.836,0A1.108,1.108,0,0,1,79.582,4.359ZM86.223,15H83.957V3h2.266Zm4.242,0H88.2V6.547h2.266Zm-2.4-10.641a1.112,1.112,0,0,1,.34-.836,1.465,1.465,0,0,1,1.848,0,1.105,1.105,0,0,1,.344.836,1.108,1.108,0,0,1-.348.844,1.448,1.448,0,0,1-1.836,0A1.108,1.108,0,0,1,88.066,4.359Zm3.906,6.352a5.094,5.094,0,0,1,.887-3.148,2.877,2.877,0,0,1,2.426-1.172,2.589,2.589,0,0,1,2.039.922V3H99.59V15H97.551l-.109-.9a2.657,2.657,0,0,1-2.172,1.055,2.869,2.869,0,0,1-2.395-1.176A5.258,5.258,0,0,1,91.973,10.711Zm2.258.161a3.355,3.355,0,0,0,.414,1.829,1.348,1.348,0,0,0,1.2.636,1.51,1.51,0,0,0,1.477-.887V9.1a1.489,1.489,0,0,0-1.461-.887Q94.23,8.211,94.23,10.872ZM106.238,15a2.507,2.507,0,0,1-.227-.758,2.732,2.732,0,0,1-2.133.914,3,3,0,0,1-2.059-.719A2.312,2.312,0,0,1,101,12.625a2.389,2.389,0,0,1,1-2.062,4.915,4.915,0,0,1,2.879-.727h1.039V9.352a1.393,1.393,0,0,0-.3-.937,1.183,1.183,0,0,0-.949-.352,1.345,1.345,0,0,0-.895.273.929.929,0,0,0-.324.75h-2.258a2.268,2.268,0,0,1,.453-1.359,3,3,0,0,1,1.281-.98,4.669,4.669,0,0,1,1.859-.355,3.689,3.689,0,0,1,2.48.785,2.747,2.747,0,0,1,.918,2.207v3.664a4.041,4.041,0,0,0,.336,1.82V15Zm-1.867-1.57a1.945,1.945,0,0,0,.922-.223,1.462,1.462,0,0,0,.625-.6V11.156h-.844q-1.7,0-1.8,1.172l-.008.133a.9.9,0,0,0,.3.7A1.153,1.153,0,0,0,104.371,13.43Zm5.2-2.719a5.094,5.094,0,0,1,.887-3.148,2.877,2.877,0,0,1,2.426-1.172,2.589,2.589,0,0,1,2.039.922V3h2.266V15h-2.039l-.109-.9a2.657,2.657,0,0,1-2.172,1.055,2.869,2.869,0,0,1-2.395-1.176A5.258,5.258,0,0,1,109.566,10.711Zm2.258.161a3.355,3.355,0,0,0,.414,1.829,1.348,1.348,0,0,0,1.2.636,1.51,1.51,0,0,0,1.477-.887V9.1a1.489,1.489,0,0,0-1.461-.887Q111.824,8.211,111.824,10.872ZM8.367,34.711a5.094,5.094,0,0,1,.887-3.148,2.877,2.877,0,0,1,2.426-1.172,2.589,2.589,0,0,1,2.039.922V27h2.266V39H13.945l-.109-.9a2.657,2.657,0,0,1-2.172,1.055A2.869,2.869,0,0,1,9.27,37.98,5.258,5.258,0,0,1,8.367,34.711Zm2.258.161a3.355,3.355,0,0,0,.414,1.829,1.348,1.348,0,0,0,1.2.636,1.51,1.51,0,0,0,1.477-.887V33.1a1.489,1.489,0,0,0-1.461-.887Q10.625,32.211,10.625,34.872Zm11,4.285A4.15,4.15,0,0,1,18.6,38.016a4.054,4.054,0,0,1-1.168-3.039v-.219a5.106,5.106,0,0,1,.492-2.277,3.612,3.612,0,0,1,1.395-1.547,3.914,3.914,0,0,1,2.059-.543,3.508,3.508,0,0,1,2.73,1.094,4.444,4.444,0,0,1,1,3.1v.922H19.719a2.1,2.1,0,0,0,.66,1.328,2,2,0,0,0,1.395.5,2.437,2.437,0,0,0,2.039-.945l1.109,1.242a3.389,3.389,0,0,1-1.375,1.121A4.511,4.511,0,0,1,21.625,39.156Zm-.258-6.945a1.411,1.411,0,0,0-1.09.455,2.357,2.357,0,0,0-.535,1.3h3.141v-.181a1.681,1.681,0,0,0-.406-1.165A1.456,1.456,0,0,0,21.367,32.211ZM32.75,39H30.484V27H32.75Zm6.758,0a2.507,2.507,0,0,1-.227-.758,2.732,2.732,0,0,1-2.133.914,3,3,0,0,1-2.059-.719,2.312,2.312,0,0,1-.816-1.812,2.389,2.389,0,0,1,1-2.062,4.915,4.915,0,0,1,2.879-.727h1.039v-.484a1.393,1.393,0,0,0-.3-.937,1.183,1.183,0,0,0-.949-.352,1.345,1.345,0,0,0-.895.273.929.929,0,0,0-.324.75H34.461a2.268,2.268,0,0,1,.453-1.359,3,3,0,0,1,1.281-.98,4.669,4.669,0,0,1,1.859-.355,3.689,3.689,0,0,1,2.48.785,2.747,2.747,0,0,1,.918,2.207v3.664a4.041,4.041,0,0,0,.336,1.82V39Zm-1.867-1.57a1.945,1.945,0,0,0,.922-.223,1.462,1.462,0,0,0,.625-.6V35.156h-.844q-1.7,0-1.8,1.172l-.008.133a.9.9,0,0,0,.3.7A1.153,1.153,0,0,0,37.641,37.43ZM49.555,39H47.289V30.547h2.266Zm-2.4-10.641a1.112,1.112,0,0,1,.34-.836,1.465,1.465,0,0,1,1.848,0,1.193,1.193,0,0,1,0,1.68,1.448,1.448,0,0,1-1.836,0A1.108,1.108,0,0,1,47.156,28.359Zm6.336,2.188.07.977a2.951,2.951,0,0,1,2.43-1.133,2.453,2.453,0,0,1,2,.789,3.682,3.682,0,0,1,.672,2.359V39H56.406V33.581a1.47,1.47,0,0,0-.312-1.045,1.4,1.4,0,0,0-1.039-.325,1.553,1.553,0,0,0-1.43.814V39H51.367V30.547ZM60.992,39V32.2H59.734V30.547h1.258v-.719a2.918,2.918,0,0,1,.816-2.207,3.162,3.162,0,0,1,2.285-.785,5.321,5.321,0,0,1,1.148.155l-.023,1.736a2.878,2.878,0,0,0-.687-.07q-1.273,0-1.273,1.205v.685h1.68V32.2h-1.68V39Zm4.766-4.3a5.013,5.013,0,0,1,.484-2.242,3.546,3.546,0,0,1,1.395-1.523,4.069,4.069,0,0,1,2.113-.539,3.849,3.849,0,0,1,2.793,1.047,4.2,4.2,0,0,1,1.207,2.844l.016.578A4.418,4.418,0,0,1,72.68,37.98a4.209,4.209,0,0,1-5.832,0,4.5,4.5,0,0,1-1.09-3.187Zm2.258.16a3.16,3.16,0,0,0,.453,1.843,1.628,1.628,0,0,0,2.578.008,3.457,3.457,0,0,0,.461-2.015,3.128,3.128,0,0,0-.461-1.831,1.5,1.5,0,0,0-1.3-.649,1.474,1.474,0,0,0-1.281.646A3.516,3.516,0,0,0,68.016,34.856Zm11.891-2.192a6.134,6.134,0,0,0-.812-.062,1.654,1.654,0,0,0-1.68.867V39H75.156V30.547h2.133l.063,1.008a2.092,2.092,0,0,1,1.883-1.164,2.366,2.366,0,0,1,.7.1Zm3.2-2.117.07.945a2.971,2.971,0,0,1,2.43-1.1,2.255,2.255,0,0,1,2.242,1.289,2.9,2.9,0,0,1,2.539-1.289,2.521,2.521,0,0,1,2.047.8,3.681,3.681,0,0,1,.672,2.41V39H90.844V33.6a1.616,1.616,0,0,0-.281-1.053,1.245,1.245,0,0,0-.992-.333,1.409,1.409,0,0,0-1.406.971L88.172,39H85.914V33.6a1.6,1.6,0,0,0-.289-1.065,1.257,1.257,0,0,0-.984-.329,1.463,1.463,0,0,0-1.391.8V39H80.992V30.547ZM99.742,39a2.507,2.507,0,0,1-.227-.758,2.732,2.732,0,0,1-2.133.914,3,3,0,0,1-2.059-.719,2.312,2.312,0,0,1-.816-1.812,2.389,2.389,0,0,1,1-2.062,4.915,4.915,0,0,1,2.879-.727h1.039v-.484a1.393,1.393,0,0,0-.3-.937,1.183,1.183,0,0,0-.949-.352,1.345,1.345,0,0,0-.895.273.929.929,0,0,0-.324.75H94.7a2.268,2.268,0,0,1,.453-1.359,3,3,0,0,1,1.281-.98,4.669,4.669,0,0,1,1.859-.355,3.689,3.689,0,0,1,2.48.785,2.747,2.747,0,0,1,.918,2.207v3.664a4.041,4.041,0,0,0,.336,1.82V39Zm-1.867-1.57a1.945,1.945,0,0,0,.922-.223,1.462,1.462,0,0,0,.625-.6V35.156h-.844q-1.7,0-1.8,1.172l-.008.133a.9.9,0,0,0,.3.7A1.153,1.153,0,0,0,97.875,37.43Zm9.063-.094a1.481,1.481,0,0,0,1.016-.344,1.2,1.2,0,0,0,.406-.914h2.117a2.9,2.9,0,0,1-.469,1.574,3.093,3.093,0,0,1-1.262,1.109,3.949,3.949,0,0,1-1.77.395A3.67,3.67,0,0,1,104.117,38a4.56,4.56,0,0,1-1.047-3.184v-.148a4.508,4.508,0,0,1,1.039-3.117,3.627,3.627,0,0,1,2.852-1.164,3.555,3.555,0,0,1,2.543.9,3.2,3.2,0,0,1,.973,2.4h-2.117a1.551,1.551,0,0,0-.406-1.072,1.51,1.51,0,0,0-2.223.163,3.333,3.333,0,0,0-.4,1.866v.235a3.375,3.375,0,0,0,.4,1.878A1.377,1.377,0,0,0,106.938,37.336ZM114.148,39h-2.266V30.547h2.266Zm-2.4-10.641a1.112,1.112,0,0,1,.34-.836,1.465,1.465,0,0,1,1.848,0,1.193,1.193,0,0,1,0,1.68,1.448,1.448,0,0,1-1.836,0A1.108,1.108,0,0,1,111.75,28.359Zm3.906,6.336a5.013,5.013,0,0,1,.484-2.242,3.546,3.546,0,0,1,1.395-1.523,4.069,4.069,0,0,1,2.113-.539,3.849,3.849,0,0,1,2.793,1.047,4.2,4.2,0,0,1,1.207,2.844l.016.578a4.418,4.418,0,0,1-1.086,3.121,4.209,4.209,0,0,1-5.832,0,4.5,4.5,0,0,1-1.09-3.187Zm2.258.16a3.16,3.16,0,0,0,.453,1.843,1.628,1.628,0,0,0,2.578.008,3.457,3.457,0,0,0,.461-2.015,3.128,3.128,0,0,0-.461-1.831,1.5,1.5,0,0,0-1.3-.649,1.474,1.474,0,0,0-1.281.646A3.516,3.516,0,0,0,117.914,34.856ZM120.094,27h2.461l-2.164,2.422h-1.836Zm7.039,3.547.07.977a2.951,2.951,0,0,1,2.43-1.133,2.453,2.453,0,0,1,2,.789,3.682,3.682,0,0,1,.672,2.359V39h-2.258V33.581a1.47,1.47,0,0,0-.312-1.045,1.4,1.4,0,0,0-1.039-.325,1.553,1.553,0,0,0-1.43.814V39h-2.258V30.547Z" transform="translate(359 2730)" fill="#12263f"/>
    <path id="Trazado_195095" data-name="Trazado 195095" d="M5.82,3.625l2.922,8.25,2.906-8.25h3.078V15H12.375V11.891l.234-5.367L9.539,15H7.93L4.867,6.531,5.1,11.891V15H2.758V3.625Zm14.7,11.531a4.15,4.15,0,0,1-3.027-1.141,4.054,4.054,0,0,1-1.168-3.039v-.219a5.106,5.106,0,0,1,.492-2.277,3.612,3.612,0,0,1,1.395-1.547,3.914,3.914,0,0,1,2.059-.543A3.508,3.508,0,0,1,23,7.484a4.444,4.444,0,0,1,1,3.1v.922H18.609a2.1,2.1,0,0,0,.66,1.328,2,2,0,0,0,1.395.5,2.437,2.437,0,0,0,2.039-.945l1.109,1.242a3.389,3.389,0,0,1-1.375,1.121A4.511,4.511,0,0,1,20.516,15.156Zm-.258-6.945a1.411,1.411,0,0,0-1.09.455,2.357,2.357,0,0,0-.535,1.3h3.141V9.788a1.681,1.681,0,0,0-.406-1.165A1.456,1.456,0,0,0,20.258,8.211Zm4.664,2.5a5.094,5.094,0,0,1,.887-3.148,2.877,2.877,0,0,1,2.426-1.172,2.589,2.589,0,0,1,2.039.922V3h2.266V15H30.5l-.109-.9a2.657,2.657,0,0,1-2.172,1.055,2.869,2.869,0,0,1-2.395-1.176A5.258,5.258,0,0,1,24.922,10.711Zm2.258.161a3.355,3.355,0,0,0,.414,1.829,1.348,1.348,0,0,0,1.2.636,1.51,1.51,0,0,0,1.477-.887V9.1a1.489,1.489,0,0,0-1.461-.887Q27.18,8.211,27.18,10.872ZM36.672,15H34.406V6.547h2.266Zm-2.4-10.641a1.112,1.112,0,0,1,.34-.836,1.465,1.465,0,0,1,1.848,0,1.105,1.105,0,0,1,.344.836,1.108,1.108,0,0,1-.348.844,1.448,1.448,0,0,1-1.836,0A1.108,1.108,0,0,1,34.273,4.359Zm11.875,6.492a5.119,5.119,0,0,1-.867,3.168,2.872,2.872,0,0,1-2.422,1.137,2.639,2.639,0,0,1-2.2-1.055l-.1.9H38.531V3h2.258V7.3a2.571,2.571,0,0,1,2.055-.914A2.9,2.9,0,0,1,45.27,7.527a5.126,5.126,0,0,1,.879,3.2Zm-2.258-.172A3.381,3.381,0,0,0,43.484,8.8a1.372,1.372,0,0,0-1.211-.592,1.489,1.489,0,0,0-1.484.885v3.346a1.509,1.509,0,0,0,1.5.893,1.4,1.4,0,0,0,1.438-1.081A5.6,5.6,0,0,0,43.891,10.679ZM49.922,15H47.656V3h2.266Zm5.75.156a4.15,4.15,0,0,1-3.027-1.141,4.054,4.054,0,0,1-1.168-3.039v-.219a5.106,5.106,0,0,1,.492-2.277,3.612,3.612,0,0,1,1.395-1.547,3.914,3.914,0,0,1,2.059-.543,3.508,3.508,0,0,1,2.73,1.094,4.444,4.444,0,0,1,1,3.1v.922H53.766a2.1,2.1,0,0,0,.66,1.328,2,2,0,0,0,1.395.5,2.437,2.437,0,0,0,2.039-.945l1.109,1.242a3.389,3.389,0,0,1-1.375,1.121A4.511,4.511,0,0,1,55.672,15.156Zm-.258-6.945a1.411,1.411,0,0,0-1.09.455,2.357,2.357,0,0,0-.535,1.3H56.93V9.788a1.681,1.681,0,0,0-.406-1.165A1.456,1.456,0,0,0,55.414,8.211Zm9.594,4.453a.727.727,0,0,0-.41-.652,4.659,4.659,0,0,0-1.316-.426q-3.016-.633-3.016-2.562A2.323,2.323,0,0,1,61.2,7.145a3.766,3.766,0,0,1,2.441-.754,4.053,4.053,0,0,1,2.574.758,2.388,2.388,0,0,1,.965,1.969H64.922a1.092,1.092,0,0,0-.312-.8A1.322,1.322,0,0,0,63.633,8a1.351,1.351,0,0,0-.883.258.814.814,0,0,0-.312.656.7.7,0,0,0,.355.605,3.657,3.657,0,0,0,1.2.4,9.8,9.8,0,0,1,1.422.379A2.336,2.336,0,0,1,67.2,12.57a2.2,2.2,0,0,1-.992,1.871,4.28,4.28,0,0,1-2.562.715,4.47,4.47,0,0,1-1.887-.379,3.166,3.166,0,0,1-1.293-1.039A2.414,2.414,0,0,1,60,12.313h2.141a1.179,1.179,0,0,0,.445.922,1.766,1.766,0,0,0,1.109.32,1.635,1.635,0,0,0,.98-.246A.766.766,0,0,0,65.008,12.664Zm11.523,2.492A4.15,4.15,0,0,1,73.5,14.016a4.054,4.054,0,0,1-1.168-3.039v-.219a5.106,5.106,0,0,1,.492-2.277,3.612,3.612,0,0,1,1.395-1.547,3.914,3.914,0,0,1,2.059-.543,3.508,3.508,0,0,1,2.73,1.094,4.444,4.444,0,0,1,1,3.1v.922H74.625a2.1,2.1,0,0,0,.66,1.328,2,2,0,0,0,1.395.5,2.437,2.437,0,0,0,2.039-.945l1.109,1.242a3.389,3.389,0,0,1-1.375,1.121A4.511,4.511,0,0,1,76.531,15.156Zm-.258-6.945a1.411,1.411,0,0,0-1.09.455,2.357,2.357,0,0,0-.535,1.3h3.141V9.788a1.681,1.681,0,0,0-.406-1.165A1.456,1.456,0,0,0,76.273,8.211Zm7.094-1.664.07.977a2.951,2.951,0,0,1,2.43-1.133,2.453,2.453,0,0,1,2,.789,3.682,3.682,0,0,1,.672,2.359V15H86.281V9.581a1.47,1.47,0,0,0-.312-1.045,1.4,1.4,0,0,0-1.039-.325,1.553,1.553,0,0,0-1.43.814V15H81.242V6.547Zm14.758,8.609A4.15,4.15,0,0,1,95.1,14.016a4.054,4.054,0,0,1-1.168-3.039v-.219a5.106,5.106,0,0,1,.492-2.277,3.612,3.612,0,0,1,1.395-1.547,3.914,3.914,0,0,1,2.059-.543,3.508,3.508,0,0,1,2.73,1.094,4.444,4.444,0,0,1,1,3.1v.922H96.219a2.1,2.1,0,0,0,.66,1.328,2,2,0,0,0,1.395.5,2.437,2.437,0,0,0,2.039-.945l1.109,1.242a3.389,3.389,0,0,1-1.375,1.121A4.511,4.511,0,0,1,98.125,15.156Zm-.258-6.945a1.411,1.411,0,0,0-1.09.455,2.357,2.357,0,0,0-.535,1.3h3.141V9.788a1.681,1.681,0,0,0-.406-1.165A1.456,1.456,0,0,0,97.867,8.211Zm7.4,6.789H103V3h2.266Zm-72.8,13.469v2.078h1.445V32.2H32.469v4.219a1.007,1.007,0,0,0,.18.672.9.9,0,0,0,.688.2A3.6,3.6,0,0,0,34,37.242v1.711a4.648,4.648,0,0,1-1.367.2,2.156,2.156,0,0,1-2.422-2.4V32.2H28.977V30.547h1.234V28.469ZM37.555,39H35.289V30.547h2.266Zm-2.4-10.641a1.112,1.112,0,0,1,.34-.836,1.465,1.465,0,0,1,1.848,0,1.193,1.193,0,0,1,0,1.68,1.448,1.448,0,0,1-1.836,0A1.108,1.108,0,0,1,35.156,28.359Zm8.148,10.8a4.15,4.15,0,0,1-3.027-1.141,4.054,4.054,0,0,1-1.168-3.039v-.219A5.106,5.106,0,0,1,39.6,32.48,3.612,3.612,0,0,1,41,30.934a3.914,3.914,0,0,1,2.059-.543,3.508,3.508,0,0,1,2.73,1.094,4.444,4.444,0,0,1,1,3.1v.922H41.4a2.1,2.1,0,0,0,.66,1.328,2,2,0,0,0,1.395.5,2.437,2.437,0,0,0,2.039-.945L46.6,37.633a3.389,3.389,0,0,1-1.375,1.121A4.511,4.511,0,0,1,43.3,39.156Zm-.258-6.945a1.411,1.411,0,0,0-1.09.455,2.357,2.357,0,0,0-.535,1.3h3.141v-.181a1.681,1.681,0,0,0-.406-1.165A1.456,1.456,0,0,0,43.047,32.211Zm7.133-1.664.07.945a2.971,2.971,0,0,1,2.43-1.1,2.255,2.255,0,0,1,2.242,1.289,2.9,2.9,0,0,1,2.539-1.289,2.521,2.521,0,0,1,2.047.8,3.681,3.681,0,0,1,.672,2.41V39H57.914V33.6a1.616,1.616,0,0,0-.281-1.053,1.245,1.245,0,0,0-.992-.333,1.409,1.409,0,0,0-1.406.971L55.242,39H52.984V33.6A1.6,1.6,0,0,0,52.7,32.54a1.257,1.257,0,0,0-.984-.329,1.463,1.463,0,0,0-1.391.8V39H48.063V30.547Zm19.344,4.3a5.07,5.07,0,0,1-.887,3.129,2.843,2.843,0,0,1-2.395,1.176,2.633,2.633,0,0,1-2.07-.891V42.25H61.914v-11.7h2.094l.078.828a2.654,2.654,0,0,1,2.141-.984,2.862,2.862,0,0,1,2.43,1.156,5.207,5.207,0,0,1,.867,3.188Zm-2.258-.172a3.345,3.345,0,0,0-.418-1.826,1.36,1.36,0,0,0-1.215-.643,1.478,1.478,0,0,0-1.461.815V36.5a1.5,1.5,0,0,0,1.477.839Q67.266,37.336,67.266,34.679Zm3.3.016a5.013,5.013,0,0,1,.484-2.242,3.546,3.546,0,0,1,1.395-1.523,4.069,4.069,0,0,1,2.113-.539,3.849,3.849,0,0,1,2.793,1.047,4.2,4.2,0,0,1,1.207,2.844l.016.578a4.418,4.418,0,0,1-1.086,3.121,4.209,4.209,0,0,1-5.832,0A4.5,4.5,0,0,1,70.57,34.8Zm2.258.16a3.16,3.16,0,0,0,.453,1.843,1.628,1.628,0,0,0,2.578.008,3.457,3.457,0,0,0,.461-2.015,3.128,3.128,0,0,0-.461-1.831,1.5,1.5,0,0,0-1.3-.649,1.474,1.474,0,0,0-1.281.646A3.516,3.516,0,0,0,72.828,34.856Z" transform="translate(874 2730)" fill="#12263f"/>
    <path id="Trazado_195096" data-name="Trazado 195096" d="M4.5,10.992V15H2.156V3.625H6.594a5.134,5.134,0,0,1,2.254.469,3.454,3.454,0,0,1,1.5,1.332,3.714,3.714,0,0,1,.523,1.965,3.266,3.266,0,0,1-1.145,2.637,4.767,4.767,0,0,1-3.168.965Zm0-1.9H6.594a2.059,2.059,0,0,0,1.418-.437A1.591,1.591,0,0,0,8.5,7.406a1.876,1.876,0,0,0-.492-1.352,1.839,1.839,0,0,0-1.359-.531H4.5Zm12.578-.43a6.134,6.134,0,0,0-.812-.062,1.654,1.654,0,0,0-1.68.867V15H12.328V6.547h2.133l.063,1.008a2.092,2.092,0,0,1,1.883-1.164,2.366,2.366,0,0,1,.7.1Zm4.828,6.492a4.15,4.15,0,0,1-3.027-1.141,4.054,4.054,0,0,1-1.168-3.039v-.219A5.106,5.106,0,0,1,18.2,8.48,3.612,3.612,0,0,1,19.6,6.934a3.914,3.914,0,0,1,2.059-.543,3.508,3.508,0,0,1,2.73,1.094,4.444,4.444,0,0,1,1,3.1v.922H20a2.1,2.1,0,0,0,.66,1.328,2,2,0,0,0,1.395.5,2.437,2.437,0,0,0,2.039-.945L25.2,13.633a3.389,3.389,0,0,1-1.375,1.121A4.511,4.511,0,0,1,21.906,15.156Zm-.258-6.945a1.411,1.411,0,0,0-1.09.455,2.357,2.357,0,0,0-.535,1.3h3.141V9.788a1.681,1.681,0,0,0-.406-1.165A1.456,1.456,0,0,0,21.648,8.211Zm8.531,5.125a1.481,1.481,0,0,0,1.016-.344,1.2,1.2,0,0,0,.406-.914h2.117a2.9,2.9,0,0,1-.469,1.574,3.093,3.093,0,0,1-1.262,1.109,3.949,3.949,0,0,1-1.77.395A3.67,3.67,0,0,1,27.359,14a4.56,4.56,0,0,1-1.047-3.184v-.148a4.508,4.508,0,0,1,1.039-3.117A3.627,3.627,0,0,1,30.2,6.391a3.555,3.555,0,0,1,2.543.9,3.2,3.2,0,0,1,.973,2.4H31.6A1.551,1.551,0,0,0,31.2,8.623a1.51,1.51,0,0,0-2.223.163,3.333,3.333,0,0,0-.4,1.866v.235a3.375,3.375,0,0,0,.4,1.878A1.377,1.377,0,0,0,30.18,13.336ZM37.391,15H35.125V6.547h2.266Zm-2.4-10.641a1.112,1.112,0,0,1,.34-.836,1.465,1.465,0,0,1,1.848,0,1.105,1.105,0,0,1,.344.836,1.108,1.108,0,0,1-.348.844,1.448,1.448,0,0,1-1.836,0A1.108,1.108,0,0,1,34.992,4.359Zm8.836,8.3a.727.727,0,0,0-.41-.652,4.659,4.659,0,0,0-1.316-.426q-3.016-.633-3.016-2.562a2.323,2.323,0,0,1,.934-1.879,3.766,3.766,0,0,1,2.441-.754,4.053,4.053,0,0,1,2.574.758A2.388,2.388,0,0,1,46,9.117H43.742a1.092,1.092,0,0,0-.312-.8A1.322,1.322,0,0,0,42.453,8a1.351,1.351,0,0,0-.883.258.814.814,0,0,0-.312.656.7.7,0,0,0,.355.605,3.657,3.657,0,0,0,1.2.4,9.8,9.8,0,0,1,1.422.379,2.336,2.336,0,0,1,1.789,2.273,2.2,2.2,0,0,1-.992,1.871,4.28,4.28,0,0,1-2.562.715,4.47,4.47,0,0,1-1.887-.379,3.166,3.166,0,0,1-1.293-1.039,2.414,2.414,0,0,1-.469-1.426h2.141a1.179,1.179,0,0,0,.445.922,1.766,1.766,0,0,0,1.109.32,1.635,1.635,0,0,0,.98-.246A.766.766,0,0,0,43.828,12.664ZM49.859,15H47.594V6.547h2.266Zm-2.4-10.641a1.112,1.112,0,0,1,.34-.836,1.465,1.465,0,0,1,1.848,0,1.105,1.105,0,0,1,.344.836,1.108,1.108,0,0,1-.348.844,1.448,1.448,0,0,1-1.836,0A1.108,1.108,0,0,1,47.461,4.359ZM51.367,10.7a5.013,5.013,0,0,1,.484-2.242A3.546,3.546,0,0,1,53.246,6.93a4.069,4.069,0,0,1,2.113-.539,3.849,3.849,0,0,1,2.793,1.047,4.2,4.2,0,0,1,1.207,2.844l.016.578a4.418,4.418,0,0,1-1.086,3.121,4.209,4.209,0,0,1-5.832,0,4.5,4.5,0,0,1-1.09-3.187Zm2.258.16a3.16,3.16,0,0,0,.453,1.843,1.628,1.628,0,0,0,2.578.008,3.457,3.457,0,0,0,.461-2.015,3.128,3.128,0,0,0-.461-1.831,1.5,1.5,0,0,0-1.3-.649,1.474,1.474,0,0,0-1.281.646A3.516,3.516,0,0,0,53.625,10.856ZM55.8,3h2.461L56.1,5.422H54.266Zm7.039,3.547.07.977a2.951,2.951,0,0,1,2.43-1.133,2.453,2.453,0,0,1,2,.789,3.682,3.682,0,0,1,.672,2.359V15H65.758V9.581a1.47,1.47,0,0,0-.312-1.045,1.4,1.4,0,0,0-1.039-.325,1.553,1.553,0,0,0-1.43.814V15H60.719V6.547Z" transform="translate(626 2962)" fill="#12263f"/>
    <path id="Trazado_195097" data-name="Trazado 195097" d="M5.137,10.992V15H2.793V3.625H7.23a5.134,5.134,0,0,1,2.254.469,3.454,3.454,0,0,1,1.5,1.332A3.714,3.714,0,0,1,11.5,7.391a3.266,3.266,0,0,1-1.145,2.637,4.767,4.767,0,0,1-3.168.965Zm0-1.9H7.23a2.059,2.059,0,0,0,1.418-.437,1.591,1.591,0,0,0,.488-1.25,1.876,1.876,0,0,0-.492-1.352,1.839,1.839,0,0,0-1.359-.531H5.137Zm11.617,6.063a4.15,4.15,0,0,1-3.027-1.141,4.054,4.054,0,0,1-1.168-3.039v-.219a5.106,5.106,0,0,1,.492-2.277,3.612,3.612,0,0,1,1.395-1.547A3.914,3.914,0,0,1,16.5,6.391a3.508,3.508,0,0,1,2.73,1.094,4.444,4.444,0,0,1,1,3.1v.922H14.848a2.1,2.1,0,0,0,.66,1.328,2,2,0,0,0,1.395.5,2.437,2.437,0,0,0,2.039-.945l1.109,1.242a3.389,3.389,0,0,1-1.375,1.121A4.511,4.511,0,0,1,16.754,15.156ZM16.5,8.211a1.411,1.411,0,0,0-1.09.455,2.357,2.357,0,0,0-.535,1.3h3.141V9.788a1.681,1.681,0,0,0-.406-1.165A1.456,1.456,0,0,0,16.5,8.211Zm9.766.453a6.134,6.134,0,0,0-.812-.062,1.654,1.654,0,0,0-1.68.867V15H21.512V6.547h2.133l.063,1.008A2.092,2.092,0,0,1,25.59,6.391a2.366,2.366,0,0,1,.7.1ZM29.73,15H27.465V6.547H29.73Zm-2.4-10.641a1.112,1.112,0,0,1,.34-.836,1.465,1.465,0,0,1,1.848,0,1.105,1.105,0,0,1,.344.836,1.108,1.108,0,0,1-.348.844,1.448,1.448,0,0,1-1.836,0A1.108,1.108,0,0,1,27.332,4.359ZM31.238,10.7a5.013,5.013,0,0,1,.484-2.242A3.546,3.546,0,0,1,33.117,6.93a4.069,4.069,0,0,1,2.113-.539,3.849,3.849,0,0,1,2.793,1.047,4.2,4.2,0,0,1,1.207,2.844l.016.578A4.418,4.418,0,0,1,38.16,13.98a4.209,4.209,0,0,1-5.832,0,4.5,4.5,0,0,1-1.09-3.187Zm2.258.16a3.16,3.16,0,0,0,.453,1.843,1.628,1.628,0,0,0,2.578.008,3.457,3.457,0,0,0,.461-2.015,3.128,3.128,0,0,0-.461-1.831,1.5,1.5,0,0,0-1.3-.649,1.474,1.474,0,0,0-1.281.646A3.516,3.516,0,0,0,33.5,10.856Zm6.789-.145a5.094,5.094,0,0,1,.887-3.148A2.877,2.877,0,0,1,43.6,6.391a2.589,2.589,0,0,1,2.039.922V3H47.9V15H45.863l-.109-.9a2.657,2.657,0,0,1-2.172,1.055,2.869,2.869,0,0,1-2.395-1.176A5.258,5.258,0,0,1,40.285,10.711Zm2.258.161a3.355,3.355,0,0,0,.414,1.829,1.348,1.348,0,0,0,1.2.636,1.51,1.51,0,0,0,1.477-.887V9.1a1.489,1.489,0,0,0-1.461-.887Q42.543,8.211,42.543,10.872ZM52.035,15H49.77V6.547h2.266Zm-2.4-10.641a1.112,1.112,0,0,1,.34-.836,1.465,1.465,0,0,1,1.848,0,1.105,1.105,0,0,1,.344.836,1.108,1.108,0,0,1-.348.844,1.448,1.448,0,0,1-1.836,0A1.108,1.108,0,0,1,49.637,4.359Zm7.773,8.977a1.481,1.481,0,0,0,1.016-.344,1.2,1.2,0,0,0,.406-.914h2.117a2.9,2.9,0,0,1-.469,1.574,3.093,3.093,0,0,1-1.262,1.109,3.949,3.949,0,0,1-1.77.395A3.67,3.67,0,0,1,54.59,14a4.56,4.56,0,0,1-1.047-3.184v-.148a4.508,4.508,0,0,1,1.039-3.117,3.627,3.627,0,0,1,2.852-1.164,3.555,3.555,0,0,1,2.543.9,3.2,3.2,0,0,1,.973,2.4H58.832a1.551,1.551,0,0,0-.406-1.072,1.51,1.51,0,0,0-2.223.163,3.333,3.333,0,0,0-.4,1.866v.235a3.375,3.375,0,0,0,.4,1.878A1.377,1.377,0,0,0,57.41,13.336ZM64.621,15H62.355V6.547h2.266Zm-2.4-10.641a1.112,1.112,0,0,1,.34-.836,1.465,1.465,0,0,1,1.848,0,1.105,1.105,0,0,1,.344.836,1.108,1.108,0,0,1-.348.844,1.448,1.448,0,0,1-1.836,0A1.108,1.108,0,0,1,62.223,4.359Zm3.906,6.352a5.094,5.094,0,0,1,.887-3.148,2.877,2.877,0,0,1,2.426-1.172,2.589,2.589,0,0,1,2.039.922V3h2.266V15H71.707l-.109-.9a2.657,2.657,0,0,1-2.172,1.055,2.869,2.869,0,0,1-2.395-1.176A5.258,5.258,0,0,1,66.129,10.711Zm2.258.161A3.355,3.355,0,0,0,68.8,12.7a1.348,1.348,0,0,0,1.2.636,1.51,1.51,0,0,0,1.477-.887V9.1a1.489,1.489,0,0,0-1.461-.887Q68.387,8.211,68.387,10.872ZM80.395,15a2.507,2.507,0,0,1-.227-.758,2.732,2.732,0,0,1-2.133.914,3,3,0,0,1-2.059-.719,2.312,2.312,0,0,1-.816-1.812,2.389,2.389,0,0,1,1-2.062,4.915,4.915,0,0,1,2.879-.727h1.039V9.352a1.393,1.393,0,0,0-.3-.937,1.183,1.183,0,0,0-.949-.352,1.345,1.345,0,0,0-.895.273.929.929,0,0,0-.324.75H75.348A2.268,2.268,0,0,1,75.8,7.727a3,3,0,0,1,1.281-.98,4.669,4.669,0,0,1,1.859-.355,3.689,3.689,0,0,1,2.48.785,2.747,2.747,0,0,1,.918,2.207v3.664a4.041,4.041,0,0,0,.336,1.82V15Zm-1.867-1.57a1.945,1.945,0,0,0,.922-.223,1.462,1.462,0,0,0,.625-.6V11.156H79.23q-1.7,0-1.8,1.172l-.008.133a.9.9,0,0,0,.3.7A1.153,1.153,0,0,0,78.527,13.43Zm5.2-2.719a5.094,5.094,0,0,1,.887-3.148,2.877,2.877,0,0,1,2.426-1.172,2.589,2.589,0,0,1,2.039.922V3H91.34V15H89.3l-.109-.9a2.657,2.657,0,0,1-2.172,1.055,2.869,2.869,0,0,1-2.395-1.176A5.258,5.258,0,0,1,83.723,10.711Zm2.258.161a3.355,3.355,0,0,0,.414,1.829,1.348,1.348,0,0,0,1.2.636,1.51,1.51,0,0,0,1.477-.887V9.1a1.489,1.489,0,0,0-1.461-.887Q85.98,8.211,85.98,10.872Z" transform="translate(1129 2983)" fill="#12263f"/>
    <g id="Grupo_136200" data-name="Grupo 136200" transform="translate(-94 365.76)">
      <g id="Grupo_135762" data-name="Grupo 135762" transform="translate(-235 902.24)">
        <circle id="Elipse_4800" data-name="Elipse 4800" cx="27" cy="27" r="27" transform="translate(736 1281)" fill="#7fc733" opacity="0.5"/>
        <circle id="Elipse_4801" data-name="Elipse 4801" cx="15" cy="15" r="15" transform="translate(748 1293)" fill="#7fc733"/>
      </g>
      <text id="_" data-name="+" transform="translate(528 2220.24)" fill="#12263f" font-size="31" font-family="Roboto-Black, Roboto" font-weight="800"><tspan x="-8.28" y="0">+</tspan></text>
    </g>
    <g id="Grupo_136201" data-name="Grupo 136201" transform="translate(133 840.76)">
      <g id="Grupo_135762-2" data-name="Grupo 135762" transform="translate(-235 902.24)">
        <circle id="Elipse_4800-2" data-name="Elipse 4800" cx="27" cy="27" r="27" transform="translate(736 1281)" fill="#7fc733" opacity="0.5"/>
        <circle id="Elipse_4801-2" data-name="Elipse 4801" cx="15" cy="15" r="15" transform="translate(748 1293)" fill="#7fc733"/>
      </g>
      <text id="_2" data-name="+" transform="translate(528 2220.24)" fill="#12263f" font-size="31" font-family="Roboto-Black, Roboto" font-weight="800"><tspan x="-8.28" y="0">+</tspan></text>
    </g>
    <g id="Grupo_136202" data-name="Grupo 136202" transform="translate(400 365.76)">
      <g id="Grupo_135762-3" data-name="Grupo 135762" transform="translate(-235 902.24)">
        <circle id="Elipse_4800-3" data-name="Elipse 4800" cx="27" cy="27" r="27" transform="translate(736 1281)" fill="#7fc733" opacity="0.5"/>
        <circle id="Elipse_4801-3" data-name="Elipse 4801" cx="15" cy="15" r="15" transform="translate(748 1293)" fill="#7fc733"/>
      </g>
      <text id="_3" data-name="+" transform="translate(528 2220.24)" fill="#12263f" font-size="31" font-family="Roboto-Black, Roboto" font-weight="800"><tspan x="-8.28" y="0">+</tspan></text>
    </g>
    <g id="Grupo_136203" data-name="Grupo 136203" transform="translate(648 846.76)">
      <g id="Grupo_135762-4" data-name="Grupo 135762" transform="translate(-235 902.24)">
        <circle id="Elipse_4800-4" data-name="Elipse 4800" cx="27" cy="27" r="27" transform="translate(736 1281)" fill="#7fc733" opacity="0.5"/>
        <circle id="Elipse_4801-4" data-name="Elipse 4801" cx="15" cy="15" r="15" transform="translate(748 1293)" fill="#7fc733"/>
      </g>
      <text id="_4" data-name="+" transform="translate(528 2220.24)" fill="#12263f" font-size="31" font-family="Roboto-Black, Roboto" font-weight="800"><tspan x="-8.28" y="0">+</tspan></text>
    </g>
    <g id="Grupo_136205" data-name="Grupo 136205" transform="translate(-1267.322 1381.764)">
      <path id="Trazado_194130" data-name="Trazado 194130" d="M1736.105,1317.224a41.856,41.856,0,0,1-.876-5.73,40,40,0,0,0-4.7-18.062.733.733,0,0,1,.154-1.055q3.42-3.363,6.79-6.777a6.071,6.071,0,0,0,1.746-5.557,6.255,6.255,0,0,0-8.136-4.784v-.992c0-5.6-.072-11.193.033-16.787a4.406,4.406,0,0,0-4.492-4.486c-13.991.068-27.983.043-41.974.017a4.827,4.827,0,0,0-3.653,1.52q-5.029,5.086-10.11,10.119c-3.043,3.022-2.9,2.735-2.829,6.859.012.69-.281.8-.811.869a15.009,15.009,0,0,0-12.915,14.708q-.016,22.012,0,44.025a6.792,6.792,0,0,0,6.879,6.882q8.223.013,16.447,0a6.9,6.9,0,0,0,1.19-.092,6.813,6.813,0,0,0,5.619-7.1c-.067-.873.2-1.05,1.049-1.048q25.913.042,51.825.031c.6,0,.9-.026.768-.781C1737.409,1325.081,1736.759,1321.152,1736.105,1317.224Zm-5.536-38.418a3.319,3.319,0,0,1,3.6-.908,3.361,3.361,0,0,1,2.335,2.8,3.147,3.147,0,0,1-.9,2.824q-8.332,8.371-16.7,16.707c-.012.011-.046,0-.157,0,0-1.125-.017-2.209,0-3.292a4.93,4.93,0,0,0-1.45-3.713c-.549-.547-.392-.783.066-1.235,2.824-2.784,5.618-5.6,8.422-8.4C1727.38,1281.991,1728.968,1280.392,1730.569,1278.806Zm-48.832-20.684c0,2.216.012,4.612-.005,7.009-.007,1.068-.567,1.594-1.672,1.6-2.37.011-4.74,0-6.936,0Zm-12.289,16.834a12.334,12.334,0,1,1-12.38,12.329A12.42,12.42,0,0,1,1669.448,1274.955Zm-6.9,25.792a15.2,15.2,0,0,0,13.706,0c0,2.3-.014,4.484.009,6.671.006.615-.407.422-.7.423-3.482.009-6.964.017-10.445,0-.844,0-1.972.372-2.45-.162-.415-.464-.119-1.572-.123-2.4C1662.544,1303.805,1662.549,1302.33,1662.549,1300.747Zm19.189-3.757q0,16.787,0,33.574c0,3.03-1.669,4.69-4.712,4.691q-7.667,0-15.333,0c-2.927,0-4.625-1.69-4.626-4.6q0-16.915,0-33.831v-.841a15.662,15.662,0,0,0,2.484,2.729c.3.252.256.545.256.85,0,2.712,0,5.425,0,8.137a2.688,2.688,0,0,0,2.868,2.891q6.724.007,13.449,0a2.693,2.693,0,0,0,2.87-2.89c.005-2.684.014-5.368-.01-8.051a1.355,1.355,0,0,1,.521-1.167,14.1,14.1,0,0,0,2.232-2.509Zm35.657,28.142c-.06,1.9-.018,1.9-1.891,1.9q-15.031,0-30.062.016c-.736,0-.985-.125-.984-.941.031-12.817-.062-25.635.054-38.451a15.308,15.308,0,0,0-12.216-15.184c-1.529-.3-1.464-.336-1.546-1.93-.046-.9.217-1.112,1.1-1.092,2.825.062,5.652.029,8.479.021a4.059,4.059,0,0,0,4.15-4.16c.007-2.94.022-5.881-.014-8.821-.008-.613.165-.738.753-.735,6.909.022,13.818.014,20.727.014h20.385c1.588,0,2.011.429,2.011,2.037q0,9.249.011,18.5a1.69,1.69,0,0,1-.536,1.34q-3.9,3.846-7.751,7.751a1.667,1.667,0,0,1-1.34.536c-1.826-.029-3.654-.008-5.481-.011a7.839,7.839,0,0,0-5.627,2.272,1.561,1.561,0,0,1-1.2.48c-6.138-.016-12.276,0-18.414-.025-.619,0-.8.117-.8.777q.036,17.042,0,34.084c0,.729.256.8.864.8,9.478-.016,18.957,0,28.435-.027C1717.18,1324.273,1717.418,1324.386,1717.395,1325.132Zm-5.5-8.548c0,1.454-.02,2.91.011,4.363.01.48-.12.626-.609.615-1.454-.032-2.909-.025-4.364,0-.4.006-.538-.1-.531-.517.025-1.454.009-2.909.011-4.363,0-.193-.058-.416.159-.54,1.837-1.055,3-2.838,4.568-4.189.2-.171.319-.578.639-.435.246.11.108.463.11.705C1711.9,1313.674,1711.891,1315.129,1711.891,1316.584Zm-21.94-8.179c-.008-.445.114-.574.566-.57,2.479.022,4.959.01,7.536.01-.7,1.754-1.359,3.379-1.993,5.014a.606.606,0,0,1-.668.479q-2.438-.039-4.876,0c-.454.008-.573-.128-.565-.571Q1689.991,1310.586,1689.951,1308.4Zm.007-16.432c0-.329-.038-.586.459-.584,4.989.018,9.979.011,15.023.011a12.157,12.157,0,0,0-.259,5.2c.084.492-.353.264-.531.265-2.225.02-4.45.013-6.675.013-2.453,0-4.906-.014-7.359.012-.506.005-.688-.089-.671-.643C1689.991,1294.826,1689.965,1293.4,1689.958,1291.973Zm0,8.213c0-.341-.016-.576.47-.574,5.066.018,10.132.011,15.377.011-1.807,1.808-3.484,3.475-5.143,5.16a1.032,1.032,0,0,1-.821.328c-3.107-.01-6.215-.015-9.322,0-.448,0-.576-.12-.567-.568C1689.978,1303.094,1689.967,1301.64,1689.957,1300.186Zm0,16.406c-.006-.4.089-.541.514-.534,1.541.025,3.082.019,4.623,0a.567.567,0,0,1,.615.4,3.662,3.662,0,0,0,5.087,1.986c.921-.358,1.837-.732,2.875-1.147,0,1.335-.016,2.532.009,3.728.009.407-.105.529-.521.527q-6.336-.022-12.671,0c-.4,0-.541-.09-.533-.515C1689.977,1319.56,1689.974,1318.076,1689.953,1316.592Zm9.34-.583a.875.875,0,0,1-1.031-1.142c.552-1.482,1.164-2.943,1.782-4.488l3.823,3.833C1702.337,1314.821,1700.832,1315.462,1699.293,1316.01Zm2.623-7.758c-.319-.31-.337-.481-.009-.805q3.8-3.759,7.566-7.556c.254-.255.574-.506.886-.4.362.12.143.545.15.824.028,1.111.011,2.224.011,3.6a29.231,29.231,0,0,0,.141,4.255c.067.326-.155.461-.328.635-1.167,1.172-2.352,2.326-3.5,3.519-.35.365-.539.32-.866-.017Q1703.97,1310.25,1701.916,1308.251Zm8.6-13.917c0,.4.025.8-.013,1.2a1.431,1.431,0,0,1-1.4,1.341,1.455,1.455,0,0,1-1.32-1.342c-.481-4.033,2.036-6.869,6.1-6.872h2.968c-.984.958-1.817,1.752-2.628,2.568-.246.247-.521.172-.795.173A2.713,2.713,0,0,0,1710.52,1294.335Zm4.112,20.231c.919.736,1.7,1.375,2.5,1.991a.729.729,0,0,1,.244.679c0,1.251-.02,2.5.009,3.754.01.441-.112.563-.562.572-2.189.047-2.189.062-2.189-2.093Zm4.041-.342c-.931-.753-1.87-1.494-2.8-2.246a6.755,6.755,0,0,1-2.6-5.429c-.035-3.937,0-7.875-.024-11.812,0-.621.195-.622.687-.478a2.775,2.775,0,0,1,2.063,2.795c.017,1.455,0,2.91,0,4.365,0,1.484.019,2.968-.011,4.451-.01.475.113.692.606.608a1.191,1.191,0,0,1,.171,0c.624-.011,1.4.2,1.831-.1s.119-1.111.131-1.7a.979.979,0,0,1,.378-.716q4.3-4.3,8.589-8.6c.342-.344.5-.424.753.088a36.069,36.069,0,0,1,3.667,12.075c.108.933.136,1.876.255,2.808.055.429-.077.612-.473.719q-6.242,1.687-12.477,3.4A.735.735,0,0,1,1718.673,1314.223Zm15.525,12.826c-2.224-.046-4.449-.017-6.673-.017-2.253,0-4.506-.016-6.759.013-.512.006-.672-.1-.666-.647.031-2.908.024-5.817,0-8.725,0-.417.126-.568.524-.675q5.746-1.549,11.48-3.141c.444-.123.624-.058.709.473.637,3.983,1.313,7.959,2,11.935C1734.907,1326.808,1734.885,1327.063,1734.2,1327.049Z" transform="translate(0)" fill="#b13e8d"/>
      <path id="Trazado_194131" data-name="Trazado 194131" d="M1798.725,1285.276c6.138-.027,12.277-.016,18.416-.016s12.277-.011,18.416.017c.641,0,.8-.15.789-.79-.044-2.255-.037-4.511,0-6.765.008-.564-.149-.7-.7-.7q-18.5.025-37,0c-.56,0-.708.142-.7.7.033,2.255.041,4.511,0,6.765C1797.92,1285.136,1798.089,1285.278,1798.725,1285.276Zm3.938-5.5q15.032,0,30.064-.018c.708,0,.9.156.88.874-.055,1.883-.017,1.885-1.905,1.885H1817.14c-5.225,0-10.449-.012-15.674.016-.636,0-.805-.141-.792-.787C1800.713,1279.778,1800.682,1279.778,1802.663,1279.778Z" transform="translate(-110.73 -18.528)" fill="#b13e8d"/>
      <path id="Trazado_194132" data-name="Trazado 194132" d="M1835.446,1324.874q-17.773.045-35.547.021c-1.946,0-1.919,0-1.958,1.914-.013.643.124.849.818.845,6.11-.031,12.22-.018,18.33-.018h17.388c1.858,0,1.821,0,1.875-1.828C1836.374,1325.084,1836.225,1324.872,1835.446,1324.874Z" transform="translate(-110.737 -55.422)" fill="#b13e8d"/>
      <path id="Trazado_194133" data-name="Trazado 194133" d="M1798.8,1351.614q17.773-.037,35.546-.018c1.981,0,1.95,0,1.989-1.97.013-.645-.155-.789-.792-.787-6.138.027-12.277.016-18.415.016h-17.3c-1.889,0-1.85,0-1.906,1.885C1797.9,1351.457,1798.091,1351.615,1798.8,1351.614Z" transform="translate(-110.72 -73.901)" fill="#b13e8d"/>
      <path id="Trazado_194134" data-name="Trazado 194134" d="M1819.079,1372.777c-6.366.029-12.733.017-19.1.017-2.035,0-2.01,0-2.037,2.005-.008.591.127.757.739.752,3.4-.033,6.795-.016,10.192-.016h9.078c1.941,0,1.911,0,1.953-1.92C1819.918,1372.959,1819.76,1372.774,1819.079,1372.777Z" transform="translate(-110.738 -92.358)" fill="#b13e8d"/>
      <path id="Trazado_194135" data-name="Trazado 194135" d="M1703.516,1376.243c1.514.778,1.33,1.868,1.323,3.078,0,.114.009.229,0,.343-.022.268.121.305.356.338,2.21.312,2.386.171,2.386-1.991a2.458,2.458,0,0,0,0-.342c-.06-.428.121-.621.523-.82a3.7,3.7,0,0,0,2.215-3.3,3.745,3.745,0,0,0-2.049-3.661c-.816-.458-1.669-.851-2.509-1.266-.615-.3-1.067-.726-.84-1.471a1.386,1.386,0,0,1,2.665.385c.05.494-.252,1.172.164,1.436.368.233,1,.055,1.511.057.228,0,.457,0,.685,0,.165,0,.306.018.383-.218a4.257,4.257,0,0,0-1.78-4.566,1.471,1.471,0,0,1-.965-1.775,10.3,10.3,0,0,1,.007-1.116c.059-.473-.152-.549-.576-.557-2.169-.045-2.168-.057-2.172,2.122a1.76,1.76,0,0,0,0,.256c.055.4-.113.572-.484.757a3.732,3.732,0,0,0-2.256,3.443,3.817,3.817,0,0,0,2.232,3.644c.778.413,1.572.793,2.364,1.179a1.194,1.194,0,0,1,.823,1.41,1.3,1.3,0,0,1-1.55.893,1.242,1.242,0,0,1-1.131-1.281c-.1-1.449-.1-1.449-1.549-1.449-.285,0-.571,0-.856,0-.188,0-.323.03-.336.266C1702,1373.644,1701.96,1375.443,1703.516,1376.243Z" transform="translate(-36.808 -83.113)" fill="#b13e8d"/>
      <path id="Trazado_194136" data-name="Trazado 194136" d="M1697.458,1519.262a2.667,2.667,0,0,0-2.739-2.759q-6.853-.014-13.706,0a2.671,2.671,0,0,0-2.739,2.758q-.011,6.81,0,13.618a2.674,2.674,0,0,0,2.781,2.8q6.81.011,13.62,0a2.68,2.68,0,0,0,2.784-2.8c.008-2.255,0-4.511,0-6.766C1697.46,1523.83,1697.468,1521.546,1697.458,1519.262Zm-4.068-.022c1.33,0,1.33,0,1.33,1.326,0,1.415,0,1.415-1.412,1.415-1.329,0-1.329,0-1.329-1.326C1691.978,1519.24,1691.978,1519.24,1693.39,1519.24Zm-11.074,13.7c-1.3,0-1.3,0-1.3-1.353,0-1.388,0-1.388,1.353-1.388,1.388,0,1.388,0,1.388,1.353C1683.754,1532.945,1683.754,1532.945,1682.316,1532.945Zm.027-5.482c-1.329,0-1.329,0-1.329-1.326,0-1.415,0-1.415,1.412-1.415,1.33,0,1.33,0,1.33,1.326C1683.754,1527.463,1683.754,1527.463,1682.343,1527.463Zm0-5.482c-1.325,0-1.325,0-1.325-1.33,0-1.411,0-1.411,1.416-1.411,1.325,0,1.325,0,1.325,1.33C1683.754,1521.982,1683.754,1521.982,1682.339,1521.982Zm5.521,10.964c-1.364,0-1.364,0-1.364-1.377s0-1.363,1.378-1.363,1.364,0,1.364,1.378S1689.237,1532.945,1687.859,1532.945Zm.047-5.482c-1.411,0-1.411,0-1.411-1.416,0-1.326,0-1.326,1.33-1.326,1.411,0,1.411,0,1.411,1.416C1689.237,1527.463,1689.237,1527.463,1687.906,1527.463Zm.016-5.482c-1.427,0-1.427,0-1.427-1.4,0-1.342,0-1.342,1.314-1.342,1.427,0,1.427,0,1.427,1.4C1689.237,1521.982,1689.237,1521.982,1687.923,1521.982Zm6.241,10.976c-2.186.046-2.186.061-2.186-2.11,0-1.855.014-3.71-.01-5.565-.006-.445.115-.563.566-.572,2.186-.045,2.186-.061,2.186,2.11v2.055c0,1.17-.02,2.341.01,3.51C1694.741,1532.831,1694.614,1532.948,1694.164,1532.958Z" transform="translate(-18.464 -203.172)" fill="#b13e8d"/>
    </g>
    <g id="Grupo_136206" data-name="Grupo 136206" transform="translate(33.212 1680.67)">
      <path id="Trazado_194137" data-name="Trazado 194137" d="M586.788,1226.417c.216-1.471.393-2.949.656-4.411a39.389,39.389,0,0,1,10.525-20.651,39.845,39.845,0,0,1,22.261-11.9c1.3-.236,2.627-.351,3.945-.487a1.288,1.288,0,0,1,1.446,1.17,1.321,1.321,0,0,1-1.27,1.374c-1.339.183-2.7.257-4.021.529-13.925,2.863-23.648,10.907-28.671,24.164a37.811,37.811,0,1,0,69.706-3.1c-.046-.1-.1-.2-.16-.323-2.64.463-5.055-.821-7.728-1,.245.4.443.727.638,1.052a30.667,30.667,0,0,1,4.4,13.234c.088.979-.322,1.57-1.083,1.653-.778.085-1.313-.493-1.418-1.474a28.732,28.732,0,0,0-5.977-14.858,2.111,2.111,0,0,0-3.112-.173c-.922.915-1.849,1.825-2.825,2.788,5.031,5.987,6.9,12.785,5.177,20.405a22.085,22.085,0,0,1-9.343,13.619,22.763,22.763,0,1,1,2.4-35.8c1.107-1.105,2.231-2.2,3.322-3.331.378-.391-.106-2.124-.69-2.576a29.025,29.025,0,1,0,10.043,30.928,45.7,45.7,0,0,0,.989-5.027c.165-.992.63-1.557,1.417-1.484.767.071,1.189.661,1.093,1.639a31.563,31.563,0,0,1-62.724.627,31.562,31.562,0,0,1,48.08-30.542c.206.126.421.238.782.44-.277-1.4-.552-2.662-.765-3.929-.207-1.229-.348-2.469-.549-3.928a31.447,31.447,0,0,0-7.56-2.645c-1.858-.393-3.754-.611-5.639-.864-.985-.132-1.566-.628-1.5-1.414.065-.822.737-1.213,1.779-1.13a39.9,39.9,0,0,1,14.59,4.026,1.242,1.242,0,0,0,.693.114c.591-.092,1.174-.241,1.839-.385a4.12,4.12,0,0,1,1.1-2.928,3.805,3.805,0,0,1,3.06-1.112,4.047,4.047,0,0,1,2.822-4.136h1.826c1.92.73,2.706,2.231,3,4.172.266,1.765.7,3.5,1.063,5.238,1.69.136,1.69.136,2.006,1.965,2.2.467,4.42.894,6.616,1.419a3.571,3.571,0,0,1,2.754,3.667,3.646,3.646,0,0,1-2.876,3.494c-.394.095-.8.122-1.256.187a3.781,3.781,0,0,1-1.113,3,4.137,4.137,0,0,1-3.007,1.1,3.811,3.811,0,0,1-.123,1.2,1.979,1.979,0,0,0,.174,1.857,39.957,39.957,0,0,1,3.15,25.2,38.445,38.445,0,0,1-10.591,20.166c-10.221,10.286-22.6,14.134-36.805,11.557a40.3,40.3,0,0,1-31.912-32.422c-.248-1.437-.428-2.885-.639-4.329Zm55.55-10.443-4.459,4.461c.174.24.39.525.591.82a13.439,13.439,0,0,1,2.154,11.118,13.8,13.8,0,0,1-15.261,10.615,13.188,13.188,0,0,1-5.567-2,1.26,1.26,0,1,1,1.261-2.181c.2.1.382.223.574.33a10.84,10.84,0,0,0,6.878,1.342,11.284,11.284,0,0,0,9.749-13.371,10.358,10.358,0,0,0-2.218-4.853l-3.865,3.881c1.427,3.374.812,6.2-1.769,7.943a5.854,5.854,0,0,1-8.16-8.071c1.71-2.606,4.472-3.221,7.972-1.83l3.856-3.857a4,4,0,0,0-.376-.325,10.971,10.971,0,0,0-9.144-1.792,11.308,11.308,0,0,0-7.2,16.756c.539.959.441,1.667-.288,2.079-.7.394-1.345.124-1.882-.791a13.649,13.649,0,0,1-1.792-8.93,13.809,13.809,0,0,1,17.582-11.37,41.123,41.123,0,0,1,5.132,2.342l4.256-4.251c-6.3-6.025-18.264-7.464-26.825.207a20.225,20.225,0,1,0,28.8,1.721ZM628.5,1226.229a3.314,3.314,0,1,0,.629,5.677,3.2,3.2,0,0,0,.972-3.929c-.628.655-1.223,1.3-1.842,1.915-.739.739-1.448.8-2.019.209-.551-.573-.49-1.256.22-1.958C627.08,1227.524,627.737,1226.938,628.5,1226.229Zm27.773-28.124.244.156c.447-.509.93-.992,1.326-1.537a1.483,1.483,0,0,0,.323-.991c-.474-2.512-1-5.016-1.526-7.518a1.244,1.244,0,0,0-1.387-1.119c-.71.135-1.065.7-.911,1.584.2,1.137.445,2.266.679,3.4Q655.638,1195.092,656.269,1198.106Zm1.834,1.739.152.271c3.25.659,6.5,1.335,9.753,1.96a1.092,1.092,0,0,0,1.268-1.027,1.216,1.216,0,0,0-1.113-1.315c-2.5-.519-5.007-1.038-7.515-1.536a1.056,1.056,0,0,0-.758.1C659.267,1198.775,658.7,1199.323,658.1,1199.845Zm-4.3,4.317c.858.184,1.412.308,1.967.422,2.639.541,5.275,1.1,7.921,1.606a1.139,1.139,0,0,0,1.439-.907,1.21,1.21,0,0,0-1.016-1.377c-2.582-.547-5.169-1.068-7.758-1.582a.806.806,0,0,0-.6.1C655.148,1202.922,654.572,1203.469,653.8,1204.161Zm-1.661-1.883c1.883-1.249,2.071-1.7,1.628-3.7-.142-.644-.266-1.293-.4-1.939-.3-1.455-.58-2.912-.9-4.362a1.214,1.214,0,0,0-1.363-1.039,1.189,1.189,0,0,0-.94,1.425,5.026,5.026,0,0,0,.081.573q.4,1.939.8,3.877C651.408,1198.825,651.773,1200.537,652.142,1202.279Zm-4.152,4.1.24.1c.446-.486.866-1,1.345-1.451a.994.994,0,0,0,.323-1.085c-.26-1.1-.459-2.206-.686-3.311-.287-1.4-.564-2.8-.872-4.2a1.227,1.227,0,0,0-1.356-1.056,1.181,1.181,0,0,0-.959,1.409,4.5,4.5,0,0,0,.081.573q.389,1.9.786,3.8Q647.438,1203.77,647.99,1206.383Zm1.671,1.921c1.153.246,2,.433,2.857.609,2.316.476,4.629.97,6.952,1.408a1.164,1.164,0,0,0,1.516-.9,1.214,1.214,0,0,0-1.019-1.379c-2.583-.544-5.171-1.064-7.76-1.578a.8.8,0,0,0-.59.1C651.006,1207.064,650.429,1207.611,649.66,1208.3Z" transform="translate(0 0)" fill="#b13e8d"/>
    </g>
    <g id="Grupo_136207" data-name="Grupo 136207" transform="translate(-294.971 1757.89)">
      <path id="Trazado_194138" data-name="Trazado 194138" d="M1178.471,882.678a4.492,4.492,0,0,1,3.117-3.03,5.53,5.53,0,0,1,1.213-.126q15.988-.01,31.976,0a4.112,4.112,0,0,1,4.4,4.218c.063,3.161.027,6.325.011,9.487-.005,1.05-.5,1.6-1.343,1.6-.873.007-1.365-.572-1.372-1.664-.011-1.751,0-3.5,0-5.308h-35.32c-.016.3-.043.587-.043.871q0,9.839,0,19.678c0,1.617.46,2.074,2.086,2.074q5.842,0,11.684,0c.761,0,1.42.167,1.672.976a1.317,1.317,0,0,1-1.33,1.727c-.875.054-1.756.019-2.634.019-2.987,0-5.976-.066-8.96.021-2.523.073-4.3-.843-5.153-3.294Zm2.637,2.412H1216.4c.3-2.273-.125-2.962-2.508-2.951-10.133.049-20.267.021-30.4.021-.234,0-.469-.008-.7,0a1.568,1.568,0,0,0-1.673,1.638C1181.092,884.207,1181.108,884.615,1181.108,885.091Z" transform="translate(0 0)" fill="#b13e8d"/>
      <path id="Trazado_194139" data-name="Trazado 194139" d="M1309.463,988.437h1.1c4.335,0,8.671-.01,13.007,0a4.169,4.169,0,0,1,4.394,3.163,4.5,4.5,0,0,1,.117,1.127q.01,12.568,0,25.135a4.085,4.085,0,0,1-4.257,4.251q-15.994.006-31.989,0a4.177,4.177,0,0,1-4.472-4.429c-.023-2.05-.005-4.1-.005-6.152v-.958a26.734,26.734,0,1,1,22.1-22.143Zm-5.688,0c.84,0,1.6-.018,2.349.006.477.016.647-.165.714-.647a24.924,24.924,0,0,0-.153-8.036,24,24,0,0,0-47.544,2.841,24.022,24.022,0,0,0,27.542,25.281c.241-.034.628-.292.643-.471.069-.834.031-1.678.031-2.56-.382.031-.644.037-.9.077a20.857,20.857,0,0,1-15.639-3.68c-.92-.64-1.112-1.357-.612-2.065s1.235-.774,2.147-.125a18.531,18.531,0,0,0,12.779,3.364c.741-.065,1.471-.252,2.231-.387,0-3.03-.005-5.958,0-8.886.007-3,1.685-4.7,4.667-4.709,2.666-.011,5.332,0,8,0,.313,0,.626-.027.949-.041.13-.71.246-1.34.358-1.971.02-.115.023-.233.032-.35a18.6,18.6,0,0,0-3.406-12.685c-.634-.885-.546-1.654.185-2.137.7-.46,1.392-.267,2,.6a20.767,20.767,0,0,1,3.882,14.151C1303.963,986.762,1303.872,987.516,1303.775,988.436Zm21.675,8.411h-35.364v.921q0,9.843,0,19.686c0,1.562.465,2.018,2.049,2.019q15.6,0,31.2,0c1.611,0,2.114-.5,2.114-2.084q0-9.843,0-19.686Zm-.074-2.811c.289-2.336-.171-2.88-2.388-2.88h-30.671a7.979,7.979,0,0,0-.966.019,1.289,1.289,0,0,0-1.229,1.17,13.733,13.733,0,0,0-.014,1.69Z" transform="translate(-59.615 -59.638)" fill="#b13e8d"/>
      <path id="Trazado_194140" data-name="Trazado 194140" d="M1416.219,941.752h-17.152c-.234,0-.469,0-.7,0-1.274-.011-1.863-.437-1.859-1.344,0-.891.625-1.338,1.871-1.338h17.839a14.806,14.806,0,0,0-.009-1.521,1.478,1.478,0,0,0-1.419-1.421,8.357,8.357,0,0,0-.966-.019h-29.35c-1.437,0-2.068-.4-2.084-1.306-.016-.927.662-1.361,2.129-1.361q14.895,0,29.789,0c2.887,0,4.567,1.688,4.568,4.584q0,10.9,0,21.793a4.2,4.2,0,0,1-4.4,4.511q-1.845.033-3.69,0c-1.03-.019-1.587-.522-1.585-1.367s.554-1.335,1.593-1.35c1.289-.019,2.578.011,3.866-.017a1.394,1.394,0,0,0,1.55-1.44C1416.233,954.062,1416.219,947.972,1416.219,941.752Z" transform="translate(-156.03 -41.26)" fill="#b13e8d"/>
      <path id="Trazado_194141" data-name="Trazado 194141" d="M1205.118,1083.029h5.651c.439,0,.88-.017,1.318.008.933.052,1.426.518,1.432,1.32a1.335,1.335,0,0,1-1.49,1.366c-1.406.025-2.812.008-4.219.008h-2.733v1q0,8.35,0,16.7c0,1.677.474,2.156,2.131,2.156h29.618c1.444,0,2.07.39,2.091,1.3.022.929-.648,1.358-2.123,1.358q-14.941,0-29.882,0a4.143,4.143,0,0,1-4.479-4.486q0-10.942,0-21.884a4.177,4.177,0,0,1,4.492-4.493c1.2-.009,2.4-.016,3.6,0,1.048.017,1.588.5,1.581,1.358-.007.84-.574,1.336-1.6,1.352-1.143.018-2.285,0-3.428.005-1.542,0-2.013.487-2,2.064C1205.079,1082.42,1205.1,1082.677,1205.118,1083.029Z" transform="translate(-18.334 -151.393)" fill="#b13e8d"/>
      <path id="Trazado_194142" data-name="Trazado 194142" d="M1226.357,936.092q-4.922,0-9.843,0a8.085,8.085,0,0,1-.878-.027,1.217,1.217,0,0,1-1.174-1.2,1.273,1.273,0,0,1,1.06-1.405,2.288,2.288,0,0,1,.612-.032q10.195,0,20.39,0a2.515,2.515,0,0,1,.612.026,1.27,1.27,0,0,1,1.084,1.384,1.2,1.2,0,0,1-1.142,1.225,7.4,7.4,0,0,1-.877.03Q1231.279,936.094,1226.357,936.092Z" transform="translate(-27.535 -41.246)" fill="#b13e8d"/>
      <path id="Trazado_194143" data-name="Trazado 194143" d="M1240.137,957.4c1.99,0,3.98-.005,5.97,0,1.02,0,1.615.493,1.633,1.311.018.84-.54,1.359-1.569,1.362q-6.1.021-12.2,0c-.969,0-1.539-.517-1.555-1.3-.017-.822.589-1.366,1.579-1.371C1236.04,957.4,1238.088,957.4,1240.137,957.4Z" transform="translate(-41.274 -59.596)" fill="#b13e8d"/>
      <path id="Trazado_194144" data-name="Trazado 194144" d="M1221.443,981.383c1.756,0,3.511-.006,5.267,0,1.027.005,1.612.487,1.63,1.311.02.856-.514,1.372-1.558,1.378q-5.4.03-10.8,0c-1.015-.006-1.588-.567-1.553-1.394s.627-1.29,1.656-1.3C1217.874,981.377,1219.658,981.383,1221.443,981.383Z" transform="translate(-27.515 -77.944)" fill="#b13e8d"/>
      <path id="Trazado_194145" data-name="Trazado 194145" d="M1237.928,1164.19c-1.316,0-2.631.009-3.947,0-.985-.009-1.59-.553-1.571-1.375.019-.782.593-1.279,1.559-1.284q3.991-.019,7.981,0c1.036,0,1.578.5,1.557,1.358-.02.8-.59,1.292-1.545,1.3C1240.618,1164.2,1239.273,1164.19,1237.928,1164.19Z" transform="translate(-41.272 -215.779)" fill="#b13e8d"/>
      <path id="Trazado_194146" data-name="Trazado 194146" d="M1476.776,987.359c.847,0,1.695-.018,2.542.005a1.366,1.366,0,0,1,1.491,1.374,1.332,1.332,0,0,1-1.46,1.306c-1.81.031-3.622.036-5.432,0a1.263,1.263,0,0,1-1.385-1.357,1.327,1.327,0,0,1,1.441-1.318C1474.906,987.338,1475.841,987.359,1476.776,987.359Z" transform="translate(-225.005 -82.512)" fill="#b13e8d"/>
      <path id="Trazado_194147" data-name="Trazado 194147" d="M1235.864,1140.154c-.671,0-1.343.019-2.013,0a1.359,1.359,0,0,1-1.442-1.328,1.319,1.319,0,0,1,1.417-1.334c1.371-.03,2.743-.032,4.113.005a1.236,1.236,0,0,1,1.336,1.3,1.317,1.317,0,0,1-1.4,1.354C1237.208,1140.175,1236.536,1140.153,1235.864,1140.154Z" transform="translate(-41.272 -197.373)" fill="#b13e8d"/>
      <path id="Trazado_194148" data-name="Trazado 194148" d="M1490.194,1013.971a8.743,8.743,0,0,1-1.133-.009,1.27,1.27,0,0,1-1.219-1.35,1.254,1.254,0,0,1,1.194-1.29,10.671,10.671,0,0,1,2.267,0,1.326,1.326,0,0,1,.024,2.64,10.6,10.6,0,0,1-1.132.061Z" transform="translate(-236.72 -100.807)" fill="#b13e8d"/>
      <path id="Trazado_194149" data-name="Trazado 194149" d="M1283.166,1001.454a19.255,19.255,0,0,0,3.348,11.6c.269.39.6.94.511,1.322a1.666,1.666,0,0,1-1,1.123,1.853,1.853,0,0,1-1.456-.641,19.022,19.022,0,0,1-3.254-6.554,20.974,20.974,0,0,1,16.219-26.509A20.483,20.483,0,0,1,1313.7,985.3c.99.686,1.215,1.382.724,2.11-.515.764-1.254.785-2.285.064a18.367,18.367,0,0,0-27.562,7.871A17.008,17.008,0,0,0,1283.166,1001.454Z" transform="translate(-78.055 -77.939)" fill="#b13e8d"/>
      <path id="Trazado_194150" data-name="Trazado 194150" d="M1347.524,1040.679c-1.492,0-2.985.01-4.477-.006a.894.894,0,0,0-.957.527,4.126,4.126,0,0,1-7.605-3.14.963.963,0,0,0-.322-1.131c-1.647-1.622-3.3-3.24-4.888-4.918a2.031,2.031,0,0,1-.566-1.435,1.291,1.291,0,0,1,2.293-.554q2.541,2.487,5.026,5.029a1,1,0,0,0,1.2.3,4.021,4.021,0,0,1,4.832,2.021.962.962,0,0,0,1.013.584c2.9-.016,5.794-.008,8.691-.007a6.857,6.857,0,0,1,.7.012,1.423,1.423,0,0,1,1.389,1.324,1.4,1.4,0,0,1-1.421,1.378c-.964.042-1.931.013-2.9.014Zm-7.661-1.322a1.443,1.443,0,1,0-1.462,1.4A1.382,1.382,0,0,0,1339.863,1039.357Z" transform="translate(-114.951 -114.795)" fill="#b13e8d"/>
      <path id="Trazado_194151" data-name="Trazado 194151" d="M1364.286,1007.449c0-.087,0-.175,0-.262.018-1.1.55-1.784,1.381-1.771s1.336.691,1.346,1.805a6.369,6.369,0,0,1-.029,1.046,1.341,1.341,0,0,1-2.673-.033,5.461,5.461,0,0,1-.006-.785Z" transform="translate(-142.179 -96.334)" fill="#b13e8d"/>
      <path id="Trazado_194152" data-name="Trazado 194152" d="M1366.986,1121.63c0,.117,0,.233,0,.35-.032,1.028-.585,1.689-1.395,1.667-.784-.021-1.3-.653-1.33-1.641a8.162,8.162,0,0,1,.016-1.135,1.314,1.314,0,0,1,1.376-1.289,1.3,1.3,0,0,1,1.312,1.264,5.305,5.305,0,0,1,.006.785Z" transform="translate(-142.151 -183.689)" fill="#b13e8d"/>
      <path id="Trazado_194153" data-name="Trazado 194153" d="M1306.389,1068.023a4.554,4.554,0,0,1-.7-.005,1.322,1.322,0,0,1-1.268-1.322,1.281,1.281,0,0,1,1.228-1.348,6.827,6.827,0,0,1,1.481-.019,1.331,1.331,0,0,1,1.35,1.325,1.361,1.361,0,0,1-1.395,1.377c-.231.02-.466,0-.7,0Z" transform="translate(-96.374 -142.154)" fill="#b13e8d"/>
      <path id="Trazado_194154" data-name="Trazado 194154" d="M1436.432,1146.168q-5.054,0-10.107,0a2.83,2.83,0,0,1-.867-.077,1.243,1.243,0,0,1-.935-1.4,1.189,1.189,0,0,1,1.118-1.156,6.882,6.882,0,0,1,.877-.04q9.887,0,19.775,0c.176,0,.352,0,.527.006.908.053,1.454.536,1.47,1.3a1.35,1.35,0,0,1-1.486,1.375c-1.113.021-2.226.006-3.339.006Z" transform="translate(-188.263 -201.98)" fill="#b13e8d"/>
      <path id="Trazado_194155" data-name="Trazado 194155" d="M1436.361,1191.541h9.843a7.937,7.937,0,0,1,.878.022,1.213,1.213,0,0,1,1.165,1.208,1.274,1.274,0,0,1-1.07,1.4,2.015,2.015,0,0,1-.525.024h-20.565c-.117,0-.235.005-.351-.006a1.33,1.33,0,0,1-1.262-1.323,1.242,1.242,0,0,1,1.254-1.3c1.464-.038,2.929-.02,4.394-.022Q1433.242,1191.538,1436.361,1191.541Z" transform="translate(-188.234 -238.749)" fill="#b13e8d"/>
      <path id="Trazado_194156" data-name="Trazado 194156" d="M1450.169,1170.184c-2.02,0-4.039.006-6.058,0-1.013,0-1.6-.5-1.606-1.333s.552-1.325,1.6-1.328q6.058-.014,12.116,0c1.027,0,1.618.508,1.618,1.319,0,.842-.619,1.34-1.695,1.342C1454.15,1170.188,1452.159,1170.184,1450.169,1170.184Z" transform="translate(-202.03 -220.367)" fill="#b13e8d"/>
    </g>
    <g id="Grupo_136208" data-name="Grupo 136208" transform="translate(-1250.222 1295.375)">
      <path id="Trazado_194157" data-name="Trazado 194157" d="M2469.719,1663.12c-14.881-7.892-23.333-19.872-23.331-36.752s8.463-28.85,23.319-36.727h-1.232q-10.927,0-21.854,0c-1.32,0-2.053-.616-2.075-1.706a1.7,1.7,0,0,1,1.556-1.779,6.1,6.1,0,0,1,.655-.008c13.368,0,26.741-.235,40.1.06,16.459.364,28.7,8.115,35.9,22.869,10.847,22.226-1,48.67-24.644,55.855a37.246,37.246,0,0,1-10.844,1.681q-22.073.016-44.146.015a1.809,1.809,0,0,1-2.049-1.389,1.69,1.69,0,0,1,1.1-2.01,4.1,4.1,0,0,1,1.185-.1q12.512-.008,25.024,0Zm-19.93-36.782a36.723,36.723,0,1,0,36.814-36.7A36.845,36.845,0,0,0,2449.789,1626.339Z" transform="translate(-46.59)" fill="#b13e8d"/>
      <path id="Trazado_194158" data-name="Trazado 194158" d="M2385.791,1697.693c-2.838,0-5.676,0-8.513,0-1.307,0-2.041-.629-2.054-1.722-.013-1.112.71-1.768,2-1.769q8.458-.01,16.917,0c1.309,0,2.043.628,2.057,1.72.014,1.135-.734,1.77-2.116,1.772Q2389.938,1697.7,2385.791,1697.693Z" transform="translate(-0.001 -76.563)" fill="#b13e8d"/>
      <path id="Trazado_194159" data-name="Trazado 194159" d="M2385.706,1742.128c2.8,0,5.6,0,8.4,0,1.379,0,2.119.647,2.091,1.8-.027,1.087-.76,1.7-2.081,1.7q-8.4.007-16.808,0c-1.375,0-2.117-.65-2.089-1.8.026-1.089.755-1.693,2.079-1.7C2380.1,1742.124,2382.9,1742.128,2385.706,1742.128Z" transform="translate(0 -110.498)" fill="#b13e8d"/>
      <path id="Trazado_194160" data-name="Trazado 194160" d="M2431.87,1622.3c2.255,0,4.51-.008,6.765,0,1.273.006,2.007.688,1.978,1.8-.027,1.052-.75,1.691-1.974,1.693q-6.764.012-13.53,0c-1.271,0-2-.688-1.976-1.8.026-1.054.746-1.686,1.972-1.692C2427.36,1622.293,2429.615,1622.3,2431.87,1622.3Z" transform="translate(-33.92 -25.659)" fill="#b13e8d"/>
      <path id="Trazado_194161" data-name="Trazado 194161" d="M2436.228,1814.018c1.636,0,3.272-.009,4.908,0,1.221.009,1.943.644,1.968,1.7.026,1.107-.709,1.79-1.982,1.794q-5.017.014-10.035,0c-1.22,0-1.942-.645-1.966-1.7-.026-1.11.7-1.783,1.98-1.792C2432.81,1814.01,2434.519,1814.018,2436.228,1814.018Z" transform="translate(-38.16 -161.395)" fill="#b13e8d"/>
      <path id="Trazado_194162" data-name="Trazado 194162" d="M2429.2,1661.737c-1.381,0-2.763.011-4.144,0a1.752,1.752,0,1,1-.018-3.488q4.2-.019,8.4,0a1.752,1.752,0,1,1,.019,3.488C2432.041,1661.749,2430.622,1661.737,2429.2,1661.737Z" transform="translate(-33.922 -51.103)" fill="#b13e8d"/>
      <path id="Trazado_194163" data-name="Trazado 194163" d="M2411.282,1718.155c1.417,0,2.836-.014,4.253,0a1.747,1.747,0,1,1,0,3.485q-4.253.025-8.506,0a1.747,1.747,0,1,1,0-3.485C2408.447,1718.141,2409.865,1718.155,2411.282,1718.155Z" transform="translate(-21.2 -93.522)" fill="#b13e8d"/>
      <path id="Trazado_194164" data-name="Trazado 194164" d="M2417.213,1781.562c-1.381,0-2.762.012-4.144,0a1.752,1.752,0,1,1,.011-3.488q4.2-.019,8.4,0a1.752,1.752,0,1,1-.011,3.488C2420.049,1781.573,2418.631,1781.562,2417.213,1781.562Z" transform="translate(-25.443 -135.939)" fill="#b13e8d"/>
      <path id="Trazado_194165" data-name="Trazado 194165" d="M2396.659,1661.7c-.581,0-1.163.022-1.742,0a1.686,1.686,0,0,1-1.727-1.713,1.666,1.666,0,0,1,1.667-1.765c1.233-.039,2.469-.042,3.7,0a1.653,1.653,0,0,1,1.619,1.7,1.688,1.688,0,0,1-1.668,1.77C2397.9,1661.732,2397.276,1661.7,2396.659,1661.7Z" transform="translate(-12.722 -51.073)" fill="#b13e8d"/>
      <path id="Trazado_194166" data-name="Trazado 194166" d="M2384.7,1778.062c.617,0,1.236-.03,1.851.006a1.686,1.686,0,0,1,1.649,1.787,1.661,1.661,0,0,1-1.639,1.686c-1.232.043-2.469.043-3.7,0a1.739,1.739,0,0,1-.01-3.472C2383.464,1778.032,2384.082,1778.063,2384.7,1778.062Z" transform="translate(-4.24 -135.932)" fill="#b13e8d"/>
      <path id="Trazado_194167" data-name="Trazado 194167" d="M2407.85,1814.016a6,6,0,0,1,1.086.011,1.621,1.621,0,0,1,1.464,1.733,1.592,1.592,0,0,1-1.483,1.711,11.373,11.373,0,0,1-2.065.019,1.742,1.742,0,0,1,.018-3.482c.326-.019.653,0,.979,0Z" transform="translate(-21.202 -161.38)" fill="#b13e8d"/>
      <path id="Trazado_194168" data-name="Trazado 194168" d="M2483.015,1643.566a33.224,33.224,0,1,1,32.926,33.234A33.167,33.167,0,0,1,2483.015,1643.566Zm59.745-13.256c-.933.526-1.778,1.012-2.63,1.484-1.2.665-2.2.474-2.735-.513-.509-.936-.161-1.881.951-2.546.863-.515,1.733-1.016,2.643-1.548a29.892,29.892,0,0,0-8.4-8.394c-.522.9-.992,1.711-1.467,2.52-.734,1.25-1.71,1.627-2.682,1.042-.945-.569-1.092-1.544-.412-2.765.47-.845.945-1.687,1.446-2.582a28.245,28.245,0,0,0-11.337-3.014c-.075.166-.129.229-.13.294-.011.911-.013,1.822-.023,2.732-.014,1.3-.643,2.041-1.736,2.047s-1.745-.729-1.756-2.025c-.008-1,0-2.007,0-3.072a28.672,28.672,0,0,0-11.5,3.065c.529.935,1.016,1.78,1.487,2.634.635,1.153.467,2.114-.454,2.67-.951.574-1.937.23-2.629-.933-.51-.857-1.006-1.722-1.523-2.609a29.764,29.764,0,0,0-8.385,8.41l1.425.827c.441.255.889.5,1.321.767a1.787,1.787,0,1,1-1.812,3.052c-.885-.487-1.755-1-2.709-1.55a28.1,28.1,0,0,0-3.029,11.513c1.12,0,2.1-.008,3.075,0,1.288.013,2.017.673,2,1.785-.021,1.055-.745,1.693-1.965,1.707-1.01.012-2.02,0-3.12,0a28.331,28.331,0,0,0,3.057,11.515c.976-.558,1.818-1.054,2.674-1.526a1.774,1.774,0,0,1,2.647.527,1.8,1.8,0,0,1-.9,2.563c-.861.518-1.737,1.011-2.657,1.545a29.844,29.844,0,0,0,8.4,8.4c.552-.954,1.047-1.835,1.568-2.7a1.806,1.806,0,0,1,2.569-.866c.921.545,1.108,1.534.484,2.666-.485.881-.992,1.75-1.519,2.676a28.559,28.559,0,0,0,11.5,3.033c0-1.036,0-1.975,0-2.914.006-1.417.594-2.154,1.722-2.167s1.763.728,1.771,2.12c.005.97,0,1.94,0,2.973a28.4,28.4,0,0,0,11.379-3,1.1,1.1,0,0,0-.032-.311c-.442-.794-.9-1.581-1.337-2.376-.661-1.194-.468-2.2.512-2.737.933-.508,1.881-.161,2.547.951.516.861,1.013,1.733,1.546,2.646a29.933,29.933,0,0,0,8.4-8.4c-.924-.538-1.768-1.025-2.608-1.52-1.162-.684-1.521-1.677-.954-2.624.55-.919,1.533-1.1,2.667-.475.88.485,1.747.991,2.681,1.524a28.9,28.9,0,0,0,3.018-11.515c-1.076,0-2.051.006-3.026,0-1.306-.01-2.041-.636-2.05-1.731s.718-1.75,2.017-1.762c1-.009,2.009,0,3.077,0A28.742,28.742,0,0,0,2542.76,1630.31Z" transform="translate(-76.318 -17.182)" fill="#b13e8d"/>
      <path id="Trazado_194169" data-name="Trazado 194169" d="M2585.732,1655.688c0,2.44.019,4.88-.013,7.319a1.268,1.268,0,0,0,.762,1.356,5.08,5.08,0,0,1,1.968,7.29,1.216,1.216,0,0,0-.024,1.464c1.314,2.221,2.6,4.461,3.878,6.7.691,1.211.519,2.192-.447,2.754-.926.539-1.944.173-2.616-.979-1.282-2.2-2.564-4.4-3.805-6.616a1.312,1.312,0,0,0-1.339-.809,5.208,5.208,0,0,1-2.571-9.828,1.2,1.2,0,0,0,.723-1.269q-.029-7.429-.008-14.858c0-1.568,1.226-2.459,2.5-1.844a1.757,1.757,0,0,1,1,1.78C2585.721,1650.662,2585.732,1653.175,2585.732,1655.688Zm-1.664,11.515a1.74,1.74,0,1,0,1.648,1.851A1.842,1.842,0,0,0,2584.068,1667.2Z" transform="translate(-144.063 -42.563)" fill="#b13e8d"/>
    </g>
  </g>
</svg>
