<svg xmlns="http://www.w3.org/2000/svg" xmlns:xlink="http://www.w3.org/1999/xlink" width="190" height="112" viewBox="0 0 190 112">
  <defs>
    <linearGradient id="linear-gradient" x1="0.5" x2="0.5" y2="1" gradientUnits="objectBoundingBox">
      <stop offset="0" stop-color="#f7ca2e" stop-opacity="0"/>
      <stop offset="0.091" stop-color="#f7ca2e" stop-opacity="0.129"/>
      <stop offset="0.283" stop-color="#f7ca2e" stop-opacity="0.388"/>
      <stop offset="0.465" stop-color="#f7ca2e" stop-opacity="0.612"/>
      <stop offset="0.633" stop-color="#f7ca2e" stop-opacity="0.78"/>
      <stop offset="0.784" stop-color="#f7ca2e" stop-opacity="0.902"/>
      <stop offset="0.911" stop-color="#f7ca2e" stop-opacity="0.969"/>
      <stop offset="1" stop-color="#f7ca2e"/>
    </linearGradient>
    <linearGradient id="linear-gradient-2" x1="0.5" x2="0.5" y2="1" gradientUnits="objectBoundingBox">
      <stop offset="0" stop-color="#b13e8d" stop-opacity="0"/>
      <stop offset="0.091" stop-color="#b13e8d" stop-opacity="0.129"/>
      <stop offset="0.283" stop-color="#b13e8d" stop-opacity="0.388"/>
      <stop offset="0.465" stop-color="#b13e8d" stop-opacity="0.612"/>
      <stop offset="0.633" stop-color="#b13e8d" stop-opacity="0.78"/>
      <stop offset="0.784" stop-color="#b13e8d"/>
      <stop offset="0.911" stop-color="#b13e8d" stop-opacity="0.969"/>
      <stop offset="1" stop-color="#b13e8d"/>
    </linearGradient>
    <filter id="Rectángulo_40720" x="41" y="4" width="108" height="108" filterUnits="userSpaceOnUse">
      <feOffset dy="3" input="SourceAlpha"/>
      <feGaussianBlur stdDeviation="3" result="blur"/>
      <feFlood flood-opacity="0.161"/>
      <feComposite operator="in" in2="blur"/>
      <feComposite in="SourceGraphic"/>
    </filter>
  </defs>
  <g id="Grupo_136214" data-name="Grupo 136214" transform="translate(-180 -1997)">
    <g id="Grupo_128321" data-name="Grupo 128321" transform="translate(0 1598)">
      <rect id="Rectángulo_40586" data-name="Rectángulo 40586" width="190" height="20" transform="translate(180 444)" fill="none"/>
      <g id="Grupo_108405" data-name="Grupo 108405" transform="translate(209.5 463)">
        <path id="Rectángulo_5242" data-name="Rectángulo 5242" d="M0,0H12a0,0,0,0,1,0,0V43.333a3,3,0,0,1-3,3H3a3,3,0,0,1-3-3V0A0,0,0,0,1,0,0Z" transform="translate(0 0)" fill="url(#linear-gradient)"/>
      </g>
      <g id="Grupo_108406" data-name="Grupo 108406" transform="translate(340 451) rotate(180)">
        <path id="Rectángulo_5242-2" data-name="Rectángulo 5242" d="M0,0H12a0,0,0,0,1,0,0V49a3,3,0,0,1-3,3H3a3,3,0,0,1-3-3V0A0,0,0,0,1,0,0Z" transform="translate(0 0)" fill="url(#linear-gradient-2)"/>
      </g>
      <g transform="matrix(1, 0, 0, 1, 180, 399)" filter="url(#Rectángulo_40720)">
        <path id="Rectángulo_40720-2" data-name="Rectángulo 40720" d="M10,0H80A10,10,0,0,1,90,10V90a0,0,0,0,1,0,0H10A10,10,0,0,1,0,80V10A10,10,0,0,1,10,0Z" transform="translate(50 10)" fill="#f6f6f6"/>
      </g>
    </g>
    <g id="Grupo_136215" data-name="Grupo 136215" transform="translate(-232.235 373.263)">
      <path id="Trazado_194170" data-name="Trazado 194170" d="M472.728,1697.446c.183-.861.334-1.73.556-2.58a12.827,12.827,0,0,1,2.2-4.508,1.019,1.019,0,0,1,1.53-.335,1.047,1.047,0,0,1,.132,1.569,12.459,12.459,0,0,0-2.337,7.56c-.018,3.509-.011,7.018,0,10.527a2.451,2.451,0,0,0,2.682,2.669c.907,0,1.813,0,2.806,0v-1.058c0-2.392,0-4.785,0-7.177,0-.822.3-1.254.877-1.338.744-.109,1.233.366,1.236,1.251.01,2.506,0,5.013,0,7.519v.768h6.425c.456-2.79.915-5.566,1.361-8.344.572-3.567,1.141-7.135,1.684-10.708a1.454,1.454,0,0,0-.212-.852,5.712,5.712,0,0,0-.779-1.034.82.82,0,0,0-.552-.266,3.66,3.66,0,0,1-3.193-1.511c-.862-1.086-1.742-2.156-2.707-3.348-1.248.682-2.486,1.391-3.759,2.031a1.767,1.767,0,0,1-1.2.183.993.993,0,0,1-.012-1.832c1.525-.848,3.1-1.61,4.666-2.38,1-.49,2.015-.938,3.031-1.386a2.386,2.386,0,0,1,.967-.3c.662.024.7-.345.754-.852a3.157,3.157,0,0,0-1.274-3.144,8.911,8.911,0,0,1-3-5.836,14.5,14.5,0,0,1-1.479-.164,2.874,2.874,0,0,1-2.352-2.729c-.051-1.022-.035-2.05,0-3.074a2.113,2.113,0,0,1,.258-1.111,3.841,3.841,0,0,0,.455-2.354c.027-1.089.036-2.182.14-3.266a2.314,2.314,0,0,1,.5-1.243c.487-.555.287-.976.071-1.562a11.769,11.769,0,0,1-.686-2.889,1.65,1.65,0,0,1,1.819-1.89c2.894-.015,5.787-.006,8.681-.007h.7c0-1.028-.013-2,0-2.969a5.047,5.047,0,0,1,4.115-5,4.7,4.7,0,0,1,.95-.073q15.107-.005,30.213-.008a3.5,3.5,0,0,1,2.58,1.048q5.541,5.527,11.07,11.068a3.578,3.578,0,0,1,1.084,2.64c-.007,1.959,0,3.919,0,5.878a1.014,1.014,0,0,1-.774,1.073.927.927,0,0,1-1.152-.5,1.856,1.856,0,0,1-.134-.79c-.011-1.64-.006-3.281-.006-4.921v-.812c-.291-.013-.532-.032-.773-.032-2.165,0-4.333-.078-6.493.018a5.121,5.121,0,0,1-5.357-5.352c.053-2.14.01-4.283.01-6.425v-.8c-.293-.013-.534-.032-.774-.033q-14.56,0-29.119,0a2.994,2.994,0,0,0-3.326,3.34c0,.86,0,1.72,0,2.658,1.579,0,3.077.021,4.574-.006a7.773,7.773,0,0,1,4.48,1.191,7.626,7.626,0,0,1,3.712,6.4c.053,1.411.017,2.825.03,4.237a1.259,1.259,0,0,0,.1.656,4.774,4.774,0,0,1,.675,3.007c-.017.547.01,1.094-.007,1.64a3.084,3.084,0,0,1-3.137,3.109c-.226.005-.453,0-.675,0-.21.75-.378,1.474-.615,2.175a9.132,9.132,0,0,1-3.3,4.5.937.937,0,0,0-.452.9c.034.545-.005,1.094.025,1.639.021.385.142.664.653.676a3.311,3.311,0,0,1,1.162.344c1.5.644,3,1.294,4.484,1.971,4.032,1.839,7.247,4.517,8.9,8.773a14.833,14.833,0,0,1,.936,5.547c-.018,2.278,0,4.557,0,6.836v.823h.8q10.151,0,20.3,0c2.118,0,3.2-1.079,3.2-3.2q0-16.508,0-33.016c0-.251-.009-.5.014-.751a1,1,0,0,1,1.027-.972,1.027,1.027,0,0,1,1.014.934,4.171,4.171,0,0,1,.011.615q0,16.644,0,33.289a4.821,4.821,0,0,1-5.158,5.163q-10.151,0-20.3,0h-.9c0,.337,0,.625,0,.912a4.39,4.39,0,0,1-3.345,4.432,1.2,1.2,0,0,0-.228.129h-36.5a15.67,15.67,0,0,1-1.722-.87,4.818,4.818,0,0,1-1.833-2.822Zm31.888-11.123c-.963,1.184-1.881,2.311-2.8,3.44a3.751,3.751,0,0,1-2.786,1.378,1.58,1.58,0,0,0-.839.39,3.33,3.33,0,0,0-.724.9,1.753,1.753,0,0,0-.248.923c.054.676.211,1.344.319,2.017q.99,6.154,1.978,12.309c.248,1.541.5,3.081.755,4.668,2,0,3.958,0,5.912,0,.154,0,.308-.023.536-.041v-.761c0-2.5-.005-5.01,0-7.514,0-.847.342-1.252,1.005-1.266.691-.014,1.075.428,1.077,1.275.005,2.345,0,4.691,0,7.036v1.272c1.021,0,1.972.009,2.922,0a2.413,2.413,0,0,0,2.56-2.571c0-3.689.07-7.38-.036-11.065a13.832,13.832,0,0,0-.775-4.191C511.975,1690.3,508.611,1687.994,504.616,1686.323Zm-18.046-18.478.072,0c0,1.229-.015,2.459,0,3.688a7.513,7.513,0,0,0,3.081,6.173,7.307,7.307,0,0,0,7.755,1.114,7.456,7.456,0,0,0,4.911-6.581c.176-2.767.119-5.551.084-8.327a2.391,2.391,0,0,0-2.618-2.445c-2.687-.007-5.374,0-8.06,0-1.184,0-2.37.031-3.55-.036-1.12-.064-1.118-.112-1.4.971a1.3,1.3,0,0,0-.051.267Q486.68,1665.258,486.57,1667.845Zm-2.994-13.332c.07.393.1.711.183,1.013A5.127,5.127,0,0,0,489,1659.35c3.574.014,7.147-.006,10.721.007a4.6,4.6,0,0,1,4.658,3.281c.083.279.142.566.217.868h.946c0-.984,0-1.936,0-2.888a5.852,5.852,0,0,0-6.089-6.1q-7.136-.006-14.272,0Zm14.578,57.808-3.01-18.687h-1.183l-3,18.687Zm31.992-64.159c0,2.072-.033,4.139.013,6.2a2.7,2.7,0,0,0,2.048,2.458,9.806,9.806,0,0,0,2.1.152c1.558.02,3.117.006,4.66.006Zm-32.118,32.7a8.668,8.668,0,0,1-6.938,0c-.157.859-.311,1.628-.426,2.4-.016.107.133.272.245.361,1.2.943,2.4,1.877,3.644,2.845,1.248-.97,2.488-1.928,3.714-2.9a.51.51,0,0,0,.147-.4C498.308,1682.434,498.172,1681.7,498.028,1680.865Zm4.607,4.593c-.655-.293-1.2-.567-1.776-.78a.773.773,0,0,0-.63.055c-1.268.948-2.514,1.926-3.827,2.942.733.425,1.366.829,2.033,1.167a1.3,1.3,0,0,0,1.677-.3C500.953,1687.56,501.754,1686.541,502.634,1685.458Zm-9.932,2.215c-1.26-.979-2.455-1.921-3.669-2.837a.887.887,0,0,0-.672-.2c-.627.218-1.225.522-1.887.818.868,1.065,1.655,2.064,2.478,3.031a1.367,1.367,0,0,0,1.844.3C491.412,1688.455,492.01,1688.082,492.7,1687.673Zm11.9-17.157c1.4.136,1.659-.093,1.661-1.4,0-.706.018-1.413-.009-2.118-.037-.961-.627-1.44-1.652-1.356Zm-20.119-4.9c-1.1-.012-1.639.493-1.651,1.5-.009.7,0,1.408,0,2.111,0,1.174.424,1.495,1.653,1.232Zm8.176,24.512a2.014,2.014,0,0,0,3.819.089c-1.669-1.354-1.705-1.358-3.449-.314C492.918,1689.972,492.8,1690.043,492.663,1690.128Zm-9.131-26.685.171.217c.3-.15.8-.237.867-.461.274-.85.411-1.745.609-2.668l-1.2-.829C483.254,1660.915,483.663,1662.208,483.532,1663.443Z" fill="#693fb7"/>
      <path id="Trazado_194171" data-name="Trazado 194171" d="M699.114,1747.539q5.02,0,10.04,0c1.624,0,2.187.559,2.188,2.158q0,2.186,0,4.371c0,1.37-.614,2.008-1.993,2.019-2.026.017-4.052.005-6.079.005q-7.035,0-14.07,0c-1.753,0-2.311-.57-2.312-2.342,0-1.412-.006-2.823,0-4.235a1.76,1.76,0,0,1,1.979-1.973C692.284,1747.533,695.7,1747.539,699.114,1747.539Zm-10.087,6.418h20.206v-4.3H689.027Z" transform="translate(-175.043 -84.303)" fill="#693fb7"/>
      <path id="Trazado_194172" data-name="Trazado 194172" d="M699.082,1811.416H688.628c-.182,0-.365.009-.547-.006a1.062,1.062,0,1,1,.041-2.113c.136-.008.273,0,.41,0h21.25c1.109,0,1.593.317,1.6,1.044s-.492,1.077-1.574,1.077Z" transform="translate(-175.087 -134.779)" fill="#693fb7"/>
      <path id="Trazado_194173" data-name="Trazado 194173" d="M699.184,1836.6c-3.644,0-7.287.011-10.931-.018a1.637,1.637,0,0,1-1.076-.407.992.992,0,0,1,.63-1.614,3.578,3.578,0,0,1,.614-.017h21.52a4.762,4.762,0,0,1,.478.006,1.024,1.024,0,0,1,.961,1.042.985.985,0,0,1-.992,1c-1.047.022-2.095.01-3.142.01Z" transform="translate(-175.083 -155.411)" fill="#693fb7"/>
      <path id="Trazado_194174" data-name="Trazado 194174" d="M693.578,1861.728c-1.82,0-3.64.01-5.459-.005a1.051,1.051,0,1,1-.034-2.089c.181-.013.364-.007.546-.007h9.9c.182,0,.365-.007.546.006.727.051,1.109.405,1.116,1.025a1.028,1.028,0,0,1-1.15,1.065C697.218,1861.738,695.4,1861.728,693.578,1861.728Z" transform="translate(-175.088 -175.918)" fill="#693fb7"/>
    </g>
  </g>
</svg>
