<svg xmlns="http://www.w3.org/2000/svg" width="114" height="113.978" viewBox="0 0 114 113.978">
  <g id="Grupo_136217" data-name="Grupo 136217" transform="translate(-1091.501 -1375.629)">
    <path id="Trazado_194177" data-name="Trazado 194177" d="M1161.193,1375.629a2.571,2.571,0,0,1,1.131,2.442c-.054,3.709-.007,7.42-.034,11.13a1.049,1.049,0,0,0,.815,1.2c1.666.609,3.3,1.3,4.916,2.042a.986.986,0,0,0,1.33-.248c2.6-2.644,5.235-5.259,7.862-7.879,1.314-1.311,2.038-1.313,3.354,0q8.111,8.1,16.213,16.214c1.308,1.31,1.31,1.982.025,3.271-2.594,2.6-5.18,5.21-7.8,7.781a1.139,1.139,0,0,0-.3,1.589c.892,1.824,1.637,3.72,2.482,5.682,3.85,0,7.78,0,11.709,0,2.167,0,2.6.435,2.6,2.586q0,11.465,0,22.93c0,1.685-.557,2.24-2.278,2.244-3.71.007-7.421.023-11.131-.015a1.2,1.2,0,0,0-1.363.914c-.693,1.864-1.511,3.683-2.247,5.445,2.78,2.823,5.535,5.627,8.3,8.423,1.388,1.405,1.4,2.148.016,3.531q-8.12,8.093-16.245,16.182c-1.252,1.246-1.937,1.252-3.177.016-2.629-2.618-5.262-5.232-7.862-7.879a1.132,1.132,0,0,0-1.532-.275c-1.5.707-3.038,1.364-4.6,1.919-.743.263-1.036.566-1.025,1.386.048,3.635.025,7.271.019,10.908,0,1.754-.68,2.44-2.4,2.441q-11.576,0-23.152,0c-1.782,0-2.333-.545-2.335-2.306,0-3.71-.022-7.421.017-11.131a1.171,1.171,0,0,0-.926-1.35c-1.637-.576-3.245-1.248-4.824-1.968a1.056,1.056,0,0,0-1.421.254c-2.636,2.663-5.3,5.3-7.968,7.93-1.176,1.163-1.852,1.166-3.006.01q-8.254-8.273-16.5-16.557c-1.11-1.116-1.1-1.774.03-2.917,2.663-2.688,5.322-5.382,8.014-8.041a1.035,1.035,0,0,0,.218-1.422,51.925,51.925,0,0,1-1.985-4.812,1.089,1.089,0,0,0-1.256-.879c-3.6.032-7.2-.018-10.8.036a3.22,3.22,0,0,1-2.581-.909v-25.828a2.754,2.754,0,0,1,2.438-.978c3.672.029,7.344,0,11.015.025a1.08,1.08,0,0,0,1.2-.836c.623-1.659,1.3-3.3,2.042-4.91a1.061,1.061,0,0,0-.244-1.437c-2.613-2.579-5.186-5.2-7.775-7.8-1.428-1.436-1.432-1.956-.01-3.39l15.121-15.246c2.562-2.582,2.563-2.582,5.122-.022l7.535,7.541c1.976-.771,3.815-1.536,5.69-2.2a1.252,1.252,0,0,0,1.019-1.408c-.049-3.671,0-7.343-.037-11.014a2.417,2.417,0,0,1,1.194-2.412Zm-2.238,110.613v-1.281q0-5.12,0-10.24c0-1.877.164-2.024,1.969-2.682a58.439,58.439,0,0,0,5.86-2.353c2.4-1.184,2.341-1.449,4.42.692,2.477,2.551,4.959,5.1,7.355,7.561l15.156-14.978c-.292-.3-.566-.6-.851-.888-2.491-2.494-4.971-5-7.482-7.471a1.964,1.964,0,0,1-.4-2.574c1.129-2.405,2.162-4.86,3.128-7.336a2.11,2.11,0,0,1,2.216-1.592c3.524.034,7.049.012,10.574.012h1.194v-20.964h-1.276c-3.488,0-6.976-.025-10.463.013a2.125,2.125,0,0,1-2.265-1.658c-.946-2.523-2.01-5.006-3.135-7.455a1.911,1.911,0,0,1,.392-2.481c2.563-2.526,5.1-5.081,7.64-7.629.252-.253.483-.528.7-.767l-15.016-14.85c-2.688,2.7-5.476,5.467-8.232,8.27a2.049,2.049,0,0,1-2.6.422c-2.432-1.073-4.894-2.082-7.366-3.059a2.056,2.056,0,0,1-1.532-2.146c.042-3.487.015-6.975.015-10.462v-1.221h-21.1v1.277c0,3.525-.019,7.05.01,10.574a1.883,1.883,0,0,1-1.378,2c-2.619,1.012-5.218,2.077-7.8,3.176a1.881,1.881,0,0,1-2.321-.391c-.833-.846-1.679-1.679-2.517-2.52-1.959-1.969-3.917-3.94-5.773-5.808l-14.9,14.886c2.673,2.667,5.412,5.432,8.192,8.155a2.023,2.023,0,0,1,.438,2.663c-1.125,2.408-2.123,4.878-3.108,7.348-.533,1.335-.9,1.662-2.374,1.663q-5.176,0-10.351,0h-1.117v21.008h1.31q5.12,0,10.24,0c1.529,0,1.819.285,2.377,1.647q1.511,3.69,3.168,7.319a1.984,1.984,0,0,1-.37,2.516c-1.61,1.591-3.2,3.2-4.8,4.8-1.2,1.2-2.4,2.405-3.617,3.63l15.113,14.841a5.763,5.763,0,0,1,.6-.784c2.456-2.476,4.938-4.927,7.383-7.413a2.1,2.1,0,0,1,2.682-.469c2.426,1.087,4.9,2.059,7.377,3.034,1.352.533,1.66.892,1.662,2.382q.01,5.176,0,10.351v1.23Z" fill="#b13e8d"/>
    <path id="Trazado_194178" data-name="Trazado 194178" d="M1231.052,1477.258a38,38,0,1,1-38.011-38.085A38.031,38.031,0,0,1,1231.052,1477.258Zm-3.215.092a34.776,34.776,0,1,0-34.993,34.689A34.777,34.777,0,0,0,1227.837,1477.35Z" transform="translate(-44.651 -44.642)" fill="#b13e8d"/>
    <path id="Trazado_194179" data-name="Trazado 194179" d="M1308.581,1537.977q0-9.237,0-18.475c0-1.618.565-2.194,2.212-2.208q3.283-.028,6.566,0c1.688.013,2.3.616,2.3,2.279q.008,18.418,0,36.837c0,1.6-.634,2.224-2.211,2.228q-3.395.008-6.789,0c-1.515-.005-2.079-.564-2.08-2.074Q1308.576,1547.27,1308.581,1537.977Zm7.545,17.325V1520.71h-4.191V1555.3Z" transform="translate(-152.507 -99.516)" fill="#b13e8d"/>
    <path id="Trazado_194180" data-name="Trazado 194180" d="M1264.021,1561.811q0-7.012,0-14.023c0-2.053.445-2.5,2.472-2.505,2.152-.006,4.3-.013,6.455,0,1.666.013,2.245.559,2.246,2.184q.016,14.3,0,28.6c0,1.606-.652,2.229-2.222,2.233q-3.339.008-6.678,0c-1.722,0-2.266-.522-2.271-2.249C1264.014,1571.308,1264.022,1566.56,1264.021,1561.811Zm3.493-13.081v26.227h4.356V1548.73Z" transform="translate(-121.201 -119.184)" fill="#b13e8d"/>
    <path id="Trazado_194181" data-name="Trazado 194181" d="M1219.735,1581.2q0-5.336,0-10.673c0-1.9.555-2.441,2.457-2.444,2.15,0,4.3-.007,6.448,0,1.643.006,2.265.572,2.268,2.171q.022,11.007,0,22.013c0,1.538-.561,2.054-2.095,2.058q-3.391.01-6.782,0c-1.755,0-2.292-.541-2.3-2.344C1219.73,1588.385,1219.735,1584.79,1219.735,1581.2Zm7.877,9.794v-19.418h-4.336v19.418Z" transform="translate(-90.089 -135.202)" fill="#b13e8d"/>
    <path id="Trazado_194182" data-name="Trazado 194182" d="M1253.856,1484.384c-9.521,7.263-20.044,12.358-31.076,16.486-.493.185-1.19.4-1.563.19a2.541,2.541,0,0,1-1.113-1.479c-.2-.839.462-1.319,1.2-1.624,3.145-1.292,6.323-2.512,9.422-3.908a101.937,101.937,0,0,0,20.251-11.676c.351-.268.689-.554,1.018-.819-.027-.117-.021-.223-.062-.247-1.17-.674-1.559-1.39-1.229-2.281.31-.837,1.247-1.19,2.46-.909.9.208,1.8.424,2.689.662a1.708,1.708,0,0,1,1.458,1.918c-.064,1-.074,2-.109,3-.03.847-.134,1.681-1.136,1.923A1.73,1.73,0,0,1,1253.856,1484.384Z" transform="translate(-90.324 -71.935)" fill="#b13e8d"/>
    <path id="Trazado_194183" data-name="Trazado 194183" d="M1368.184,1538.255q0,4.778,0,9.555a8.013,8.013,0,0,1-.05,1.108,1.563,1.563,0,0,1-1.68,1.446,1.605,1.605,0,0,1-1.661-1.488,8.366,8.366,0,0,1-.026-1.331q0-9.666-.007-19.332c0-.962.182-1.8,1.186-2.152,1.2-.419,2.216.469,2.23,1.973.027,2.888.009,5.777.01,8.666Q1368.185,1537.477,1368.184,1538.255Z" transform="translate(-191.97 -105.612)" fill="#b13e8d"/>
    <path id="Trazado_194184" data-name="Trazado 194184" d="M1188.84,1538.217q0-5,0-10.005c0-1.409.588-2.129,1.7-2.118,1.058.01,1.622.712,1.624,2.068q.007,10.116,0,20.233c0,1.308-.614,2.082-1.628,2.089-1.06.007-1.691-.784-1.693-2.15Q1188.836,1543.275,1188.84,1538.217Z" transform="translate(-68.384 -105.708)" fill="#b13e8d"/>
  </g>
</svg>
