<svg xmlns="http://www.w3.org/2000/svg" width="96.608" height="96.608" viewBox="0 0 96.608 96.608">
  <g id="Grupo_136477" data-name="Grupo 136477" transform="translate(-1144.26 -1639.291)">
    <circle id="Elipse_6836" data-name="Elipse 6836" cx="48.304" cy="48.304" r="48.304" transform="translate(1144.26 1639.291)" fill="#b13e8d"/>
    <g id="Grupo_136232" data-name="Grupo 136232" transform="translate(251.417 661.281)">
      <path id="Trazado_194196" data-name="Trazado 194196" d="M959.49,994.718a1.374,1.374,0,0,1,.71,1.391c-.033.991-.009,1.984-.009,3.035h.6c1.52,0,3.041-.008,4.561,0,1.051.008,1.47.624,1.1,1.6-.413,1.1-.821,2.21-1.261,3.3a1.374,1.374,0,0,0,.008,1.108c.439,1.094.848,2.2,1.261,3.3.356.952-.069,1.577-1.079,1.578q-5.524.008-11.049,0c-.911,0-1.231-.336-1.233-1.267,0-1.026,0-2.052,0-3.11h-2.431v8.628H961.3c.993,0,1.331.341,1.331,1.342q0,5.067,0,10.136a1.013,1.013,0,0,1-1.413,1.046,1.047,1.047,0,0,1-.619-1.064c.009-2.923,0-5.846,0-8.768v-.582h-9.932v28.147h9.932v-.511q0-4.434,0-8.869a1.015,1.015,0,0,1,1.45-1.04.922.922,0,0,1,.574.879c0,3.547.006,7.1-.006,10.643,0,.611-.437.959-1.124.959q-5.322,0-10.643,0c-.405,0-.811.006-1.216,0a1.029,1.029,0,0,1-1.077-.983,3.925,3.925,0,0,1-.007-.406q0-24.555-.009-49.11a1.454,1.454,0,0,1,.7-1.4Zm-8.826,8.8H958.1v-6.746h-7.433Zm13.416,4.47c-.352-.932-.659-1.8-1.01-2.654a1.787,1.787,0,0,1-.005-1.457c.357-.865.668-1.75,1.008-2.652h-3.882v2.949c0,1.139-.329,1.463-1.481,1.464h-3.542v2.35Z" fill="#f7f4ff"/>
      <path id="Trazado_194197" data-name="Trazado 194197" d="M946.309,1035.23q0,5.041,0,10.083c0,.967-.339,1.3-1.309,1.3h-11.45c-.977,0-1.321-.335-1.321-1.293v-20.216c0-.923.366-1.291,1.286-1.291q5.751,0,11.5,0c.927,0,1.293.363,1.293,1.281Q946.31,1030.164,946.309,1035.23Zm-2.076,9.332v-18.656H934.3v18.656Z" fill="#f7f4ff"/>
      <path id="Trazado_194198" data-name="Trazado 194198" d="M922.906,1046.616q-2.911,0-5.823,0c-.813,0-1.179-.36-1.179-1.165q0-5.469,0-10.938a1.019,1.019,0,0,1,1.174-1.172q5.85,0,11.7,0a1.052,1.052,0,0,1,1.2,1.166q.01,5.469,0,10.938a1.05,1.05,0,0,1-1.2,1.171Q925.843,1046.619,922.906,1046.616Zm4.974-2.043v-9.167h-9.91v9.167Z" fill="#f7f4ff"/>
      <path id="Trazado_194199" data-name="Trazado 194199" d="M962.631,1030.471a1.036,1.036,0,0,1-1.044,1.009,1.031,1.031,0,0,1,.045-2.061A1.027,1.027,0,0,1,962.631,1030.471Z" fill="#f7f4ff"/>
    </g>
  </g>
</svg>
