<svg xmlns="http://www.w3.org/2000/svg" width="96.608" height="96.608" viewBox="0 0 96.608 96.608">
  <g id="Grupo_136486" data-name="Grupo 136486" transform="translate(-622.247 -2486.292)">
    <circle id="Elipse_6879" data-name="Elipse 6879" cx="48.304" cy="48.304" r="48.304" transform="translate(622.247 2486.292)" fill="#b13e8d"/>
    <g id="Grupo_136244" data-name="Grupo 136244" transform="translate(1506.793 1552.244)">
      <path id="Trazado_194424" data-name="Trazado 194424" d="M-804.691,968.645c-.193.98-.311,1.984-.59,2.937-1.968,6.722-6.28,10.927-12.907,12.367-7.577,1.646-15.4-2.77-18.4-10.217-.186-.462-.389-.635-.878-.623-1.46.036-2.922.016-4.383.012a1.243,1.243,0,0,1-1.392-1.2,1.241,1.241,0,0,1,1.383-1.212c1.42,0,2.84,0,4.33,0a17.983,17.983,0,0,1,.854-10.141h-8.706v.665q0,4.024,0,8.047a3.578,3.578,0,0,1-3.742,3.847q-3.858,0-7.715,0h-.7v.689q0,16.427,0,32.855a2.431,2.431,0,0,0,2.659,2.767h32.556a2.435,2.435,0,0,0,2.665-2.761q0-6.867,0-13.735a1.3,1.3,0,0,1,.68-1.293,1.145,1.145,0,0,1,1.658,1.121c.014,1.372,0,2.743,0,4.115q0,4.992,0,9.983a4.778,4.778,0,0,1-3.658,4.881.947.947,0,0,0-.2.11h-34.84a11.546,11.546,0,0,1-1.392-.578,4.893,4.893,0,0,1-2.5-4.263c-.31,0-.6-.02-.886,0a3.692,3.692,0,0,1-3.779-3.878q.064-22.992,0-45.984a3.8,3.8,0,0,1,3.776-3.9c9.683.055,19.366.026,29.048.014a1.56,1.56,0,0,0,.861-.24,15.57,15.57,0,0,1,12.359-2.88c6.626,1.281,10.985,5.357,13.121,11.958a33,33,0,0,1,.716,3.273Zm-30.859-1.56c0,8.1,6.407,14.738,14.226,14.745a14.547,14.547,0,0,0,14.288-14.744,14.545,14.545,0,0,0-14.257-14.773A14.543,14.543,0,0,0-835.549,967.085Zm-24.359,37.469v-.8q0-15.762-.009-31.524a1.924,1.924,0,0,1,.566-1.45q5.86-6.041,11.7-12.107a1.786,1.786,0,0,1,1.395-.6c3.41.021,6.819.012,10.229,0,.2,0,.491,0,.585-.127.528-.7,1.009-1.442,1.539-2.218h-26.553c-1.387,0-1.718.345-1.718,1.789v45.259c0,.141,0,.282,0,.423a1.241,1.241,0,0,0,1.321,1.352C-860.567,1004.561-860.277,1004.555-859.908,1004.555Zm4.232-33.862h.423q3.038,0,6.075,0c1.035,0,1.451-.435,1.453-1.509q0-3.115,0-6.229v-.5Z" fill="#fff"/>
      <path id="Trazado_194425" data-name="Trazado 194425" d="M-814.016,1055.253q-5.43,0-10.861,0a1.171,1.171,0,0,1-1.319-1.068,1.178,1.178,0,0,1,1.047-1.343,3.186,3.186,0,0,1,.35-.006h21.6c.825,0,1.309.381,1.377,1.068a1.175,1.175,0,0,1-1.28,1.348c-2.355.007-4.71,0-7.065,0Z" transform="translate(-24.59 -64.703)" fill="#fff"/>
      <path id="Trazado_194426" data-name="Trazado 194426" d="M-803.262,1078.7c-2.822,0-5.645,0-8.467,0a1.209,1.209,0,0,1-1.279-.835,1.2,1.2,0,0,1,.937-1.576,2.61,2.61,0,0,1,.408-.012q8.438,0,16.876,0c.754,0,1.215.3,1.355.882a1.194,1.194,0,0,1-1.246,1.533C-797.539,1078.7-800.4,1078.7-803.262,1078.7Z" transform="translate(-33.003 -79.432)" fill="#fff"/>
      <path id="Trazado_194427" data-name="Trazado 194427" d="M-818.333,1029.391q3.242,0,6.483,0c.87,0,1.365.443,1.365,1.205s-.493,1.211-1.359,1.212q-6.513,0-13.025,0a1.188,1.188,0,0,1-1.342-1.236,1.186,1.186,0,0,1,1.336-1.181Q-821.6,1029.386-818.333,1029.391Z" transform="translate(-24.585 -49.974)" fill="#fff"/>
      <path id="Trazado_194428" data-name="Trazado 194428" d="M-737.16,1050.125a1.172,1.172,0,0,1-1.116,1.223,1.2,1.2,0,0,1-1.218-1.195,1.2,1.2,0,0,1,1.19-1.222A1.165,1.165,0,0,1-737.16,1050.125Z" transform="translate(-80.159 -62.252)" fill="#fff"/>
      <path id="Trazado_194429" data-name="Trazado 194429" d="M-824.928,1078.7a1.2,1.2,0,0,1-1.162-1.243,1.2,1.2,0,0,1,1.17-1.173,1.2,1.2,0,0,1,1.163,1.242A1.2,1.2,0,0,1-824.928,1078.7Z" transform="translate(-24.662 -79.438)" fill="#fff"/>
      <path id="Trazado_194430" data-name="Trazado 194430" d="M-755.168,978.341c.208-.2.364-.35.512-.5,2.177-2.252,4.346-4.513,6.539-6.749a1.585,1.585,0,0,1,.978-.542,1.4,1.4,0,0,1,1.043.56,2.054,2.054,0,0,1,.009,1.233c-.036.2-.276.378-.44.549q-3.736,3.874-7.478,7.744c-.869.9-1.4.9-2.27,0q-2.233-2.308-4.463-4.62c-.1-.1-.2-.2-.283-.3a1.26,1.26,0,0,1-.006-1.7,1.159,1.159,0,0,1,1.68-.014c.163.143.309.307.46.465Z" transform="translate(-66.15 -13.003)" fill="#fff"/>
      <path id="Trazado_194431" data-name="Trazado 194431" d="M-747.34,1022.274c0-1.154.388-1.707,1.189-1.691.763.015,1.162.591,1.16,1.679a4.076,4.076,0,0,1-.027.721,1.2,1.2,0,0,1-1.268,1,1.184,1.184,0,0,1-1.053-1.224C-747.344,1022.6-747.339,1022.435-747.34,1022.274Z" transform="translate(-75.13 -44.44)" fill="#fff"/>
      <path id="Trazado_194432" data-name="Trazado 194432" d="M-744.98,964.339c0,1.133-.359,1.666-1.136,1.685s-1.213-.565-1.212-1.687a4.614,4.614,0,0,1,.017-.662,1.194,1.194,0,0,1,1.226-1.05,1.168,1.168,0,0,1,1.1,1.172C-744.972,963.977-744.98,964.158-744.98,964.339Z" transform="translate(-75.137 -8.024)" fill="#fff"/>
      <path id="Trazado_194433" data-name="Trazado 194433" d="M-775.95,992.9c1.109,0,1.648.407,1.628,1.236-.019.792-.567,1.195-1.628,1.195a4.958,4.958,0,0,1-.582-.009,1.223,1.223,0,0,1-1.073-1.277,1.166,1.166,0,0,1,1.131-1.143C-776.3,992.887-776.125,992.9-775.95,992.9Z" transform="translate(-55.734 -27.042)" fill="#fff"/>
      <path id="Trazado_194434" data-name="Trazado 194434" d="M-718.027,995.34c-1.109,0-1.648-.4-1.631-1.233.016-.787.573-1.2,1.625-1.2a4.2,4.2,0,0,1,.64.016,1.215,1.215,0,0,1,1.019,1.265,1.168,1.168,0,0,1-1.128,1.147C-717.677,995.349-717.852,995.34-718.027,995.34Z" transform="translate(-92.871 -27.051)" fill="#fff"/>
    </g>
  </g>
</svg>
