<svg xmlns="http://www.w3.org/2000/svg" width="96.608" height="96.608" viewBox="0 0 96.608 96.608">
  <g id="Grupo_136624" data-name="Grupo 136624" transform="translate(3954.74 8545.302)">
    <g id="Grupo_136622" data-name="Grupo 136622" transform="translate(-5099 -10184.593)">
      <g id="Grupo_136620" data-name="Grupo 136620">
        <circle id="Elipse_6836" data-name="Elipse 6836" cx="48.304" cy="48.304" r="48.304" transform="translate(1144.26 1639.291)" fill="#b13e8d"/>
      </g>
    </g>
    <g id="Grupo_136623" data-name="Grupo 136623" transform="translate(-3091.765 -9501.104)">
      <path id="Trazado_194450" data-name="Trazado 194450" d="M-833.164,970.154h40.921v38.939c.245-.241.4-.381.54-.531,1.319-1.39,2.609-2.812,3.958-4.167a4.587,4.587,0,0,1,7.714,2.1c.064.205.144.4.216.607v1.86a8.512,8.512,0,0,1-2.453,3.744c-3.2,3.347-6.362,6.729-9.552,10.085a1.44,1.44,0,0,0-.435,1.094c.017,4.517.01,9.034.01,13.551v.721h-51.839v-.495q0-27.7.016-55.4a1.471,1.471,0,0,1,.379-.9q4.9-5.237,9.838-10.439C-833.616,970.673-833.393,970.41-833.164,970.154Zm23.858,64.183c.038-.193.049-.275.07-.355.789-2.951,1.564-5.906,2.385-8.847a3.186,3.186,0,0,1,.714-1.269q5.655-6.039,11.356-12.031a1.452,1.452,0,0,0,.43-1.1q-.016-18.8-.009-37.606v-.706h-37.285v10.9h-10.3v52.589H-794.4V1025.57c-.214.213-.366.355-.51.506-1.584,1.675-3.163,3.354-4.752,5.022a1.584,1.584,0,0,1-.607.437C-803.246,1032.471-806.226,1033.386-809.306,1034.337Zm5.169-9.311.957,1.053,14.732-15.588-1-1.018Zm17.335-12.851-14.763,15.625.91.958,14.756-15.643Zm-47-31.112v-6.776l-6.4,6.776Zm49.552,30.548c.583-.614,1.188-1.192,1.727-1.834a2.855,2.855,0,0,0,.016-3.528,2.376,2.376,0,0,0-3.259-.625,21.725,21.725,0,0,0-2.193,2.065Zm-22.014,19.471,3.556-1.112-2.539-2.7Z" transform="translate(0)" fill="#fff"/>
      <path id="Trazado_194451" data-name="Trazado 194451" d="M-799.119,978.258q5.616,0,11.233,0a5.328,5.328,0,0,1,5.341,5.653q.008,4.252,0,8.5a5.356,5.356,0,0,1-5.26,5.622q-11.327.026-22.655,0a5.177,5.177,0,0,1-5.218-5.077c-.135-3.291-.107-6.6.021-9.891a5.126,5.126,0,0,1,4.928-4.8c3.87-.021,7.74-.005,11.61-.005Zm.026,2.231c-3.766,0-7.531-.008-11.3,0a3.169,3.169,0,0,0-3.261,3.457q-.024,4.186,0,8.371a3.21,3.21,0,0,0,3.317,3.482q11.2,0,22.4,0a3.167,3.167,0,0,0,3.268-3.441c.007-2.769-.063-5.539.024-8.3a3.352,3.352,0,0,0-3.412-3.591C-791.729,980.549-795.412,980.489-799.093,980.49Z" transform="translate(-13.845 -3.718)" fill="#fff"/>
      <path id="Trazado_194452" data-name="Trazado 194452" d="M-823.579,1059.114q1.116-1.291,2.234-2.586c.73-.848,1.458-1.7,2.214-2.58l1.551,1.483c-.482.569-.934,1.109-1.392,1.643-.983,1.147-1.961,2.3-2.961,3.429a.762.762,0,0,0-.165.961c2.255,5.373-1.787,11.313-7.321,10.788a7.6,7.6,0,0,1-6.556-6.986,7.72,7.72,0,0,1,5.411-8.132C-828.056,1056.458-825.9,1057.064-823.579,1059.114Zm-4.978,9.116-3.871-2.737,1.168-1.838,2.367,1.651c1.208-1.4,2.391-2.774,3.571-4.148.1-.112.178-.239.263-.355a4.865,4.865,0,0,0-6.884-.5,5.672,5.672,0,0,0-.987,7.442,5,5,0,0,0,6.97,1.447c2.294-1.531,2.893-4.724,2.018-6.331Z" transform="translate(-3.956 -38.455)" fill="#fff"/>
      <path id="Trazado_194453" data-name="Trazado 194453" d="M-823.563,1022.6l4.447-5.166,1.544,1.5-4.724,5.513a7.991,7.991,0,0,1,.3,6.518,7.367,7.367,0,0,1-3.445,3.965,7.019,7.019,0,0,1-9.241-2.455,8.062,8.062,0,0,1,.912-9.937A7.067,7.067,0,0,1-823.563,1022.6Zm-1.475,1.719a4.89,4.89,0,0,0-6.8-.6,5.681,5.681,0,0,0-1.149,7.415,5,5,0,0,0,6.929,1.628c2.374-1.5,3.015-4.74,2.128-6.406l-4.619,5.369-3.869-2.734,1.156-1.841,2.384,1.652Z" transform="translate(-3.963 -21.697)" fill="#fff"/>
      <path id="Trazado_194454" data-name="Trazado 194454" d="M-774.551,1026.974v2.157h-24.826v-2.157Z" transform="translate(-21.859 -26.076)" fill="#fff"/>
      <path id="Trazado_194455" data-name="Trazado 194455" d="M-774.554,1043.191v2.158h-24.827v-2.158Z" transform="translate(-21.857 -33.519)" fill="#fff"/>
      <path id="Trazado_194456" data-name="Trazado 194456" d="M-778.7,1035.081v2.159h-20.683v-2.159Z" transform="translate(-21.857 -29.797)" fill="#fff"/>
      <path id="Trazado_194457" data-name="Trazado 194457" d="M-788.034,1063.563v2.112h-11.378v-2.112Z" transform="translate(-21.842 -42.868)" fill="#fff"/>
      <path id="Trazado_194458" data-name="Trazado 194458" d="M-788.034,1071.677v2.114h-11.379v-2.114Z" transform="translate(-21.841 -46.592)" fill="#fff"/>
      <path id="Trazado_194459" data-name="Trazado 194459" d="M-799.431,1081.949v-2.181h11.416c0,.62.019,1.234-.016,1.844a.485.485,0,0,1-.346.322C-792.034,1081.952-795.691,1081.949-799.431,1081.949Z" transform="translate(-21.832 -50.305)" fill="#fff"/>
      <path id="Trazado_194460" data-name="Trazado 194460" d="M-754.828,1037.239v-2.146h2.036v2.146Z" transform="translate(-43.64 -29.802)" fill="#fff"/>
      <path id="Trazado_194461" data-name="Trazado 194461" d="M-783.056,990.474v6.515h-6.177v-6.515Zm-4.085,4.285h1.962V992.7h-1.962Z" transform="translate(-26.819 -9.325)" fill="#fff"/>
      <path id="Trazado_194462" data-name="Trazado 194462" d="M-771.033,990.457h6.185V997h-6.185Zm4.065,2.239h-1.942v2.077h1.942Z" transform="translate(-35.717 -9.318)" fill="#fff"/>
      <path id="Trazado_194463" data-name="Trazado 194463" d="M-801.351,990.491v6.5h-6.165v-6.5Zm-4.087,4.289h1.98V992.7h-1.98Z" transform="translate(-17.879 -9.333)" fill="#fff"/>
    </g>
  </g>
</svg>
