<svg xmlns="http://www.w3.org/2000/svg" width="96.608" height="96.608" viewBox="0 0 96.608 96.608">
  <g id="Grupo_136487" data-name="Grupo 136487" transform="translate(-361.892 -2491.893)">
    <g id="Grupo_136485" data-name="Grupo 136485" transform="translate(0 847)">
      <circle id="Elipse_5389" data-name="Elipse 5389" cx="48.304" cy="48.304" r="48.304" transform="translate(361.892 1644.893)" fill="#b13e8d"/>
    </g>
    <g id="Grupo_136243" data-name="Grupo 136243" transform="translate(1256.155 1599.074)">
      <path id="Trazado_194411" data-name="Trazado 194411" d="M-807.706,993.441-816.9,983.9a13.085,13.085,0,0,1-12.288,1.775,13.6,13.6,0,0,1-8.6-9.206h-13.129v-2.007h12.635a28.276,28.276,0,0,1,.025-3.195c.139-1.189.469-2.353.71-3.53a5.314,5.314,0,0,0,.171-1.022c.013-3.2.008-6.4.008-9.607v-.656h1.916v7.116c.66-.625,1.3-1.211,1.907-1.828.09-.092.043-.337.043-.511q0-3.046,0-6.092v-.671h1.947v5.806c.637-.3,1.2-.539,1.744-.834.113-.062.17-.325.172-.5.015-1.13.008-2.261.008-3.449h1.983v3.229l1.872-.254v-7.009h1.99v6.991l1.9.279v-9.273h2v.633c0,2.91.007,5.819-.008,8.729,0,.4.081.636.485.776a13.4,13.4,0,0,1,1.4.674v-6.789h1.99v.615c0,2.3.012,4.609-.01,6.912a1.3,1.3,0,0,0,.505,1.2c.516.385.983.839,1.407,1.209v-5.923h1.965v.614q0,4.335,0,8.67a1.856,1.856,0,0,0,.06.633,14.3,14.3,0,0,1,.771,7.01h1.063v1.961c-.035.022-.07.063-.1.058-1.123-.243-1.687.3-1.891,1.394a1.973,1.973,0,0,1-.322.743c-.338.487-.236.806.176,1.225,2.82,2.863,5.608,5.759,8.406,8.646.768.792.769,1.221,0,2.01-.977,1-1.96,1.995-2.94,2.992Zm-17.032-32.971a11.752,11.752,0,0,0-11.619,11.9,11.793,11.793,0,0,0,11.538,12.054,11.771,11.771,0,0,0,11.674-11.91A11.754,11.754,0,0,0-824.738,960.47Zm18.84,28.956-8.123-8.374-1.412,1.6,8.038,8.3Z" transform="translate(-14.501 -22.617)" fill="#fff"/>
      <path id="Trazado_194412" data-name="Trazado 194412" d="M-813.4,970.4l-1.456-1.325a4.116,4.116,0,0,0,.741-2.832q-.017-15.38-.007-30.759c0-2.186-1.139-3.377-3.251-3.377q-19.06,0-38.122,0a2.906,2.906,0,0,0-3.114,2.25,3.62,3.62,0,0,0-.08.868q-.005,15.849,0,31.7a2.872,2.872,0,0,0,3.056,3.136c3.9.013,7.8,0,11.7,0h.695v2.018c-.179.012-.343.033-.508.033-3.977,0-7.954.008-11.931,0a4.886,4.886,0,0,1-4.857-3.866,6.425,6.425,0,0,1-.153-1.449q-.013-15.7,0-31.4a4.983,4.983,0,0,1,5.17-5.327q19.146,0,38.292,0a4.893,4.893,0,0,1,4.968,4.086,6.568,6.568,0,0,1,.08,1.281q.006,15.672.01,31.345A5.231,5.231,0,0,1-813.4,970.4Z" transform="translate(-8.651 -11.267)" fill="#fff"/>
      <path id="Trazado_194413" data-name="Trazado 194413" d="M-826.641,916.8h-1.909c-.028-.462-.024-.908-.087-1.343a2.921,2.921,0,0,0-2.867-2.635c-.057,0-.114,0-.17,0q-19.2,0-38.407,0a2.9,2.9,0,0,0-2.962,2.155,4.447,4.447,0,0,0-.126,1.156q-.01,15.7-.01,31.4a3.124,3.124,0,0,0,2.164,3.2l-.457,1.916a4.475,4.475,0,0,1-2.4-1.462,4.946,4.946,0,0,1-1.275-3.354q-.011-16,0-31.991a4.91,4.91,0,0,1,4.917-5.029q19.261,0,38.521,0a4.908,4.908,0,0,1,5.069,5.216Z" transform="translate(0 0)" fill="#fff"/>
      <path id="Trazado_194414" data-name="Trazado 194414" d="M-834.493,975.975v11.98h-1.874v-11.98Z" transform="translate(-23.201 -38.146)" fill="#fff"/>
      <path id="Trazado_194415" data-name="Trazado 194415" d="M-824.887,992.255h-1.866v-8.943h1.866Z" transform="translate(-28.952 -42.441)" fill="#fff"/>
      <path id="Trazado_194416" data-name="Trazado 194416" d="M-846.175,996.38c0-1.931,0-3.8.013-5.675a.436.436,0,0,1,.286-.314c.542-.032,1.086-.015,1.649-.015v6Z" transform="translate(-17.334 -46.574)" fill="#fff"/>
      <path id="Trazado_194417" data-name="Trazado 194417" d="M-851.024,939.752h1.936v2.036c-.552,0-1.11.013-1.667-.013a.392.392,0,0,1-.258-.281C-851.038,940.936-851.024,940.377-851.024,939.752Z" transform="translate(-14.432 -16.937)" fill="#fff"/>
      <path id="Trazado_194418" data-name="Trazado 194418" d="M-865.411,920.517h1.922v1.952h-1.922Z" transform="translate(-5.829 -5.675)" fill="#fff"/>
      <path id="Trazado_194419" data-name="Trazado 194419" d="M-855.776,922.456v-1.942h1.92v1.942Z" transform="translate(-11.592 -5.674)" fill="#fff"/>
      <path id="Trazado_194420" data-name="Trazado 194420" d="M-839.544,941.777c-.128.012-.22.027-.312.03-1.713.054-1.9-.2-1.521-2.026h1.833Z" transform="translate(-20.105 -16.954)" fill="#fff"/>
      <path id="Trazado_194421" data-name="Trazado 194421" d="M-831.535,939.767h1.858v2h-1.858Z" transform="translate(-26.091 -16.946)" fill="#fff"/>
      <path id="Trazado_194422" data-name="Trazado 194422" d="M-846.082,920.524h1.9v1.947h-1.9Z" transform="translate(-17.39 -5.679)" fill="#fff"/>
      <path id="Trazado_194423" data-name="Trazado 194423" d="M-790.555,990.758a9.839,9.839,0,0,1-9.72,9.986,9.842,9.842,0,0,1-9.7-10.01,9.9,9.9,0,0,1,9.718-10.018A9.909,9.909,0,0,1-790.555,990.758Zm-6.824-.019v-.674c0-2.07.006-4.14-.01-6.21,0-.2-.088-.524-.214-.573a17.407,17.407,0,0,0-1.674-.482v7.917h-1.985v-7.9c-.475.117-.87.236-1.273.308-.468.084-.633.313-.624.826.032,2.03.013,4.062.013,6.092v.681h-2v-6.067a7.639,7.639,0,0,0-2.524,8.061h14.863c.933-2.972-.533-6.775-2.606-8.043v6.063Zm-9.58,4.035a7.6,7.6,0,0,0,7.058,3.935,7.505,7.505,0,0,0,6.312-3.935Z" transform="translate(-38.989 -40.922)" fill="#fff"/>
    </g>
  </g>
</svg>
