<svg xmlns="http://www.w3.org/2000/svg" width="96.608" height="96.608" viewBox="0 0 96.608 96.608">
  <g id="Grupo_136488" data-name="Grupo 136488" transform="translate(-883.7 -2486.291)">
    <g id="Grupo_136484" data-name="Grupo 136484" transform="translate(0 847)">
      <circle id="Elipse_6835" data-name="Elipse 6835" cx="48.304" cy="48.304" r="48.304" transform="translate(883.7 1639.291)" fill="#b13e8d"/>
    </g>
    <g id="Grupo_136245" data-name="Grupo 136245" transform="translate(1763.322 1551.302)">
      <path id="Trazado_194435" data-name="Trazado 194435" d="M-830.506,1003.4h8.469a11.754,11.754,0,0,1,4.566-8.237,11.167,11.167,0,0,1,9.081-2.227,11.786,11.786,0,0,1,9.6,12.135,11.929,11.929,0,0,1-9.77,11,11.489,11.489,0,0,1-9-2.331,11.73,11.73,0,0,1-4.48-8.162h-8.473c0,.367,0,.715,0,1.063a3.14,3.14,0,0,1-3.144,3.165q-8.453.011-16.907,0a3.139,3.139,0,0,1-3.195-3.248c0-.308,0-.616,0-1.011-.976,0-1.915-.036-2.851.007a7.441,7.441,0,0,1-7.646-6.381,7.48,7.48,0,0,1-.067-1.06q-.008-4.261,0-8.522a7.388,7.388,0,0,1,7.405-7.477q6.472-.012,12.944,0h.784c0-.4,0-.75,0-1.1a3.138,3.138,0,0,1,3.147-3.161q8.453-.01,16.906,0a3.14,3.14,0,0,1,3.192,3.25c0,.308,0,.615,0,1.009h.741q6.274,0,12.548,0a5.376,5.376,0,0,0,5.734-5.776q0-3.329,0-6.658a5.363,5.363,0,0,0-5.632-5.677c-.919,0-1.838,0-2.822,0,0,.365,0,.669,0,.974a3.143,3.143,0,0,1-3.225,3.286q-8.387.007-16.774,0a3.142,3.142,0,0,1-3.246-3.263c0-.307,0-.613,0-.957h-6.295c0,.482-.025.945.008,1.4.028.39-.135.547-.492.629-.62.142-1.232.319-1.844.494a.774.774,0,0,0-.511,1.239c.386.7.779,1.387,1.137,2.023l-4.181,4.218c-.606-.345-1.306-.748-2.009-1.143a.764.764,0,0,0-1.231.516c-.18.638-.321,1.289-.539,1.913a.722.722,0,0,1-.511.413c-1.673.031-3.346.01-5.019.026-.367,0-.492-.164-.57-.488-.154-.645-.339-1.282-.52-1.92a.735.735,0,0,0-1.145-.487c-.71.394-1.412.8-2.172,1.234-1.307-1.32-2.616-2.63-3.9-3.964a.62.62,0,0,1-.029-.558c.309-.611.672-1.194,1-1.795a.756.756,0,0,0-.49-1.216c-.652-.193-1.32-.338-1.96-.565a.721.721,0,0,1-.4-.52q-.046-2.529,0-5.059a.728.728,0,0,1,.411-.521c.64-.224,1.309-.365,1.962-.557a.746.746,0,0,0,.495-1.166c-.327-.6-.7-1.181-1-1.8a.73.73,0,0,1,.063-.656q1.764-1.845,3.593-3.626a.654.654,0,0,1,.6-.063c.609.3,1.185.675,1.781,1.008a.735.735,0,0,0,1.195-.508c.224-.784.44-1.569.667-2.383,1.859,0,3.685-.009,5.51.016a.6.6,0,0,1,.417.362c.212.65.367,1.32.555,1.979a.762.762,0,0,0,1.241.523c.689-.388,1.373-.786,2.01-1.152l4.172,4.223c-.351.625-.752,1.332-1.145,2.043a.749.749,0,0,0,.486,1.2c.106.031.208.073.313.1.612.172,1.4.168,1.787.564.352.363.266,1.157.383,1.81h6.174c0-.325,0-.63,0-.934a3.14,3.14,0,0,1,3.224-3.284q8.388-.006,16.775,0a3.138,3.138,0,0,1,3.247,3.261c0,.307,0,.613,0,1,1.008,0,1.97.03,2.929-.005a7.474,7.474,0,0,1,7.651,7.717c-.074,2.417-.005,4.837-.015,7.257a7.393,7.393,0,0,1-7.351,7.4c-4.337.011-8.674,0-13.01,0h-.772c0,.413,0,.762,0,1.111a3.136,3.136,0,0,1-3.1,3.147q-8.519.014-17.039,0a3.137,3.137,0,0,1-3.11-3.131c0-.351,0-.7,0-1.127h-.756q-6.273,0-12.548,0c-3.5,0-5.717,2.249-5.719,5.788q0,3.862,0,7.723a5.363,5.363,0,0,0,5.645,5.664c.9,0,1.8,0,2.81,0,0-.388,0-.754,0-1.12a3.133,3.133,0,0,1,3.1-3.137q8.52-.013,17.039,0a3.134,3.134,0,0,1,3.1,3.138C-830.5,1002.656-830.506,1003.007-830.506,1003.4Zm29.589,1.058a9.614,9.614,0,0,0-9.521-9.559,9.611,9.611,0,0,0-9.5,9.581,9.615,9.615,0,0,0,9.553,9.594A9.619,9.619,0,0,0-800.918,1004.462Zm-40.145-42.788a13.2,13.2,0,0,0-1.388-.374c-.681-.108-.929-.531-1.248-1.123a2.767,2.767,0,0,1,.236-3.422.645.645,0,0,0-.03-.611c-.473-.579-1-1.115-1.484-1.645a8.106,8.106,0,0,0-.811.464,2.3,2.3,0,0,1-2.607.233,2.326,2.326,0,0,1-1.68-2.027c-.079-.674-.412-.877-1.1-.853-1.736.06-1.753.015-2.17,1.676a1.012,1.012,0,0,1-.8.894,6.372,6.372,0,0,0-1.509.647.722.722,0,0,1-.836-.036c-.54-.334-1.1-.634-1.7-.976-.3.324-.583.639-.88.934s-.635.594-.934.871a4.38,4.38,0,0,0,.257.461c.78,1.01,1.113,2.05.262,3.2a.965.965,0,0,0-.162.432c-.07.523-.392.7-.873.815-1.645.4-1.6.426-1.657,2.119-.024.726.16,1.131.91,1.187a1.8,1.8,0,0,1,1.861,1.649,7.361,7.361,0,0,0,.434.96.956.956,0,0,1-.017.653c-.3.607-.653,1.186-1.015,1.828.324.3.624.561.905.841.954.95.978.994,2.126.261a1.456,1.456,0,0,1,1.784-.079c.361.235.828.3,1.208.512a1.3,1.3,0,0,1,.569.6c.218.591.348,1.215.517,1.838a16.083,16.083,0,0,1,1.775.014c.662.076.973-.179,1.042-.824a1.921,1.921,0,0,1,1.7-1.974,1.05,1.05,0,0,0,.48-.21,1.2,1.2,0,0,1,1.545.049c1.285.784,1.3.761,2.33-.279.794-.8.838-.83.193-1.824a2.187,2.187,0,0,1-.151-2.106,2.626,2.626,0,0,1,2.432-2.03c.382-.05.506-.241.491-.624C-841.082,963.114-841.062,962.427-841.062,961.674Zm20.054-1.927q-4.06,0-8.12,0c-.976,0-1.371.393-1.376,1.361q-.011,1.831,0,3.661c.005.972.4,1.368,1.369,1.368q8.12,0,16.24,0c1.019,0,1.405-.385,1.41-1.4.006-1.176,0-2.352,0-3.527,0-1.1-.368-1.468-1.47-1.468Q-816.982,959.745-821.008,959.747Zm-10.62,26.634q4.093,0,8.186,0c1.006,0,1.387-.392,1.391-1.415,0-1.22.009-2.44,0-3.66-.008-.893-.412-1.312-1.29-1.314q-8.219-.008-16.438,0c-.879,0-1.282.419-1.29,1.313-.01,1.2,0,2.4,0,3.594,0,1.112.364,1.482,1.456,1.483Q-835.623,986.384-831.629,986.381Zm-10.5,21.306q4.06,0,8.12,0c1.007,0,1.389-.392,1.393-1.413.005-1.22.009-2.44,0-3.66-.007-.9-.41-1.315-1.288-1.316q-8.219-.009-16.438,0c-.881,0-1.285.418-1.292,1.31-.01,1.2,0,2.4,0,3.594,0,1.114.362,1.484,1.453,1.486Q-846.159,1007.69-842.132,1007.687Z" transform="translate(0 0)" fill="#fff"/>
      <path id="Trazado_194436" data-name="Trazado 194436" d="M-732.084,1074.269l1.394,1.481-9.079,9.155-2.736-2.757,1.463-1.538,1.229,1.469Z" transform="translate(-73.84 -74.819)" fill="#fff"/>
      <path id="Trazado_194437" data-name="Trazado 194437" d="M-841.853,979.084a6.4,6.4,0,0,1-6.333-6.459,6.442,6.442,0,0,1,6.391-6.351,6.4,6.4,0,0,1,6.315,6.476A6.348,6.348,0,0,1-841.853,979.084Zm0-2.161a4.2,4.2,0,0,0,4.226-4.187,4.214,4.214,0,0,0-4.2-4.285,4.219,4.219,0,0,0-4.2,4.228A4.215,4.215,0,0,0-841.849,976.923Z" transform="translate(-9.781 -9.709)" fill="#fff"/>
      <path id="Trazado_194438" data-name="Trazado 194438" d="M-770.939,981.847h-2.015V979.78h2.015Z" transform="translate(-55.383 -17.852)" fill="#fff"/>
      <path id="Trazado_194439" data-name="Trazado 194439" d="M-760.225,981.84h-2.007v-2.07h2.007Z" transform="translate(-61.882 -17.846)" fill="#fff"/>
      <path id="Trazado_194440" data-name="Trazado 194440" d="M-751.552,981.823v-2.046h2.041v2.046Z" transform="translate(-68.356 -17.85)" fill="#fff"/>
      <path id="Trazado_194441" data-name="Trazado 194441" d="M-738.748,981.818h-2.037v-2.066h2.037Z" transform="translate(-74.882 -17.835)" fill="#fff"/>
      <path id="Trazado_194442" data-name="Trazado 194442" d="M-797.8,1032.806h-2.032v-2.047h2.032Z" transform="translate(-39.089 -48.587)" fill="#fff"/>
      <path id="Trazado_194443" data-name="Trazado 194443" d="M-787.037,1032.817h-2.015v-2.067h2.015Z" transform="translate(-45.625 -48.581)" fill="#fff"/>
      <path id="Trazado_194444" data-name="Trazado 194444" d="M-778.35,1030.662h2.016v2.067h-2.016Z" transform="translate(-52.112 -48.528)" fill="#fff"/>
      <path id="Trazado_194445" data-name="Trazado 194445" d="M-767.646,1030.693h2.038v2.066h-2.038Z" transform="translate(-58.6 -48.547)" fill="#fff"/>
      <path id="Trazado_194446" data-name="Trazado 194446" d="M-824.606,1086.442h-2.038v-2.066h2.038Z" transform="translate(-22.839 -80.913)" fill="#fff"/>
      <path id="Trazado_194447" data-name="Trazado 194447" d="M-815.956,1086.444v-2.054h2.049v2.054Z" transform="translate(-29.317 -80.921)" fill="#fff"/>
      <path id="Trazado_194448" data-name="Trazado 194448" d="M-805.19,1084.365h2.023v2.051h-2.023Z" transform="translate(-35.843 -80.906)" fill="#fff"/>
      <path id="Trazado_194449" data-name="Trazado 194449" d="M-792.384,1084.385v2.035h-2.054v-2.035Z" transform="translate(-42.36 -80.918)" fill="#fff"/>
    </g>
  </g>
</svg>
