<svg xmlns="http://www.w3.org/2000/svg" width="74.95" height="100" viewBox="0 0 74.95 100">
  <g id="empleado" transform="translate(-64.129)">
    <g id="Grupo_136586" data-name="Grupo 136586" transform="translate(64.129)">
      <g id="Grupo_136585" data-name="Grupo 136585">
        <path id="Trazado_195016" data-name="Trazado 195016" d="M137.614,97.07h-7.149l.781-28.217A10.824,10.824,0,0,0,124.8,58.631l-8.335-3.707a1.479,1.479,0,0,0-.153-.057l-1.177-1.005a74.171,74.171,0,0,0,10.6-4.117,1.469,1.469,0,0,0,.657-1.961c-.03-.061-2.979-6.221-2.979-19.7V21.818a21.818,21.818,0,0,0-43.637,0v6.263c0,13.482-2.949,19.642-2.977,19.7a1.465,1.465,0,0,0,.655,1.965,74.138,74.138,0,0,0,10.6,4.117L86.733,55l-8.158,3.628a10.823,10.823,0,0,0-6.442,10.222l.781,28.217H65.594a1.465,1.465,0,0,0,0,2.93h72.02a1.465,1.465,0,0,0,0-2.93Zm-54.9-75.252a18.889,18.889,0,0,1,37.778,0v6.263c0,10.7,1.772,17.015,2.715,19.618a74.636,74.636,0,0,1-10.738,3.883l-.52-.444a1.464,1.464,0,0,0-1.052-.346V47.149a17.109,17.109,0,0,0,6.356-7.455,15.629,15.629,0,0,0,1.31-5.86c.169-6.607-5.5-8.28-11.5-10.052-5.027-1.484-10.725-3.166-15.4-7.711a1.465,1.465,0,0,0-2.043,2.1c5.192,5.05,11.523,6.919,16.611,8.421,6.424,1.9,9.507,2.993,9.4,7.167a12.67,12.67,0,0,1-1.061,4.752A14.173,14.173,0,0,1,87.664,35.36,3.049,3.049,0,0,0,84.5,32.875a1.647,1.647,0,0,1-.5-.042,1.846,1.846,0,0,1-1.28-1.825v-1.2a1.775,1.775,0,0,1,1.354-1.8,1.661,1.661,0,0,1,1.634.627,2.125,2.125,0,0,0,2.921.46,12.015,12.015,0,0,0,3.228-3.41,1.465,1.465,0,0,0-2.475-1.568A9.189,9.189,0,0,1,87.5,26.27a4.608,4.608,0,0,0-3.934-1.148,4.388,4.388,0,0,0-.847.24V21.819ZM95.24,53.956V48.67a17.066,17.066,0,0,0,12.727,0v5.289L103.546,60.1l-.014.022-.015.021-1.829,2.743a.1.1,0,0,1-.168,0l-1.829-2.743-.015-.021c-.005-.007-.009-.015-.014-.022Zm1.2,6.693-2.112,1.584a1.666,1.666,0,0,1-2.49-.588l-2.506-5.013L91.95,54.4Zm14.812-6.25,2.615,2.234-2.507,5.013a1.667,1.667,0,0,1-2.49.588l-2.112-1.584ZM80,47.7a49,49,0,0,0,2.418-12.345,4.263,4.263,0,0,0,.9.329,4.579,4.579,0,0,0,1.371.114.2.2,0,0,1,.091.092,17.077,17.077,0,0,0,7.528,11.264v3.638a1.464,1.464,0,0,0-1.052.346l-.52.444A74.657,74.657,0,0,1,80,47.7Zm-.236,13.609,7.063-3.141,2.394,4.789a4.595,4.595,0,0,0,6.869,1.621l2.022-1.517.97,1.454a3.03,3.03,0,0,0,5.043,0l.97-1.454,2.022,1.517a4.6,4.6,0,0,0,6.869-1.621l2.425-4.851,7.2,3.2a7.984,7.984,0,0,1,1.569.925l-5.325,6.656H83.52L78.2,62.233A8,8,0,0,1,79.765,61.308ZM78.406,73.74l1.218,21.919a4.584,4.584,0,0,0,.306,1.412H75.844l-.784-28.3a7.917,7.917,0,0,1,1.145-4.337l4.2,5.253a4.565,4.565,0,0,0-.752.638A4.614,4.614,0,0,0,78.406,73.74Zm43.471-.162L120.659,95.5A1.667,1.667,0,0,1,119,97.071H84.213A1.667,1.667,0,0,1,82.549,95.5L81.331,73.577a1.666,1.666,0,0,1,1.664-1.759h37.218a1.666,1.666,0,0,1,1.664,1.759Zm5.657,23.493h-4.256a4.584,4.584,0,0,0,.306-1.412L124.8,73.74a4.574,4.574,0,0,0-1.893-3.975l4.264-5.33a7.92,7.92,0,0,1,1.145,4.337Z" transform="translate(-64.129)" fill="#6836bf"/>
      </g>
    </g>
    <g id="Grupo_136588" data-name="Grupo 136588" transform="translate(96.225 79.848)">
      <g id="Grupo_136587" data-name="Grupo 136587">
        <path id="Trazado_195017" data-name="Trazado 195017" d="M233.838,408.822a5.379,5.379,0,1,0,5.379,5.379A5.385,5.385,0,0,0,233.838,408.822Zm0,7.828a2.449,2.449,0,1,1,2.449-2.449A2.452,2.452,0,0,1,233.838,416.65Z" transform="translate(-228.459 -408.822)" fill="#6836bf"/>
      </g>
    </g>
  </g>
</svg>
