<svg xmlns="http://www.w3.org/2000/svg" xmlns:xlink="http://www.w3.org/1999/xlink" width="190" height="112" viewBox="0 0 190 112">
  <defs>
    <linearGradient id="linear-gradient" x1="0.5" x2="0.5" y2="1" gradientUnits="objectBoundingBox">
      <stop offset="0" stop-color="#f7ca2e" stop-opacity="0"/>
      <stop offset="0.091" stop-color="#f7ca2e" stop-opacity="0.129"/>
      <stop offset="0.283" stop-color="#f7ca2e" stop-opacity="0.388"/>
      <stop offset="0.465" stop-color="#f7ca2e" stop-opacity="0.612"/>
      <stop offset="0.633" stop-color="#f7ca2e" stop-opacity="0.78"/>
      <stop offset="0.784" stop-color="#f7ca2e" stop-opacity="0.902"/>
      <stop offset="0.911" stop-color="#f7ca2e" stop-opacity="0.969"/>
      <stop offset="1" stop-color="#f7ca2e"/>
    </linearGradient>
    <linearGradient id="linear-gradient-2" x1="0.5" x2="0.5" y2="1" gradientUnits="objectBoundingBox">
      <stop offset="0" stop-color="#b13e8d" stop-opacity="0"/>
      <stop offset="0.091" stop-color="#b13e8d" stop-opacity="0.129"/>
      <stop offset="0.283" stop-color="#b13e8d" stop-opacity="0.388"/>
      <stop offset="0.465" stop-color="#b13e8d" stop-opacity="0.612"/>
      <stop offset="0.633" stop-color="#b13e8d" stop-opacity="0.78"/>
      <stop offset="0.784" stop-color="#b13e8d"/>
      <stop offset="0.911" stop-color="#b13e8d" stop-opacity="0.969"/>
      <stop offset="1" stop-color="#b13e8d"/>
    </linearGradient>
    <filter id="Rectángulo_40720" x="41" y="4" width="108" height="108" filterUnits="userSpaceOnUse">
      <feOffset dy="3" input="SourceAlpha"/>
      <feGaussianBlur stdDeviation="3" result="blur"/>
      <feFlood flood-opacity="0.161"/>
      <feComposite operator="in" in2="blur"/>
      <feComposite in="SourceGraphic"/>
    </filter>
  </defs>
  <g id="Grupo_136189" data-name="Grupo 136189" transform="translate(-180 -1997)">
    <g id="Grupo_128321" data-name="Grupo 128321" transform="translate(0 1598)">
      <rect id="Rectángulo_40586" data-name="Rectángulo 40586" width="190" height="20" transform="translate(180 444)" fill="none"/>
      <g id="Grupo_108405" data-name="Grupo 108405" transform="translate(209.5 463)">
        <path id="Rectángulo_5242" data-name="Rectángulo 5242" d="M0,0H12a0,0,0,0,1,0,0V43.333a3,3,0,0,1-3,3H3a3,3,0,0,1-3-3V0A0,0,0,0,1,0,0Z" transform="translate(0 0)" fill="url(#linear-gradient)"/>
      </g>
      <g id="Grupo_108406" data-name="Grupo 108406" transform="translate(340 451) rotate(180)">
        <path id="Rectángulo_5242-2" data-name="Rectángulo 5242" d="M0,0H12a0,0,0,0,1,0,0V49a3,3,0,0,1-3,3H3a3,3,0,0,1-3-3V0A0,0,0,0,1,0,0Z" transform="translate(0 0)" fill="url(#linear-gradient-2)"/>
      </g>
      <g transform="matrix(1, 0, 0, 1, 180, 399)" filter="url(#Rectángulo_40720)">
        <path id="Rectángulo_40720-2" data-name="Rectángulo 40720" d="M10,0H80A10,10,0,0,1,90,10V90a0,0,0,0,1,0,0H10A10,10,0,0,1,0,80V10A10,10,0,0,1,10,0Z" transform="translate(50 10)" fill="#f6f6f6"/>
      </g>
    </g>
    <g id="Grupo_136190" data-name="Grupo 136190" transform="translate(729.619 1991.544)">
      <path id="Trazado_194094" data-name="Trazado 194094" d="M-161.293,373.922a3.815,3.815,0,0,1-2.552,2.609,3.511,3.511,0,0,1-4.144-1.924,3.369,3.369,0,0,1,1.255-4.314,1.365,1.365,0,0,0,.784-1.508c-.044-.446-.008-.9-.008-1.392h-16.3c0,.745-.036,1.47.024,2.186.016.191.3.4.5.529a3.4,3.4,0,0,1,1.766,3.3,3.355,3.355,0,0,1-2.418,3.08,3.5,3.5,0,0,1-4.275-1.889,3.408,3.408,0,0,1,1.422-4.429.978.978,0,0,0,.59-1.061c-.039-.544-.015-1.093-.007-1.639a2.356,2.356,0,0,1,2.483-2.495c1.981-.032,3.963-.009,5.945-.01h.855V361.5H-185.7c-.439-2.559.422-4.084,2.717-4.936,1.467-.545,2.931-1.1,4.453-1.669a4.659,4.659,0,0,0,4.358,3.05,4.625,4.625,0,0,0,4.441-3.049q1.553.574,3.1,1.147c.489.181.979.363,1.466.55a3.709,3.709,0,0,1,2.738,3.994c0,.269,0,.538,0,.878h-10.454v3.463c.226.012.465.036.7.036,1.959,0,3.918-.006,5.876,0a2.388,2.388,0,0,1,2.679,2.7c0,.2.016.411,0,.615a1.975,1.975,0,0,0,1.013,2.225c.6.348.888,1.253,1.316,1.908Zm-22.171-1.915a1.129,1.129,0,0,0-1.116,1.126,1.143,1.143,0,0,0,1.138,1.179,1.149,1.149,0,0,0,1.115-1.135A1.127,1.127,0,0,0-183.464,372.008Zm19.828,1.133a1.2,1.2,0,0,0-1.207-1.132,1.18,1.18,0,0,0-1.1,1.162,1.2,1.2,0,0,0,1.2,1.141A1.209,1.209,0,0,0-163.636,373.141Z" transform="translate(-258.322 -281.05)" fill="#6836bf"/>
      <path id="Trazado_194095" data-name="Trazado 194095" d="M-297.027,25.623a10.765,10.765,0,0,1,3.694,1.633,8.149,8.149,0,0,1,3.224,6.969c-1.015-.165-2.03-.332-3.047-.494a4.438,4.438,0,0,1-2.589-1.4c-.372-.4-.724-.812-1.1-1.235-.591.383-1.063.688-1.534,1a11.125,11.125,0,0,1-5.724,1.742,15.381,15.381,0,0,0-2.3.443c-.436-3.548,2.28-7.392,5.952-8.369.323-.086.641-.189.961-.284Z" transform="translate(-156.349)" fill="#6836bf"/>
      <path id="Trazado_194096" data-name="Trazado 194096" d="M-319.957,210.2c-1.452,0-2.792,0-4.133,0-1.994,0-2.854-.874-2.855-2.881,0-1.321-.006-2.642,0-3.963a2.356,2.356,0,0,1,2.523-2.513c1.454,0,2.909,0,4.413,0v-6.975h-10.338c-.455-2.472.438-4.083,2.665-4.914,1.468-.548,2.947-1.071,4.4-1.663a.74.74,0,0,1,1.054.324c.971,1.348,1.982,2.667,2.981,4,.147.2.306.382.508.634,1.139-1.515,2.279-2.957,3.328-4.462a.982.982,0,0,1,1.436-.406c1.335.568,2.712,1.039,4.072,1.548,2.3.86,3.16,2.374,2.753,4.935h-10.367v6.983h1c1.184,0,2.369-.007,3.553,0a2.332,2.332,0,0,1,2.395,2.363c.023,1.48.012,2.961,0,4.441a2.363,2.363,0,0,1-2.5,2.545c-1.229.029-2.46.007-3.69.007h-.8v.756q0,7.551-.009,15.1a.9.9,0,0,0,.551.942,3.431,3.431,0,0,1,1.656,3.9,3.528,3.528,0,0,1-3.224,2.6,3.515,3.515,0,0,1-3.537-2.46,3.361,3.361,0,0,1,1.5-3.956,1.191,1.191,0,0,0,.671-1.226c-.02-4.92-.012-9.84-.012-14.76Zm-4.559-6.984v4.574h11.522v-4.574ZM-317.633,230a1.119,1.119,0,0,0-1.1-1.14,1.121,1.121,0,0,0-1.148,1.156,1.139,1.139,0,0,0,1.1,1.149A1.139,1.139,0,0,0-317.633,230Z" transform="translate(-135.852 -137.906)" fill="#6836bf"/>
      <path id="Trazado_194097" data-name="Trazado 194097" d="M-488.394,361.374c-.347-2.621.594-4.3,2.929-5.017,1.448-.443,2.844-1.053,4.3-1.6a4.632,4.632,0,0,0,4.392,3.053,4.656,4.656,0,0,0,4.418-3.074c1.833.71,3.682,1.338,5.451,2.142a3.122,3.122,0,0,1,1.79,2.866c.024.5,0,1,0,1.585h-10.409v3.465c.246.013.487.036.727.036,1.913,0,3.827,0,5.74,0s2.811.9,2.814,2.79c0,.114.008.228,0,.342a2.258,2.258,0,0,0,1.068,2.47,3.136,3.136,0,0,1,.986,3.918,3.533,3.533,0,0,1-3.609,2.157,3.562,3.562,0,0,1-3.04-2.575,3.35,3.35,0,0,1,1.532-3.828,1.165,1.165,0,0,0,.678-1.3c-.042-.5-.009-1-.009-1.549h-16.3c0,.735-.025,1.48.021,2.221.01.157.256.338.434.438a3.484,3.484,0,0,1,1.773,3.986,3.486,3.486,0,0,1-3.489,2.609,3.5,3.5,0,0,1-3.335-2.721,3.421,3.421,0,0,1,1.794-3.844.738.738,0,0,0,.467-.787c-.03-.591-.009-1.184-.007-1.776a2.338,2.338,0,0,1,2.549-2.549c1.959-.021,3.918-.005,5.877-.006H-478v-3.457Zm20.943,12.8a1.141,1.141,0,0,0,1.139-1.11,1.13,1.13,0,0,0-1.113-1.195,1.122,1.122,0,0,0-1.137,1.1A1.147,1.147,0,0,0-467.451,374.172Zm-17.5-1.178a1.183,1.183,0,0,0-1.2-1.126,1.2,1.2,0,0,0-1.1,1.169,1.213,1.213,0,0,0,1.145,1.137A1.2,1.2,0,0,0-484.95,372.994Z" transform="translate(0 -280.911)" fill="#6836bf"/>
      <path id="Trazado_194098" data-name="Trazado 194098" d="M-441.315,201.3a6.842,6.842,0,0,0-3.987-.7q-4.064,0-8.127,0c-1.424,0-2.871-.162-4.261.659a8.046,8.046,0,0,1,3.7-7.479,7.727,7.727,0,0,1,8.865-.06C-442.443,195.4-441.292,197.968-441.315,201.3Z" transform="translate(-27.253 -142.306)" fill="#6836bf"/>
      <path id="Trazado_194099" data-name="Trazado 194099" d="M-155.1,201.4a8.211,8.211,0,0,1,8.18-8.676,8.169,8.169,0,0,1,8.133,8.629c-1.073-.178-2.152-.347-3.228-.538a4.59,4.59,0,0,1-2.588-1.541c-.307-.334-.606-.677-.943-1.054l-1.316.871a10.939,10.939,0,0,1-5.9,1.848A13.867,13.867,0,0,0-155.1,201.4Z" transform="translate(-285.511 -142.628)" fill="#6836bf"/>
      <path id="Trazado_194100" data-name="Trazado 194100" d="M-282.427,85.515a13.28,13.28,0,0,0,5.66-1.926,7.6,7.6,0,0,0,3.357,1.828c.14.032.3.365.3.56.021,1.5.033,3-.005,4.5a4.63,4.63,0,0,1-3.99,4.422,4.655,4.655,0,0,1-5.132-3.335,9.348,9.348,0,0,1-.183-2.16C-282.446,88.136-282.427,86.864-282.427,85.515Z" transform="translate(-176.845 -49.476)" fill="#6836bf"/>
      <path id="Trazado_194101" data-name="Trazado 194101" d="M-131.089,253.187c1.05-.252,2.038-.417,2.976-.733.919-.309,1.786-.771,2.758-1.2a7.67,7.67,0,0,0,3.349,1.8c.117.029.244.3.245.463.009,1.569.048,3.141-.03,4.707a4.584,4.584,0,0,1-4.733,4.307,4.63,4.63,0,0,1-4.563-4.571C-131.1,256.345-131.089,254.736-131.089,253.187Z" transform="translate(-306.021 -192.582)" fill="#6836bf"/>
      <path id="Trazado_194102" data-name="Trazado 194102" d="M-433.732,264.754h9.19a40.281,40.281,0,0,1-.054,5.721c-.344,2.365-2.565,3.757-5.063,3.542a4.581,4.581,0,0,1-4.059-4.343C-433.788,268.063-433.732,266.446-433.732,264.754Z" transform="translate(-47.688 -204.107)" fill="#6836bf"/>
      <path id="Trazado_194103" data-name="Trazado 194103" d="M-115.129,341.38a7.313,7.313,0,0,0,4.594.015,2.176,2.176,0,0,1-.9,2.276,2.2,2.2,0,0,1-2.492.172A2.3,2.3,0,0,1-115.129,341.38Z" transform="translate(-319.631 -269.511)" fill="#6836bf"/>
      <path id="Trazado_194104" data-name="Trazado 194104" d="M-417.7,341.415a7.427,7.427,0,0,0,4.61-.014,2.254,2.254,0,0,1-.978,2.327,2.2,2.2,0,0,1-2.556.066A2.274,2.274,0,0,1-417.7,341.415Z" transform="translate(-61.37 -269.529)" fill="#6836bf"/>
      <path id="Trazado_194105" data-name="Trazado 194105" d="M-264.382,177.192l-2.374-3.169a8.247,8.247,0,0,0,4.638.161Z" transform="translate(-190.226 -126.665)" fill="#6836bf"/>
      <path id="Trazado_194106" data-name="Trazado 194106" d="M-456.49,270.869a2.321,2.321,0,0,1-1.159-2.127,2.24,2.24,0,0,1,1.159-1.877Z" transform="translate(-27.289 -205.909)" fill="#6836bf"/>
      <path id="Trazado_194107" data-name="Trazado 194107" d="M-51.3,266.8a2.285,2.285,0,0,1,1.154,1.962A2.311,2.311,0,0,1-51.3,270.81Z" transform="translate(-374.124 -205.858)" fill="#6836bf"/>
      <path id="Trazado_194108" data-name="Trazado 194108" d="M-305.2,99.37v4.005a2.146,2.146,0,0,1-1.177-1.812A2.344,2.344,0,0,1-305.2,99.37Z" transform="translate(-156.398 -62.946)" fill="#6836bf"/>
      <path id="Trazado_194109" data-name="Trazado 194109" d="M-202.783,103.835V99.843a2.053,2.053,0,0,1,1.177,1.794A2.345,2.345,0,0,1-202.783,103.835Z" transform="translate(-244.83 -63.35)" fill="#6836bf"/>
      <path id="Trazado_194110" data-name="Trazado 194110" d="M-354.11,266.81a2.267,2.267,0,0,1,0,3.971V266.81Z" transform="translate(-115.667 -205.862)" fill="#6836bf"/>
      <path id="Trazado_194111" data-name="Trazado 194111" d="M-153.93,266.737V270.7a2.078,2.078,0,0,1-1.153-1.81A2.321,2.321,0,0,1-153.93,266.737Z" transform="translate(-285.538 -205.8)" fill="#6836bf"/>
    </g>
  </g>
</svg>
