<svg xmlns="http://www.w3.org/2000/svg" width="96.608" height="96.608" viewBox="0 0 96.608 96.608">
  <g id="Grupo_136481" data-name="Grupo 136481" transform="translate(-361.892 -1644.893)">
    <circle id="Elipse_5389" data-name="Elipse 5389" cx="48.304" cy="48.304" r="48.304" transform="translate(361.892 1644.893)" fill="#b13e8d"/>
    <g id="Grupo_136480" data-name="Grupo 136480" transform="translate(0.305 6.001)">
      <path id="Trazado_194229" data-name="Trazado 194229" d="M-319.667,887.339a.914.914,0,0,0-.1.192,4.479,4.479,0,0,1-4.463,3.51c-4.157.019-8.314.026-12.471,0a4.449,4.449,0,0,1-4.536-4.483c-.033-1.447.007-2.9-.022-4.344a1.413,1.413,0,0,0-.285-.8c-1.237-1.538-2.5-3.056-3.758-4.577-.316-.382-.67-.75-.392-1.3.259-.514.738-.5,1.22-.494,1.051.01,2.1,0,3.245,0,0-.6-.02-1.158,0-1.715a4.345,4.345,0,0,1,4.123-4.155c2.707-.062,5.417-.029,8.125-.024.581,0,.856.285.863.811a.819.819,0,0,1-.923.892c-2.521.007-5.041,0-7.562,0a2.755,2.755,0,0,0-2.935,2.921c0,.677.009,1.354,0,2.031a.849.849,0,0,1-.942.943c-.837.014-1.673,0-2.648,0,1,1.214,1.868,2.343,2.817,3.4a2.833,2.833,0,0,1,.794,2.18c-.066,1.37-.021,2.745-.016,4.119a2.687,2.687,0,0,0,2.724,2.832q6.348.048,12.7,0a2.7,2.7,0,0,0,2.75-2.821q.024-6.376,0-12.753a2.759,2.759,0,0,0-2.9-2.855c-.443,0-.84-.062-1.018-.527a.86.86,0,0,1,.844-1.2,4.5,4.5,0,0,1,4.571,3.138c.056.173.132.339.2.509Z" transform="translate(758.485 795.188)" fill="#f7f4ff"/>
      <path id="Trazado_194228" data-name="Trazado 194228" d="M-363.348,921.313c-.268-.285-.557-.554-.8-.858-1.083-1.349-2.144-2.715-3.233-4.059a2,2,0,0,1-.462-1.341c.012-7.713,0-15.425.021-23.137a.855.855,0,0,0-.653-.965,12.436,12.436,0,0,1-3.972-2.417,1.224,1.224,0,0,1-.409-.847.812.812,0,0,1,1.338-.569,15.028,15.028,0,0,0,4.839,2.7c.251.085.427.471.574.751a1.316,1.316,0,0,1,.022.557q0,11.766-.008,23.532a1.582,1.582,0,0,0,.379,1.072c.889,1.09,1.754,2.2,2.65,3.328.93-1.209,1.841-2.38,2.732-3.567a1.026,1.026,0,0,0,.155-.573c.007-1.185.013-2.371-.028-3.555a1.086,1.086,0,0,0-.343-.688c-.419-.374-.9-.676-1.345-1.024a.854.854,0,0,1-.012-1.5c.412-.327.842-.632,1.265-.945.586-.436.592-.628.024-1.053-.392-.293-.788-.579-1.177-.875-.754-.575-.759-1.112-.017-1.68a11.572,11.572,0,0,1,1.047-.764,1.019,1.019,0,0,0,.526-1.013c-.026-3.555-.024-7.11-.029-10.666,0-1.05.082-1.167,1.059-1.5a12.456,12.456,0,0,0,8.493-12.813,12.658,12.658,0,0,0-11.351-11.542,12.337,12.337,0,0,0-13.4,9.779,12.128,12.128,0,0,0,1.032,8.163c.409.84.371,1.279-.159,1.561-.56.3-.951.075-1.386-.793a14.205,14.205,0,0,1,9.88-20.242,14.418,14.418,0,0,1,16.955,11.735,14.142,14.142,0,0,1-8.832,15.523.715.715,0,0,0-.546.806c.021,3.461-.007,6.923.035,10.383a1.725,1.725,0,0,1-.885,1.729,6.459,6.459,0,0,0-.637.471c.655.652,1.579.962,1.572,2.2-.007,1.226-.756,1.657-1.581,2.261.358.274.668.532,1,.76a1.169,1.169,0,0,1,.534,1.046c.007,1.505.062,3.009.062,4.514a1.676,1.676,0,0,1-.256.944c-1.187,1.6-2.412,3.173-3.627,4.752-.111.145-.24.275-.361.411Z" transform="translate(759.051 795.188)" fill="#f7f4ff"/>
      <path id="Trazado_194230" data-name="Trazado 194230" d="M-348.547,896.018v-2.9c0-1.2.006-2.408,0-3.612a.933.933,0,0,1,.56-1.007.945.945,0,0,1,1.131.391c1.874,2.233,3.768,4.449,5.632,6.69a1.1,1.1,0,0,0,.957.431q6.489-.02,12.98-.005a4.983,4.983,0,0,1,5.042,3.477,6.4,6.4,0,0,1,.284,1.88c.023,4.835.018,9.669.011,14.5a5.111,5.111,0,0,1-4.168,5.27,5.233,5.233,0,0,1-1.01.073q-4.572.008-9.143,0c-.094,0-.188,0-.282-.009a.81.81,0,0,1-.786-.809.85.85,0,0,1,.782-.878,4.526,4.526,0,0,1,.508-.008q4.43,0,8.86,0a3.32,3.32,0,0,0,3.485-3.465q.016-7.42,0-14.842a3.311,3.311,0,0,0-3.518-3.484c-4.552,0-9.1-.009-13.657.008a1.527,1.527,0,0,1-1.3-.614c-1.414-1.71-2.858-3.395-4.292-5.089-.068-.08-.143-.153-.293-.313-.017.286-.035.464-.036.641,0,1.373,0,2.746,0,4.12,0,.981-.266,1.231-1.231,1.249a21.441,21.441,0,0,0-3.089.125,3.1,3.1,0,0,0-2.534,2.982c-.053,1.485-.027,2.972-.028,4.458,0,3.5.055,7-.019,10.5a3.54,3.54,0,0,0,3.759,3.751c3.007-.085,6.019-.024,9.029-.02a.9.9,0,0,1,1.009.835c.014.5-.368.846-.97.866-.113,0-.226,0-.339,0-2.916,0-5.832,0-8.747-.005a6.8,6.8,0,0,1-1.4-.1,5,5,0,0,1-4.053-4.891q-.053-7.59,0-15.181a5.015,5.015,0,0,1,4.922-5.013C-349.88,896-349.26,896.018-348.547,896.018Z" transform="translate(759.051 795.188)" fill="#f7f4ff"/>
      <path id="Trazado_194231" data-name="Trazado 194231" d="M-338.727,913.96q-4.68,0-9.361,0c-.482,0-.9-.077-1.069-.617a.813.813,0,0,1,.6-1.079,3.521,3.521,0,0,1,.727-.051q9.137,0,18.271,0a5.333,5.333,0,0,1,.619.025.8.8,0,0,1,.748.839.832.832,0,0,1-.783.872,4.079,4.079,0,0,1-.507.01Z" transform="translate(759.051 795.188)" fill="#f7f4ff"/>
      <path id="Trazado_194232" data-name="Trazado 194232" d="M-363.218,876.159a3.991,3.991,0,0,1-3.959-3.948,3.948,3.948,0,0,1,3.9-3.935,4,4,0,0,1,3.986,3.982A3.93,3.93,0,0,1-363.218,876.159Zm-.033-6.146a2.188,2.188,0,0,0-2.2,2.174,2.265,2.265,0,0,0,2.264,2.257,2.222,2.222,0,0,0,2.174-2.215A2.238,2.238,0,0,0-363.251,870.013Z" transform="translate(759.051 795.188)" fill="#f7f4ff"/>
      <path id="Trazado_194233" data-name="Trazado 194233" d="M-335.3,904.759h-6.141c-.5,0-.95-.088-1.041-.7a.821.821,0,0,1,.83-1.021c.094-.006.188,0,.282,0h12.056a2.581,2.581,0,0,1,.394.01.791.791,0,0,1,.723.859.74.74,0,0,1-.738.828c-.9.026-1.8.022-2.7.025Q-333.466,904.764-335.3,904.759Z" transform="translate(759.051 795.188)" fill="#f7f4ff"/>
      <path id="Trazado_194234" data-name="Trazado 194234" d="M-333.47,907.65c1.427,0,2.853,0,4.28,0,.664,0,1.019.31,1.009.858s-.364.837-1.037.837q-4.28,0-8.561,0c-.668,0-1.029-.3-1.04-.837s.355-.856,1.012-.858C-336.362,907.647-334.916,907.65-333.47,907.65Z" transform="translate(759.051 795.188)" fill="#f7f4ff"/>
      <path id="Trazado_194235" data-name="Trazado 194235" d="M-330.617,880.931c-1.372,0-2.745,0-4.117,0-.784,0-1.112-.27-1.1-.874.012-.573.349-.836,1.087-.836q4.23,0,8.459,0c.826,0,1.33.678.906,1.265a1.28,1.28,0,0,1-.894.426C-327.721,880.955-329.17,880.93-330.617,880.931Z" transform="translate(759.051 795.188)" fill="#f7f4ff"/>
      <path id="Trazado_194236" data-name="Trazado 194236" d="M-345.345,909.347c-.976,0-1.952.006-2.928,0a.839.839,0,0,1-.937-.826.836.836,0,0,1,.946-.867q2.928-.008,5.856,0a.835.835,0,0,1,.938.819.847.847,0,0,1-.946.874C-343.392,909.353-344.369,909.347-345.345,909.347Z" transform="translate(759.051 795.188)" fill="#f7f4ff"/>
      <path id="Trazado_194237" data-name="Trazado 194237" d="M-327.672,876.976c-.507,0-1.015.014-1.521,0a.864.864,0,0,1-.933-.845.876.876,0,0,1,.929-.856q1.521-.018,3.043,0a.792.792,0,0,1,.868.825.782.782,0,0,1-.865.875C-326.657,876.99-327.165,876.976-327.672,876.976Z" transform="translate(759.051 795.188)" fill="#f7f4ff"/>
      <path id="Trazado_194238" data-name="Trazado 194238" d="M-346.987,904.746c-.468,0-.937.021-1.4,0a.816.816,0,0,1-.819-.822.827.827,0,0,1,.833-.874c.917-.021,1.835-.02,2.752,0a.8.8,0,0,1,.836.863.779.779,0,0,1-.794.833C-346.05,904.767-346.519,904.745-346.987,904.746Z" transform="translate(759.051 795.188)" fill="#f7f4ff"/>
      <path id="Trazado_194239" data-name="Trazado 194239" d="M-333.833,875.269c.394,0,.788-.015,1.18,0a.794.794,0,0,1,.82.869.748.748,0,0,1-.792.823q-1.207.036-2.415,0a.748.748,0,0,1-.793-.824.794.794,0,0,1,.821-.868C-334.62,875.254-334.226,875.269-333.833,875.269Z" transform="translate(759.051 795.188)" fill="#f7f4ff"/>
      <path id="Trazado_194240" data-name="Trazado 194240" d="M-333.857,883.171c.412,0,.825-.017,1.236,0a.79.79,0,0,1,.79.842.748.748,0,0,1-.77.845q-1.234.039-2.471,0a.747.747,0,0,1-.762-.852.8.8,0,0,1,.8-.838c.038,0,.075,0,.113,0h1.067Z" transform="translate(759.051 795.188)" fill="#f7f4ff"/>
    </g>
  </g>
</svg>
