<svg xmlns="http://www.w3.org/2000/svg" width="96.608" height="96.608" viewBox="0 0 96.608 96.608">
  <g id="Grupo_136615" data-name="Grupo 136615" transform="translate(-622.247 -1607.699)">
    <circle id="Elipse_6834" data-name="Elipse 6834" cx="48.304" cy="48.304" r="48.304" transform="translate(622.247 1607.699)" fill="#b13e8d"/>
    <g id="Grupo_136479" data-name="Grupo 136479" transform="translate(-5.1 -28.337)">
      <path id="Trazado_194204" data-name="Trazado 194204" d="M-291.953,944.748a3.011,3.011,0,0,1,2.119-2.123,3.006,3.006,0,0,1,.707-.087q13.943-.006,27.886-.009a2,2,0,0,1,1.484.612q2.955,2.955,5.909,5.907a2.122,2.122,0,0,1,.641,1.588c-.011,3.135,0,6.27-.012,9.406a.664.664,0,0,0,.462.736,15.674,15.674,0,0,1,9.735,12.413,15.383,15.383,0,0,1-1.923,10.322.537.537,0,0,0,.109.789c2.775,2.754,5.474,5.588,8.322,8.265,2.053,1.929,1.585,5.714-1.338,6.572-.031.009-.053.048-.08.073h-2.1a7.244,7.244,0,0,1-2.48-1.873q-3.546-3.574-7.117-7.124c-.878-.878-.878-.878-2-.3-.033.017-.066.032-.1.048-.488.242-1.182.364-1.408.756-.248.431-.068,1.111-.07,1.682a2.851,2.851,0,0,1-3.038,3.046q-16.35,0-32.7,0a3.716,3.716,0,0,1-.766-.07,3.034,3.034,0,0,1-2.237-2.138Zm30.223-.326h-26.845c-1.238,0-1.49.252-1.49,1.489v46.1c0,1.288.234,1.525,1.508,1.525h31.935a4.725,4.725,0,0,0,.663-.026.843.843,0,0,0,.8-.782c.042-.484.009-.975.009-1.474a16.127,16.127,0,0,1-19.835-14.4,15.358,15.358,0,0,1,3.56-11.366c4.272-5.092,9.791-6.773,16.274-5.556v-8.812c-.066-.028-.1-.054-.131-.054-1.162-.006-2.324-.007-3.486-.014a2.839,2.839,0,0,1-2.965-2.952C-261.734,946.9-261.73,945.7-261.73,944.422Zm16.987,31.194a14.136,14.136,0,0,0-14.214-14.164,14.112,14.112,0,0,0-14.078,14.235,14.14,14.14,0,0,0,14.206,14.061A14.143,14.143,0,0,0-244.743,975.616Zm-1.029,15.7a.127.127,0,0,0,.028.065c1.812,1.811,3.6,3.644,5.46,5.408a2.246,2.246,0,0,0,1.407.46,1.607,1.607,0,0,0,1.553-1.127,1.751,1.751,0,0,0-.4-1.99c-1.788-1.808-3.6-3.6-5.4-5.394a.079.079,0,0,0-.056-.02Zm-1.4-1.464,2.515-2.518-1.525-1.557-2.549,2.519Zm-9.567-40.735-3.092-3.061c0,.646-.026,1.4.008,2.147a.862.862,0,0,0,.864.905C-258.19,949.144-257.421,949.12-256.736,949.12Z" transform="translate(939.255 713.47)" fill="#f7f4ff"/>
      <path id="Trazado_194205" data-name="Trazado 194205" d="M-273.747,951.983a2.841,2.841,0,0,1-.281,4.029,2.672,2.672,0,0,1-1.76.689q-.5.006-.995,0a1.865,1.865,0,0,1-1.962-1.884q-.053-2.847,0-5.7a1.821,1.821,0,0,1,1.816-1.855,5.875,5.875,0,0,1,1.963.161,2.77,2.77,0,0,1,1.51,4.093C-273.548,951.679-273.651,951.832-273.747,951.983Zm-3.028-2.8v1.849c.6-.027,1.253.186,1.618-.428a1.171,1.171,0,0,0,.034-.964C-275.468,948.946-276.154,949.207-276.775,949.178Zm.014,3.8v1.811c1.284.083,1.8-.207,1.773-.963C-275.015,953.1-275.532,952.847-276.761,952.978Z" transform="translate(939.255 713.47)" fill="#f7f4ff"/>
      <path id="Trazado_194206" data-name="Trazado 194206" d="M-282.531,953.931h-1.858c0,.585.01,1.133,0,1.681-.017.711-.37,1.1-.967,1.09-.579-.009-.94-.428-.941-1.122-.005-1.824-.011-3.647,0-5.47a2.826,2.826,0,0,1,2.718-2.854,2.724,2.724,0,0,1,2.927,2.545c.106,1.983.06,3.975.041,5.963a.909.909,0,0,1-1.008.937.957.957,0,0,1-.9-.995C-282.546,955.122-282.531,954.537-282.531,953.931Zm-.005-2.005c0-.671.016-1.277,0-1.882a.875.875,0,0,0-.825-.872.851.851,0,0,0-.973.761c-.053.651-.013,1.31-.013,1.993Z" transform="translate(939.255 713.47)" fill="#f7f4ff"/>
      <path id="Trazado_194207" data-name="Trazado 194207" d="M-271.241,951.965a12.223,12.223,0,0,1,.234-2.019,3.779,3.779,0,0,1,6.268-1.614.98.98,0,0,1,.136,1.463.964.964,0,0,1-1.424-.048,1.833,1.833,0,0,0-2.131-.411,1.863,1.863,0,0,0-1.11,1.925c.016.552,0,1.106.005,1.659a1.8,1.8,0,0,0,1.007,1.658,1.794,1.794,0,0,0,1.934-.119c.722-.471,1.236-.461,1.587.035.363.514.177,1.1-.531,1.561a3.633,3.633,0,0,1-3.777.271,3.58,3.58,0,0,1-2.111-3.139c-.028-.4-.005-.81-.005-1.215Z" transform="translate(939.255 713.47)" fill="#f7f4ff"/>
      <path id="Trazado_194208" data-name="Trazado 194208" d="M-278.73,960.47q3.7,0,7.4,0c.742,0,1.159.421,1.082,1.073a.85.85,0,0,1-.776.8,4.075,4.075,0,0,1-.606.024h-14.2c-.955,0-1.392-.293-1.4-.935-.009-.667.435-.969,1.425-.969Z" transform="translate(939.255 713.47)" fill="#f7f4ff"/>
      <path id="Trazado_194209" data-name="Trazado 194209" d="M-280.121,988.81c2.01,0,4.021,0,6.031,0a.961.961,0,0,1,1.03.808.878.878,0,0,1-.54.989,1.935,1.935,0,0,1-.756.1q-4.011.009-8.023,0c-1.217,0-2.434,0-3.651,0-.785,0-1.215-.358-1.2-.972.014-.594.437-.929,1.189-.93Q-283.081,988.807-280.121,988.81Z" transform="translate(939.255 713.47)" fill="#f7f4ff"/>
      <path id="Trazado_194210" data-name="Trazado 194210" d="M-280.606,986.016h-5.255a3.839,3.839,0,0,1-.442-.009.97.97,0,0,1-.926-.982.966.966,0,0,1,.9-.946,1.134,1.134,0,0,1,.165-.009c3.687,0,7.375-.006,11.062,0a.968.968,0,0,1,1.074,1.15c-.08.5-.488.788-1.162.79C-276.993,986.019-278.8,986.016-280.606,986.016Z" transform="translate(939.255 713.47)" fill="#f7f4ff"/>
      <path id="Trazado_194211" data-name="Trazado 194211" d="M-280.605,965.2c1.825,0,3.65,0,5.475,0,.534,0,.956.159,1.1.717.168.671-.3,1.184-1.066,1.186-2.028.006-4.056,0-6.083,0-1.641,0-3.281,0-4.922,0-.7,0-1.115-.356-1.126-.938s.4-.957,1.1-.961C-284.291,965.2-282.448,965.2-280.605,965.2Z" transform="translate(939.255 713.47)" fill="#f7f4ff"/>
      <path id="Trazado_194212" data-name="Trazado 194212" d="M-281.544,971.846c-1.474,0-2.948.005-4.422,0-.235,0-.544.015-.688-.119a1.436,1.436,0,0,1-.534-.861c0-.29.306-.618.551-.85.131-.124.419-.108.636-.109q4.449-.009,8.9,0a2.31,2.31,0,0,1,.276.007.953.953,0,0,1,.925.975.933.933,0,0,1-.945.952c-.606.034-1.216.012-1.824.012Z" transform="translate(939.255 713.47)" fill="#f7f4ff"/>
      <path id="Trazado_194213" data-name="Trazado 194213" d="M-281.607,981.275q-2.238,0-4.476,0c-.733,0-1.155-.364-1.146-.971.008-.579.413-.928,1.126-.929q4.531-.008,9.063,0c.759,0,1.148.343,1.14.964-.009.6-.422.935-1.176.936Q-279.341,981.278-281.607,981.275Z" transform="translate(939.255 713.47)" fill="#f7f4ff"/>
      <path id="Trazado_194214" data-name="Trazado 194214" d="M-282.021,976.543c-1.345,0-2.689,0-4.034,0-.752,0-1.169-.344-1.175-.938-.006-.617.424-.963,1.208-.963q4.061,0,8.121,0a.95.95,0,0,1,1.033.728.841.841,0,0,1-.435,1.028,1.61,1.61,0,0,1-.741.142C-279.369,976.55-280.7,976.543-282.021,976.543Z" transform="translate(939.255 713.47)" fill="#f7f4ff"/>
      <path id="Trazado_194215" data-name="Trazado 194215" d="M-271.206,975.559a12.312,12.312,0,0,1,10.567-12.114,13.481,13.481,0,0,1,1.6-.124c.679-.02,1.07.321,1.089.9.02.6-.379.984-1.063,1a9.923,9.923,0,0,0-6.868,2.735,9.907,9.907,0,0,0-2.923,10.584,9.8,9.8,0,0,0,8.21,7.276,10.32,10.32,0,0,0,12.03-8.907,10.4,10.4,0,0,0-6.385-10.917c-.153-.063-.31-.116-.46-.186a.93.93,0,0,1-.564-1.212.921.921,0,0,1,1.262-.552,12.75,12.75,0,0,1,2.041.966c4.292,2.7,6.411,6.6,5.987,11.669a12.086,12.086,0,0,1-9.743,10.956,12.3,12.3,0,0,1-14.6-10.205C-271.116,976.809-271.149,976.182-271.206,975.559Z" transform="translate(939.255 713.47)" fill="#f7f4ff"/>
      <path id="Trazado_194216" data-name="Trazado 194216" d="M-261.025,978.842c.359-.587.648-1.052.931-1.523q2.031-3.384,4.057-6.772a1.04,1.04,0,0,1,1.062-.638.947.947,0,0,1,.682,1.434c-.3.568-.653,1.111-.985,1.663q-2.243,3.742-4.488,7.483c-.592.988-1.147,1.051-1.961.235-.508-.509-1.022-1.011-1.522-1.528a.956.956,0,0,1-.089-1.421.973.973,0,0,1,1.423.065C-261.617,978.135-261.355,978.468-261.025,978.842Z" transform="translate(939.255 713.47)" fill="#f7f4ff"/>
    </g>
  </g>
</svg>
