<svg xmlns="http://www.w3.org/2000/svg" xmlns:xlink="http://www.w3.org/1999/xlink" width="190" height="112" viewBox="0 0 190 112">
  <defs>
    <linearGradient id="linear-gradient" x1="0.5" x2="0.5" y2="1" gradientUnits="objectBoundingBox">
      <stop offset="0" stop-color="#f7ca2e" stop-opacity="0"/>
      <stop offset="0.091" stop-color="#f7ca2e" stop-opacity="0.129"/>
      <stop offset="0.283" stop-color="#f7ca2e" stop-opacity="0.388"/>
      <stop offset="0.465" stop-color="#f7ca2e" stop-opacity="0.612"/>
      <stop offset="0.633" stop-color="#f7ca2e" stop-opacity="0.78"/>
      <stop offset="0.784" stop-color="#f7ca2e" stop-opacity="0.902"/>
      <stop offset="0.911" stop-color="#f7ca2e" stop-opacity="0.969"/>
      <stop offset="1" stop-color="#f7ca2e"/>
    </linearGradient>
    <linearGradient id="linear-gradient-2" x1="0.5" x2="0.5" y2="1" gradientUnits="objectBoundingBox">
      <stop offset="0" stop-color="#b13e8d" stop-opacity="0"/>
      <stop offset="0.091" stop-color="#b13e8d" stop-opacity="0.129"/>
      <stop offset="0.283" stop-color="#b13e8d" stop-opacity="0.388"/>
      <stop offset="0.465" stop-color="#b13e8d" stop-opacity="0.612"/>
      <stop offset="0.633" stop-color="#b13e8d" stop-opacity="0.78"/>
      <stop offset="0.784" stop-color="#b13e8d"/>
      <stop offset="0.911" stop-color="#b13e8d" stop-opacity="0.969"/>
      <stop offset="1" stop-color="#b13e8d"/>
    </linearGradient>
    <filter id="Rectángulo_40720" x="41" y="4" width="108" height="108" filterUnits="userSpaceOnUse">
      <feOffset dy="3" input="SourceAlpha"/>
      <feGaussianBlur stdDeviation="3" result="blur"/>
      <feFlood flood-opacity="0.161"/>
      <feComposite operator="in" in2="blur"/>
      <feComposite in="SourceGraphic"/>
    </filter>
  </defs>
  <g id="Grupo_136520" data-name="Grupo 136520" transform="translate(-180 -1675.67)">
    <g id="Grupo_136237" data-name="Grupo 136237" transform="translate(0 -321.33)">
      <g id="Grupo_128321" data-name="Grupo 128321" transform="translate(0 1598)">
        <rect id="Rectángulo_40586" data-name="Rectángulo 40586" width="190" height="20" transform="translate(180 444)" fill="none"/>
        <g id="Grupo_108405" data-name="Grupo 108405" transform="translate(209.5 463)">
          <path id="Rectángulo_5242" data-name="Rectángulo 5242" d="M0,0H12a0,0,0,0,1,0,0V43.333a3,3,0,0,1-3,3H3a3,3,0,0,1-3-3V0A0,0,0,0,1,0,0Z" transform="translate(0 0)" fill="url(#linear-gradient)"/>
        </g>
        <g id="Grupo_108406" data-name="Grupo 108406" transform="translate(340 451) rotate(180)">
          <path id="Rectángulo_5242-2" data-name="Rectángulo 5242" d="M0,0H12a0,0,0,0,1,0,0V49a3,3,0,0,1-3,3H3a3,3,0,0,1-3-3V0A0,0,0,0,1,0,0Z" transform="translate(0 0)" fill="url(#linear-gradient-2)"/>
        </g>
        <g transform="matrix(1, 0, 0, 1, 180, 399)" filter="url(#Rectángulo_40720)">
          <path id="Rectángulo_40720-2" data-name="Rectángulo 40720" d="M10,0H80A10,10,0,0,1,90,10V90a0,0,0,0,1,0,0H10A10,10,0,0,1,0,80V10A10,10,0,0,1,10,0Z" transform="translate(50 10)" fill="#f6f6f6"/>
        </g>
      </g>
    </g>
    <g id="Grupo_136285" data-name="Grupo 136285" transform="translate(782.87 -304.45)">
      <path id="Trazado_194563" data-name="Trazado 194563" d="M-490.553,2050.253h.911q6.208,0,12.417,0c1.267,0,1.664.406,1.666,1.692,0,1.874.01,3.749,0,5.623a7.48,7.48,0,0,1-7.715,7.676q-19.758.014-39.515,0a7.478,7.478,0,0,1-7.745-7.8q-.007-19.328,0-38.656v-1.023h-.88q-4.959,0-9.918,0c-1.288,0-1.694-.4-1.7-1.661,0-1.9-.01-3.8,0-5.7a7.462,7.462,0,0,1,7.6-7.626q18.625-.021,37.25,0a7.484,7.484,0,0,1,7.585,6.673c.01.077.015.155.021.233.085,1.1-.309,1.738-1.114,1.827-.61.067-1.361-.464-1.406-1.594a4.847,4.847,0,0,0-4.8-4.63c-10.568-.028-21.137-.011-31.705-.01a1.076,1.076,0,0,0-.2.047,1.287,1.287,0,0,0,.12.261,7.951,7.951,0,0,1,1.644,5.09q-.019,23.428-.005,46.855a4.964,4.964,0,0,0,3.957,5.1,4.958,4.958,0,0,0,6.025-4.716c.046-2,.009-4.009.013-6.013,0-1.229.413-1.644,1.634-1.644q11.206,0,22.413,0h.943v-.882q0-5.545,0-11.089a3.576,3.576,0,0,1,.022-.7,1.184,1.184,0,0,1,1.249-1.058,1.175,1.175,0,0,1,1.2,1.026,3.7,3.7,0,0,1,.029.778q0,5.505,0,11.011Zm-26.919,12.5h4.172q15.028,0,30.056,0a4.986,4.986,0,0,0,5.184-5.154c.008-1.067,0-2.134,0-3.2v-1.577H-515.5C-515.771,2056.183-514.755,2059.721-517.472,2062.748Zm-13.068-47.51c0-1.741.023-3.4-.005-5.063a4.984,4.984,0,0,0-4.482-4.885,4.794,4.794,0,0,0-5.34,3.961,46.674,46.674,0,0,0-.051,5.988Z" transform="translate(0 0)" fill="#6836bf"/>
      <path id="Trazado_194564" data-name="Trazado 194564" d="M-341.4,2074.763a10.007,10.007,0,0,1-13.789-1.78,9.941,9.941,0,0,1,.646-13.245,10.023,10.023,0,0,1,13.047-1.074,10.088,10.088,0,0,1,2.1,14.128l2.791,2.778a9.183,9.183,0,0,1,.787-.942,1.19,1.19,0,0,1,1.81-.009q3.749,3.7,7.454,7.454a1.185,1.185,0,0,1-.013,1.812q-1.82,1.878-3.7,3.7a1.181,1.181,0,0,1-1.81-.023q-3.719-3.68-7.4-7.4a1.2,1.2,0,0,1-.006-1.865,9.138,9.138,0,0,1,.932-.769Zm-5.963-15.53a7.514,7.514,0,0,0-7.537,7.451,7.518,7.518,0,0,0,7.451,7.539,7.516,7.516,0,0,0,7.537-7.453A7.512,7.512,0,0,0-347.366,2059.233Zm10.631,19.937,5.569,5.554,1.755-1.765-5.576-5.572Z" transform="translate(-146.892 -42.715)" fill="#6836bf"/>
      <path id="Trazado_194565" data-name="Trazado 194565" d="M-445.7,2068.173q0,7.887,0,15.774c0,1.327-.392,1.717-1.719,1.719-1.432,0-2.863.009-4.3,0-1.019-.008-1.479-.463-1.479-1.484q-.007-16.009,0-32.018c0-1.021.459-1.472,1.482-1.479,1.484-.01,2.968-.008,4.451,0,1.121,0,1.558.438,1.56,1.56Q-445.692,2060.208-445.7,2068.173Zm-4.944-14.957V2083.1h2.405v-29.889Z" transform="translate(-71.097 -37.913)" fill="#6836bf"/>
      <path id="Trazado_194566" data-name="Trazado 194566" d="M-397.792,2121.832q0,4.8,0,9.605c0,1.18-.426,1.611-1.585,1.616q-2.187.008-4.373,0c-1.078-.006-1.534-.446-1.535-1.507q-.008-9.722,0-19.444c0-1.08.443-1.529,1.505-1.536q2.225-.014,4.451,0c1.107.005,1.535.447,1.537,1.584Q-397.787,2116.99-397.792,2121.832Zm-4.958-8.735v17.409h2.406V2113.1Z" transform="translate(-109.004 -85.3)" fill="#6836bf"/>
      <path id="Trazado_194567" data-name="Trazado 194567" d="M-349.9,2175.514c0,1.145.008,2.291,0,3.436-.01,1.023-.46,1.479-1.477,1.487q-2.264.017-4.529,0c-1.023-.007-1.481-.459-1.485-1.477q-.015-3.514,0-7.028c0-1.024.457-1.478,1.476-1.485q2.264-.016,4.529,0c1.024.007,1.477.458,1.486,1.476C-349.888,2173.12-349.9,2174.317-349.9,2175.514Zm-4.957-2.536v4.914h2.4v-4.914Z" transform="translate(-146.904 -132.686)" fill="#6836bf"/>
      <path id="Trazado_194568" data-name="Trazado 194568" d="M-377.576,2026.726c.807,0,1.614-.015,2.42,0a1.248,1.248,0,0,1,1.336,1.229,1.236,1.236,0,0,1-1.31,1.256q-2.42.034-4.84,0a1.24,1.24,0,0,1-1.334-1.231,1.256,1.256,0,0,1,1.386-1.257C-379.138,2026.714-378.357,2026.726-377.576,2026.726Z" transform="translate(-127.985 -18.956)" fill="#6836bf"/>
      <path id="Trazado_194569" data-name="Trazado 194569" d="M-332.146,2026.771a1.254,1.254,0,0,1,1.235,1.251,1.258,1.258,0,0,1-1.251,1.236,1.255,1.255,0,0,1-1.234-1.252A1.251,1.251,0,0,1-332.146,2026.771Z" transform="translate(-165.897 -18.996)" fill="#6836bf"/>
    </g>
  </g>
</svg>
