<svg xmlns="http://www.w3.org/2000/svg" width="100" height="100" viewBox="0 0 100 100">
  <g id="Grupo_136521" data-name="Grupo 136521" transform="translate(-180 -1851)">
    <g id="Grupo_136146" data-name="Grupo 136146" transform="translate(180 1851)">
      <circle id="Elipse_5355" data-name="Elipse 5355" cx="50" cy="50" r="50" fill="#b13e8d"/>
    </g>
    <g id="Grupo_136283" data-name="Grupo 136283" transform="translate(1364.772 494.281)">
      <path id="Trazado_194543" data-name="Trazado 194543" d="M-1155.3,1372.2c.418.365.823.737.564,1.375-.252.621-.785.679-1.358.673s-1.137-.016-1.7.016a3.04,3.04,0,0,0-2.909,2.9c-.013.217-.012.435-.012.653q0,27.813.006,55.627a4.58,4.58,0,0,0,.176,1.477,2.939,2.939,0,0,0,2.668,2.078c.174.017.349.019.524.019q23.01,0,46.02,0a3.093,3.093,0,0,0,3.385-3.365c0-.631,0-1.262,0-1.893,0-.522-.025-1.047.018-1.566a.968.968,0,0,1,1.044-.947.917.917,0,0,1,.979.938,33.091,33.091,0,0,1-.1,4.559,4.988,4.988,0,0,1-5.053,4.315c-3.234.021-6.468.006-9.7.006h-36.383c-3.5,0-5.641-2.122-5.641-5.6q0-27.781,0-55.562c0-3.06,1.287-4.767,4.231-5.619.037-.011.064-.054.1-.082Z" transform="translate(0 0)" fill="#fff"/>
      <path id="Trazado_194544" data-name="Trazado 194544" d="M-1040.952,1372.2c.031.029.058.073.094.084,2.941.866,4.225,2.575,4.225,5.628q0,23.727,0,47.454a3.886,3.886,0,0,1-.021.716.96.96,0,0,1-.982.873.941.941,0,0,1-1.019-.824,4.264,4.264,0,0,1-.039-.845q0-23.76.006-47.519a3.072,3.072,0,0,0-1.035-2.69,6.617,6.617,0,0,0-1.813-.8,2.9,2.9,0,0,0-.912-.033h-38.6c-.2,0-.393-.006-.589,0-.578.019-1.118-.064-1.347-.686s.131-1.025.6-1.361Z" transform="translate(-69.24 0)" fill="#fff"/>
      <path id="Trazado_194545" data-name="Trazado 194545" d="M-1099.848,1568.678c.794-.808,1.621-1.67,2.473-2.509a1,1,0,0,1,1.668.094,1.063,1.063,0,0,1-.284,1.4q-2.256,2.23-4.5,4.476-1.969,1.962-3.94,3.923c-.679.673-1.179.677-1.848.02q-1.1-1.077-2.178-2.17a1.057,1.057,0,0,1-.13-1.6,1.047,1.047,0,0,1,1.558.154c.541.536,1.06,1.094,1.559,1.612l3.937-3.935c-1.208-1.751-4.124-2.454-6.413-1.505a5.7,5.7,0,0,0-3.36,6.629,5.749,5.749,0,0,0,5.956,4.307,5.692,5.692,0,0,0,5.292-5.365c0-.087,0-.175.012-.261a1.065,1.065,0,0,1,1.084-1.072,1.045,1.045,0,0,1,.971,1.175,7.611,7.611,0,0,1-2.936,5.88,7.714,7.714,0,0,1-8.887.537,7.709,7.709,0,0,1-3.57-8.017,7.713,7.713,0,0,1,6.4-6.176,7.593,7.593,0,0,1,6.532,1.961c.146.13.287.266.431.4A.853.853,0,0,0-1099.848,1568.678Z" transform="translate(-42.778 -168.247)" fill="#fff"/>
      <path id="Trazado_194546" data-name="Trazado 194546" d="M-1105.755,1730.393a7.809,7.809,0,0,1-7.768-7.728,7.8,7.8,0,0,1,7.809-7.751,7.8,7.8,0,0,1,7.735,7.759A7.809,7.809,0,0,1-1105.755,1730.393Zm5.709-7.757a5.7,5.7,0,0,0-5.7-5.679,5.72,5.72,0,0,0-5.718,5.74,5.7,5.7,0,0,0,5.747,5.636A5.676,5.676,0,0,0-1100.046,1722.636Z" transform="translate(-42.779 -297.873)" fill="#fff"/>
      <path id="Trazado_194547" data-name="Trazado 194547" d="M-1097.979,1430.177a7.812,7.812,0,0,1-7.767,7.731,7.807,7.807,0,0,1-7.777-7.72,7.8,7.8,0,0,1,7.8-7.761A7.8,7.8,0,0,1-1097.979,1430.177Zm-2.067-.036a5.693,5.693,0,0,0-5.714-5.667,5.717,5.717,0,0,0-5.709,5.682,5.7,5.7,0,0,0,5.757,5.693A5.678,5.678,0,0,0-1100.047,1430.141Z" transform="translate(-42.778 -43.657)" fill="#fff"/>
      <path id="Trazado_194548" data-name="Trazado 194548" d="M-954.52,1729.465h10.683a4.082,4.082,0,0,1,.589.01.954.954,0,0,1,.91.944.926.926,0,0,1-.795,1.035,3.64,3.64,0,0,1-.781.054q-10.584,0-21.169,0c-1.081,0-1.581-.33-1.577-1.036s.489-1.01,1.588-1.01Z" transform="translate(-170.348 -310.515)" fill="#fff"/>
      <path id="Trazado_194549" data-name="Trazado 194549" d="M-954.528,1437h10.748a3.073,3.073,0,0,1,.588.017.948.948,0,0,1,.849.933.926.926,0,0,1-.793,1.035,3.687,3.687,0,0,1-.782.05q-10.584,0-21.168,0c-1.09,0-1.583-.323-1.58-1.028s.486-1.008,1.587-1.008Z" transform="translate(-170.342 -56.321)" fill="#fff"/>
      <path id="Trazado_194550" data-name="Trazado 194550" d="M-954.48,1585.26H-965.1a3.4,3.4,0,0,1-.654-.02.956.956,0,0,1-.85-1,.918.918,0,0,1,.8-.97,3.76,3.76,0,0,1,.717-.043q10.65,0,21.3,0a3.609,3.609,0,0,1,.653.031.948.948,0,0,1,.852.994.987.987,0,0,1-.926,1,5.235,5.235,0,0,1-.589.01Z" transform="translate(-170.399 -183.413)" fill="#fff"/>
      <path id="Trazado_194551" data-name="Trazado 194551" d="M-955.908,1656.741h9.233a3.561,3.561,0,0,1,.588.015.966.966,0,0,1,.914,1.01.969.969,0,0,1-.914,1.012,3.465,3.465,0,0,1-.588.018h-18.467a4.793,4.793,0,0,1-.523-.01,1.031,1.031,0,0,1-.99-1.021,1.027,1.027,0,0,1,.99-1.019,5.16,5.16,0,0,1,.524-.007Z" transform="translate(-170.352 -247.308)" fill="#fff"/>
      <path id="Trazado_194552" data-name="Trazado 194552" d="M-955.908,1512.694h-9.231c-.2,0-.394.008-.589-.011a.994.994,0,0,1-.945-.981.986.986,0,0,1,.913-1.008,3.834,3.834,0,0,1,.458-.014q9.395,0,18.79,0a2.662,2.662,0,0,1,.522.027.924.924,0,0,1,.8.963.927.927,0,0,1-.773.99,3.181,3.181,0,0,1-.717.033Q-951.293,1512.7-955.908,1512.694Z" transform="translate(-170.336 -120.361)" fill="#fff"/>
      <path id="Trazado_194553" data-name="Trazado 194553" d="M-955.854,1803.155c3.143,0,6.286-.015,9.428.02a1.573,1.573,0,0,1,1.06.456.95.95,0,0,1-.619,1.505,3.9,3.9,0,0,1-.718.032q-9.232,0-18.463,0c-.153,0-.306,0-.458-.005a1.011,1.011,0,0,1-1.052-1.013.989.989,0,0,1,1.068-.99c1.571-.015,3.143-.006,4.714-.006Z" transform="translate(-170.332 -374.566)" fill="#fff"/>
      <path id="Trazado_194554" data-name="Trazado 194554" d="M-957.553,1622q-3.8,0-7.6,0a2.681,2.681,0,0,1-.652-.035.961.961,0,0,1-.8-.982.94.94,0,0,1,.788-.985,2.869,2.869,0,0,1,.65-.046q7.636,0,15.272,0a3.082,3.082,0,0,1,.523.017.979.979,0,0,1,.925,1,.981.981,0,0,1-.978,1.018c-.588.034-1.179.012-1.769.013Z" transform="translate(-170.393 -215.333)" fill="#fff"/>
      <path id="Trazado_194555" data-name="Trazado 194555" d="M-957.552,1473.865c2.621,0,5.242,0,7.864,0,.774,0,1.233.423,1.176,1.073a.93.93,0,0,1-.923.924c-.434.035-.873.019-1.31.019h-14.22c-.2,0-.394.006-.59,0-.695-.032-1.125-.423-1.123-1.013a1.01,1.01,0,0,1,1.131-1c1.966-.009,3.932,0,5.9,0Z" transform="translate(-170.332 -88.363)" fill="#fff"/>
      <path id="Trazado_194556" data-name="Trazado 194556" d="M-957.519,1766.317c2.621,0,5.242,0,7.864,0,.815,0,1.362.537,1.142,1.195a1.737,1.737,0,0,1-.771.77,1.643,1.643,0,0,1-.772.057q-7.5,0-15.006,0a4.811,4.811,0,0,1-.719-.032.943.943,0,0,1-.857-.989.953.953,0,0,1,.929-.99c.719-.032,1.441-.013,2.162-.013Z" transform="translate(-170.365 -342.546)" fill="#fff"/>
    </g>
  </g>
</svg>
