<svg xmlns="http://www.w3.org/2000/svg" width="100" height="100" viewBox="0 0 100 100">
  <g id="Grupo_136524" data-name="Grupo 136524" transform="translate(-180 -2346)">
    <g id="Grupo_136149" data-name="Grupo 136149" transform="translate(180 2346)">
      <circle id="Elipse_5361" data-name="Elipse 5361" cx="50" cy="50" r="50" fill="#b13e8d"/>
    </g>
    <path id="Trazado_194557" data-name="Trazado 194557" d="M-542.845,1738.549h-1.32a9.918,9.918,0,0,1-2.085-1.213c-1.875-1.8-3.68-3.688-5.474-5.578a3.957,3.957,0,0,1,.226-5.813c1.878-1.737,3.752-3.477,5.651-5.189a1.385,1.385,0,0,0,.505-1.151c-.015-9.107,0-18.214-.018-27.322a4.739,4.739,0,0,1,1.41-3.512c1.128-1.138,2.249-2.287,3.334-3.468a1.613,1.613,0,0,0,.394-.984c.028-3.4.014-6.808.018-10.212a4.5,4.5,0,0,1,4.72-4.82q20.489,0,40.977,0a5.479,5.479,0,0,1,.985.063,4.516,4.516,0,0,1,3.735,4.758q0,25.834,0,51.668c0,.135,0,.271,0,.405a4.467,4.467,0,0,1-3.333,4.269,14,14,0,0,1-1.752.228c-.382,3.373-2.77,4.526-5.3,4.512-12.6-.068-25.206-.025-37.81-.048a1.7,1.7,0,0,0-1.451.683C-540.384,1736.97-541.279,1738.209-542.845,1738.549Zm-.235-46.31v25.879a1.215,1.215,0,0,0,.215-.117q4.032-3.7,8.051-7.411c.135-.125.129-.414.182-.628.141-.574.114-1.294.45-1.7a8.1,8.1,0,0,1,2.928-2.64c-2.774-9.956,4.012-19.729,13.856-20.456a15.639,15.639,0,0,1,16.631,15.2,15.366,15.366,0,0,1-4.569,11.97c-4.362,4.353-9.587,5.559-15.393,4.047a8.758,8.758,0,0,1-2.752,3.106,2.123,2.123,0,0,1-1.3.362,1.14,1.14,0,0,0-1,.47q-5.337,6.087-10.69,12.159c-.081.092-.15.195-.278.362.267.013.436.029.6.029q18.28,0,36.561,0c1.584,0,2.424-.906,2.424-2.6q0-24.924,0-49.848c0-1.759-.837-2.617-2.545-2.617h-29.678v.788q0,4.735,0,9.469c0,2.628-1.493,4.167-4.048,4.171q-4.422.007-8.843,0Zm5.124-9.857c1.771-1.766,3.548-3.481,5.26-5.263a4.928,4.928,0,0,1,3.768-1.6q14.518.03,29.037.01c3.163,0,4.959,1.831,4.959,5.057q0,23.435,0,46.87v.839c1.816.228,2.915-.7,2.915-2.4q.006-25.938,0-51.875a2.205,2.205,0,0,0-2.376-2.442q-20.623-.005-41.245,0a2.193,2.193,0,0,0-2.339,2.409c-.009,2.66,0,5.32,0,7.981C-537.978,1682.114-537.962,1682.265-537.956,1682.382Zm4.785,29.81a1.011,1.011,0,0,0-.135.095q-8.382,7.69-16.759,15.386a1.668,1.668,0,0,0-.018,2.558q2.642,2.744,5.317,5.453a1.6,1.6,0,0,0,2.589-.1q7.338-8.335,14.669-16.675c.156-.177.3-.365.394-.481Zm30.2-11.1a13.54,13.54,0,0,0-12.325-13.659c-9.08-.674-16.15,7.941-13.931,16.98a7.909,7.909,0,0,0,2.229,4.113c1.4,1.3,2.661,2.753,4.011,4.109a4.366,4.366,0,0,0,1.223.877C-512.963,1717.586-502.986,1710.985-502.975,1701.094Zm-38.874-11.275.087.147c2.876,0,5.753.012,8.629-.007a1.459,1.459,0,0,0,1.52-1.645q.013-4.255,0-8.509a2.561,2.561,0,0,0-.065-.409l.125.2Zm10.877,18.065a9.463,9.463,0,0,1-.943,1.141c-.47.421-.431.7,0,1.138,2.056,2.066,4.07,4.176,6.122,6.246,1.41,1.423.868,1.452,2.442-.09.29-.284.273-.5-.007-.785q-3.53-3.6-7.047-7.21A6.576,6.576,0,0,0-530.972,1707.885Z" transform="translate(748.693 691.877)" fill="#fff"/>
  </g>
</svg>
